<svg viewBox="2.2559807999999997 0 1916.16 187.13028712871287" xmlns="http://www.w3.org/2000/svg" data-name="Layer 2" id="Layer_2" style="max-height: 500px" width="1916.16" height="187.13028712871287">
  <g data-name="Layer 1" id="Layer_1-2">
    <g>
      <path fill="#333" d="M141.408,75.853c-3.719,0-6.94-.656-9.662-1.967-2.723-1.312-4.864-3.154-6.425-5.529-1.562-2.373-2.474-5.17-2.739-8.392l2.291-.1c.365,4.218,1.967,7.554,4.807,10.011,2.838,2.457,6.748,3.686,11.729,3.686s8.947-1.195,11.903-3.586c2.955-2.391,4.433-5.512,4.433-9.363,0-2.889-.955-5.055-2.863-6.5-1.91-1.443-4.707-2.614-8.393-3.511l-9.015-2.142c-4.45-1.062-7.828-2.598-10.136-4.607-2.308-2.008-3.461-4.738-3.461-8.192,0-2.921,.747-5.479,2.241-7.67s3.577-3.893,6.251-5.104c2.672-1.212,5.769-1.818,9.288-1.818,3.387,0,6.333,.606,8.841,1.818,2.506,1.212,4.515,2.972,6.025,5.279s2.448,5.121,2.814,8.441l-2.291,.149c-.565-4.415-2.142-7.753-4.731-10.011s-6.144-3.387-10.658-3.387c-4.649,0-8.392,1.121-11.231,3.361-2.838,2.242-4.258,5.223-4.258,8.94,0,2.889,.996,5.147,2.988,6.773,1.992,1.628,4.897,2.889,8.716,3.785l9.114,2.142c4.216,1.029,7.445,2.457,9.688,4.283,2.24,1.826,3.361,4.482,3.361,7.969,0,3.021-.771,5.678-2.316,7.969-1.543,2.291-3.71,4.076-6.499,5.354-2.789,1.278-6.06,1.918-9.812,1.918Z"/>
      <path fill="#333" d="M191.711,75.952c-4.482,0-8.467-1.195-11.953-3.586s-6.218-5.652-8.193-9.787c-1.976-4.133-2.963-8.84-2.963-14.119,0-5.312,.987-10.027,2.963-14.145s4.707-7.371,8.193-9.762,7.471-3.586,11.953-3.586,8.449,1.195,11.903,3.586c3.453,2.391,6.167,5.645,8.144,9.762,1.975,4.117,2.963,8.832,2.963,14.145,0,5.279-.979,9.986-2.938,14.119-1.96,4.135-4.674,7.396-8.144,9.787s-7.445,3.586-11.928,3.586Zm0-2.291c4.051,0,7.637-1.078,10.758-3.237,3.12-2.157,5.561-5.138,7.321-8.94,1.76-3.801,2.64-8.143,2.64-13.023s-.889-9.222-2.664-13.023c-1.777-3.802-4.227-6.781-7.347-8.94-3.121-2.157-6.691-3.237-10.708-3.237s-7.596,1.08-10.732,3.237c-3.139,2.159-5.604,5.139-7.396,8.94s-2.689,8.143-2.689,13.023,.896,9.223,2.689,13.023c1.793,3.803,4.258,6.783,7.396,8.94,3.137,2.159,6.715,3.237,10.732,3.237Z"/>
      <path fill="#333" d="M229.513,75.604c-.73,0-1.362-.258-1.893-.772-.531-.514-.797-1.137-.797-1.867,0-.764,.266-1.402,.797-1.918,.53-.514,1.162-.771,1.893-.771,.764,0,1.402,.258,1.917,.771,.515,.516,.772,1.154,.772,1.918,0,.73-.258,1.354-.772,1.867-.515,.515-1.153,.772-1.917,.772Z"/>
      <path fill="#333" d="M251.128,75.604c-.73,0-1.362-.258-1.893-.772-.531-.514-.797-1.137-.797-1.867,0-.764,.266-1.402,.797-1.918,.53-.514,1.162-.771,1.893-.771,.764,0,1.402,.258,1.917,.771,.515,.516,.772,1.154,.772,1.918,0,.73-.258,1.354-.772,1.867-.515,.515-1.153,.772-1.917,.772Z"/>
      <path fill="#333" d="M272.743,75.604c-.73,0-1.362-.258-1.893-.772-.531-.514-.797-1.137-.797-1.867,0-.764,.266-1.402,.797-1.918,.53-.514,1.162-.771,1.893-.771,.764,0,1.402,.258,1.917,.771,.515,.516,.772,1.154,.772,1.918,0,.73-.258,1.354-.772,1.867-.515,.515-1.153,.772-1.917,.772Z"/>
      <path fill="#333" d="M294.358,75.604c-.73,0-1.362-.258-1.893-.772-.531-.514-.797-1.137-.797-1.867,0-.764,.266-1.402,.797-1.918,.53-.514,1.162-.771,1.893-.771,.764,0,1.402,.258,1.917,.771,.515,.516,.772,1.154,.772,1.918,0,.73-.258,1.354-.772,1.867-.515,.515-1.153,.772-1.917,.772Z"/>
      <path fill="#333" d="M1233.127,75.853c-4.482,0-8.467-1.187-11.953-3.561s-6.218-5.629-8.193-9.762c-1.976-4.135-2.963-8.841-2.963-14.12s.987-9.985,2.963-14.12c1.976-4.133,4.707-7.387,8.193-9.762,3.486-2.373,7.471-3.561,11.953-3.561,2.789,0,5.337,.457,7.645,1.369,2.308,.914,4.341,2.15,6.102,3.711,1.76,1.561,3.22,3.329,4.383,5.305,1.162,1.976,1.959,4.025,2.391,6.15l-2.241,.299c-.432-1.926-1.171-3.752-2.216-5.479-1.047-1.727-2.35-3.27-3.91-4.632-1.562-1.36-3.361-2.44-5.404-3.237-2.041-.797-4.291-1.195-6.748-1.195-4.018,0-7.596,1.07-10.732,3.213-3.139,2.141-5.604,5.104-7.396,8.89s-2.689,8.136-2.689,13.049,.896,9.264,2.689,13.049,4.258,6.749,7.396,8.89c3.137,2.143,6.715,3.213,10.732,3.213,2.457,0,4.707-.39,6.748-1.17,2.043-.78,3.852-1.859,5.43-3.238,1.576-1.377,2.889-2.93,3.934-4.656,1.047-1.727,1.785-3.536,2.217-5.429l2.241,.249c-.432,2.125-1.229,4.176-2.391,6.15-1.163,1.977-2.632,3.744-4.407,5.305-1.777,1.561-3.819,2.798-6.127,3.711-2.308,.912-4.855,1.369-7.645,1.369Z"/>
      <path fill="#333" d="M1280.143,75.952c-3.056,0-5.927-.548-8.616-1.644s-4.864-2.755-6.524-4.98c-1.661-2.224-2.49-5.013-2.49-8.367,0-2.124,.374-3.992,1.12-5.603,.748-1.61,1.959-3.021,3.637-4.234,1.676-1.211,3.892-2.232,6.648-3.062,2.756-.83,6.158-1.51,10.21-2.042,3.055-.398,5.744-.829,8.068-1.295,2.323-.464,4.159-1.12,5.503-1.968,1.346-.846,2.018-1.982,2.018-3.411v-1.843c0-2.756-.73-5.205-2.191-7.346-1.462-2.143-3.437-3.826-5.927-5.056-2.49-1.228-5.312-1.843-8.467-1.843-3.056,0-5.827,.572-8.317,1.719-2.49,1.145-4.5,2.723-6.026,4.73-1.527,2.01-2.391,4.293-2.59,6.849l-2.241-.199c.199-2.954,1.17-5.586,2.914-7.894,1.742-2.308,4.025-4.135,6.848-5.479,2.821-1.346,5.959-2.018,9.413-2.018,2.722,0,5.221,.416,7.495,1.245,2.274,.831,4.267,1.992,5.977,3.486s3.039,3.246,3.984,5.255c.947,2.009,1.42,4.191,1.42,6.549v37.553h-2.291v-10.957h-.149c-1.029,2.391-2.49,4.475-4.383,6.25-1.893,1.777-4.117,3.155-6.674,4.135-2.558,.979-5.347,1.469-8.367,1.469Zm0-2.291c3.586,0,6.855-.805,9.812-2.416,2.955-1.609,5.32-3.967,7.098-7.072,1.775-3.104,2.664-6.897,2.664-11.38v-8.815c-.73,.598-1.562,1.113-2.49,1.544-.93,.433-2.01,.806-3.237,1.12-1.229,.316-2.632,.598-4.208,.848-1.578,.248-3.396,.522-5.454,.821-4.781,.632-8.608,1.478-11.479,2.54-2.873,1.062-4.932,2.416-6.176,4.059-1.246,1.645-1.868,3.661-1.868,6.052,0,2.689,.688,4.989,2.067,6.897,1.377,1.91,3.236,3.354,5.578,4.334,2.34,.979,4.905,1.469,7.694,1.469Z"/>
      <path fill="#333" d="M1316.749,75.056V21.765h2.291v9.612h.1c1.327-3.054,3.512-5.486,6.549-7.296,3.039-1.81,6.467-2.715,10.285-2.715h1.195v2.291h-1.195c-3.255,0-6.159,.723-8.716,2.166-2.558,1.445-4.565,3.421-6.026,5.928-1.462,2.507-2.191,5.387-2.191,8.641v34.664h-2.291Z"/>
      <path fill="#333" d="M1363.366,75.952c-4.582,0-8.634-1.195-12.152-3.586-3.52-2.391-6.268-5.66-8.243-9.812-1.976-4.149-2.963-8.849-2.963-14.095,0-5.312,.987-10.027,2.963-14.145s4.707-7.371,8.193-9.762,7.471-3.586,11.953-3.586c3.354,0,6.416,.664,9.189,1.992,2.771,1.328,5.171,3.18,7.196,5.553,2.024,2.375,3.586,5.147,4.682,8.318s1.644,6.633,1.644,10.384v1.195h-44.625v-2.291h43.181l-.847,.548c0-4.482-.889-8.492-2.664-12.027-1.777-3.537-4.201-6.316-7.271-8.343-3.072-2.024-6.567-3.038-10.484-3.038-3.984,0-7.545,1.07-10.684,3.213-3.137,2.141-5.611,5.088-7.42,8.84-1.811,3.752-2.715,8.068-2.715,12.949v.1c0,4.881,.879,9.223,2.64,13.023,1.76,3.803,4.225,6.799,7.396,8.99s6.849,3.287,11.032,3.287c3.088,0,5.927-.589,8.517-1.768s4.798-2.781,6.624-4.807c1.825-2.025,3.104-4.283,3.835-6.773l2.291,.299c-.797,2.889-2.217,5.496-4.258,7.819-2.043,2.325-4.525,4.159-7.446,5.503-2.922,1.346-6.109,2.018-9.562,2.018Z"/>
      <path fill="#333" d="M1416.956,75.952c-4.582,0-8.634-1.195-12.152-3.586-3.52-2.391-6.268-5.66-8.243-9.812-1.976-4.149-2.963-8.849-2.963-14.095,0-5.312,.987-10.027,2.963-14.145s4.707-7.371,8.193-9.762,7.471-3.586,11.953-3.586c3.354,0,6.416,.664,9.189,1.992,2.771,1.328,5.171,3.18,7.196,5.553,2.024,2.375,3.586,5.147,4.682,8.318s1.644,6.633,1.644,10.384v1.195h-44.625v-2.291h43.181l-.847,.548c0-4.482-.889-8.492-2.664-12.027-1.777-3.537-4.201-6.316-7.271-8.343-3.072-2.024-6.567-3.038-10.484-3.038-3.984,0-7.545,1.07-10.684,3.213-3.137,2.141-5.611,5.088-7.42,8.84-1.811,3.752-2.715,8.068-2.715,12.949v.1c0,4.881,.879,9.223,2.64,13.023,1.76,3.803,4.225,6.799,7.396,8.99s6.849,3.287,11.032,3.287c3.088,0,5.927-.589,8.517-1.768s4.798-2.781,6.624-4.807c1.825-2.025,3.104-4.283,3.835-6.773l2.291,.299c-.797,2.889-2.217,5.496-4.258,7.819-2.043,2.325-4.525,4.159-7.446,5.503-2.922,1.346-6.109,2.018-9.562,2.018Z"/>
      <path fill="#333" d="M1450.574,75.056V21.765h2.291v9.612h.1c1.327-3.054,3.512-5.486,6.549-7.296,3.039-1.81,6.467-2.715,10.285-2.715h1.195v2.291h-1.195c-3.255,0-6.159,.723-8.716,2.166-2.558,1.445-4.565,3.421-6.026,5.928-1.462,2.507-2.191,5.387-2.191,8.641v34.664h-2.291Z"/>
      <path fill="#333" d="M1522.442,75.952c-4.582,0-8.634-1.195-12.152-3.586-3.52-2.391-6.268-5.66-8.243-9.812-1.976-4.149-2.963-8.849-2.963-14.095,0-5.312,.987-10.027,2.963-14.145s4.707-7.371,8.193-9.762,7.471-3.586,11.953-3.586c3.354,0,6.416,.664,9.189,1.992,2.771,1.328,5.171,3.18,7.196,5.553,2.024,2.375,3.586,5.147,4.682,8.318s1.644,6.633,1.644,10.384v1.195h-44.625v-2.291h43.181l-.847,.548c0-4.482-.889-8.492-2.664-12.027-1.777-3.537-4.201-6.316-7.271-8.343-3.072-2.024-6.567-3.038-10.484-3.038-3.984,0-7.545,1.07-10.684,3.213-3.137,2.141-5.611,5.088-7.42,8.84-1.811,3.752-2.715,8.068-2.715,12.949v.1c0,4.881,.879,9.223,2.64,13.023,1.76,3.803,4.225,6.799,7.396,8.99s6.849,3.287,11.032,3.287c3.088,0,5.927-.589,8.517-1.768s4.798-2.781,6.624-4.807c1.825-2.025,3.104-4.283,3.835-6.773l2.291,.299c-.797,2.889-2.217,5.496-4.258,7.819-2.043,2.325-4.525,4.159-7.446,5.503-2.922,1.346-6.109,2.018-9.562,2.018Z"/>
      <path fill="#333" d="M1570.753,75.056l-21.615-53.291h2.44l14.842,36.557c1.028,2.523,2.042,5.064,3.038,7.62,.996,2.558,2.009,5.097,3.038,7.62h-.598c1.028-2.523,2.05-5.062,3.062-7.62,1.013-2.556,2.018-5.097,3.014-7.62l14.842-36.557h2.391l-21.615,53.291h-2.839Z"/>
      <path fill="#333" d="M1623.048,75.952c-4.582,0-8.634-1.195-12.152-3.586-3.52-2.391-6.268-5.66-8.243-9.812-1.976-4.149-2.963-8.849-2.963-14.095,0-5.312,.987-10.027,2.963-14.145s4.707-7.371,8.193-9.762,7.471-3.586,11.953-3.586c3.354,0,6.416,.664,9.189,1.992,2.771,1.328,5.171,3.18,7.196,5.553,2.024,2.375,3.586,5.147,4.682,8.318s1.644,6.633,1.644,10.384v1.195h-44.625v-2.291h43.181l-.847,.548c0-4.482-.889-8.492-2.664-12.027-1.777-3.537-4.201-6.316-7.271-8.343-3.072-2.024-6.567-3.038-10.484-3.038-3.984,0-7.545,1.07-10.684,3.213-3.137,2.141-5.611,5.088-7.42,8.84-1.811,3.752-2.715,8.068-2.715,12.949v.1c0,4.881,.879,9.223,2.64,13.023,1.76,3.803,4.225,6.799,7.396,8.99s6.849,3.287,11.032,3.287c3.088,0,5.927-.589,8.517-1.768s4.798-2.781,6.624-4.807c1.825-2.025,3.104-4.283,3.835-6.773l2.291,.299c-.797,2.889-2.217,5.496-4.258,7.819-2.043,2.325-4.525,4.159-7.446,5.503-2.922,1.346-6.109,2.018-9.562,2.018Z"/>
      <path fill="#333" d="M1658.957,40.093v34.963h-2.291V21.765h2.291v11.953h-.598c1.195-4.25,3.561-7.438,7.098-9.562,3.535-2.125,7.412-3.188,11.629-3.188,3.817,0,7.18,.806,10.086,2.416,2.904,1.61,5.187,3.844,6.848,6.698,1.66,2.856,2.49,6.192,2.49,10.011v34.963h-2.291V40.093c0-5.047-1.594-9.114-4.781-12.202s-7.305-4.632-12.352-4.632c-3.454,0-6.549,.723-9.289,2.166-2.738,1.445-4.897,3.438-6.475,5.977-1.577,2.541-2.365,5.438-2.365,8.691Z"/>
      <path fill="#333" d="M1725.994,21.765v2.291h-22.014v-2.291h22.014Zm-13.846-14.095h2.291v57.275c0,2.789,.672,4.84,2.018,6.151,1.344,1.312,3.361,1.885,6.051,1.718,.564,0,1.128-.008,1.693-.024,.564-.017,1.128-.041,1.693-.075l.1,2.291c-.565,.034-1.129,.058-1.693,.075-.565,.016-1.146,.024-1.743,.024-3.32,.199-5.886-.605-7.694-2.415-1.811-1.81-2.715-4.391-2.715-7.745V7.67Z"/>
      <path fill="#333" d="M1771.217,56.429v-6.823c0-2.755,.448-5.08,1.345-6.973s2.133-3.562,3.71-5.005c1.577-1.445,3.379-2.848,5.404-4.209,3.12-2.158,5.42-4.474,6.898-6.947,1.477-2.474,2.216-5.255,2.216-8.343,0-3.153-.697-5.918-2.092-8.292s-3.329-4.225-5.802-5.554c-2.475-1.327-5.354-1.992-8.642-1.992-3.32,0-6.268,.739-8.841,2.216-2.573,1.479-4.599,3.512-6.076,6.102s-2.216,5.562-2.216,8.915h-2.291c0-3.785,.838-7.147,2.515-10.085,1.677-2.939,3.977-5.246,6.898-6.924,2.921-1.676,6.258-2.515,10.011-2.515,3.718,0,6.989,.772,9.812,2.315,2.821,1.545,5.03,3.67,6.624,6.375,1.594,2.707,2.391,5.853,2.391,9.438,0,3.454-.806,6.566-2.415,9.339-1.611,2.772-4.177,5.387-7.695,7.844-1.86,1.295-3.504,2.574-4.931,3.835-1.428,1.263-2.54,2.714-3.337,4.358-.797,1.643-1.195,3.678-1.195,6.101v6.823h-2.291Zm1.146,19.175c-.73,0-1.362-.258-1.893-.772-.531-.514-.797-1.137-.797-1.867,0-.764,.266-1.402,.797-1.918,.53-.514,1.162-.771,1.893-.771,.764,0,1.402,.258,1.917,.771,.515,.516,.772,1.154,.772,1.918,0,.73-.258,1.354-.772,1.867-.515,.515-1.153,.772-1.917,.772Z"/>
    </g>
    <rect fill="#333" height="78" width="1920" y="116.847"/>
  </g>
</svg>