<?xml version="1.0" encoding="UTF-8"?>
<svg id="Layer_2" data-name="Layer 2" xmlns="http://www.w3.org/2000/svg" viewBox="0 0 1923 519.187">
  <g id="Layer_1-2" data-name="Layer 1">
    <path d="M1921,519.187H1V87.187H82.78c2.603,0,5.261,0,7.973,0,14.247-.999,32.247,5.001,42.247-5.999,7.5-8.5,13.25-20,20.375-29.625,1.781-2.406,3.648-4.695,5.655-6.796,7.97-8.579,18.97-13.579,30.97-12.579,3.25,.375,6.266,1.094,9.07,2.107,2.818,1.008,5.425,2.31,7.871,3.87,17.059,12.022,27.059,32.022,41.059,46.022,11,11,31,1,47.188,3h314.737c4.083,.002,8.174,.01,12.203,.238,30.871,.762,57.871,12.762,85.871,23.762,3,1,7,0,9.503,.497,2.999,.001,5.998-.373,8.935-1.123s5.812-1.875,8.562-3.375c21-12,43-21,66.663-20h283.941c2.181,.052,4.335,.079,6.513,.129,3.088,.987,6.178,1.725,9.252,2.226,3.075,.501,6.134,.763,9.163,.799,3.029,.036,6.026-.155,8.976-.563,2.95-.407,5.853-1.031,8.693-1.859,17.039-4.972,31.799-17.332,40.799-34.732,2-4,7-5,10.732-7.33,2.759-1.085,5.576-2.003,8.453-2.774,2.877-.771,5.815-1.396,8.815-1.896,6.75-1,12.5-.312,17.453,1.625,2.477,.969,4.754,2.25,6.86,3.789,15.687,11.586,25.687,32.586,44.687,38.586,13,5,29,2,44.278,1.998,2.206,.002,4.419,.002,6.629,.002h346.769c3.375,.003,6.733,.039,10.158,.358,4.166,.642,7.166,.642,11.166,2.642,12.688,4.375,28.246,16.023,43.749,24.586,3.101,1.713,6.199,3.302,9.273,4.686,35.978,24.728,73.978,3.728,97.463-26.826,3.037-.981,6.09-1.787,9.169-2.487,9.228-2.089,18.688-3.215,28.469-2.967,4.402,.007,8.527,.007,12.361,.007h35.517v432Z" fill="#3b56a6" opacity=".5"/>
    <g>
      <path d="M0,111.187s24.848,0,68.896,0c5.506,0,11.312,0,17.414,0,39.69,0,59.69-38,82.69-65,37-41,57,32,85,52,9,7,18,11,28.438,12.846,4.986,.154,10.038,.154,15.139,.154,86.784,0,187.67,0,295.88,0,5.254,0,10.525,0,15.813,0,31.731-2,55.731,19,80.731,37,14,10,29,5,42-3,23-16,45-31,73.348-32.906,5.609-.39,11.2-.591,16.797-1.094,83.781,0,169.003,0,253.051,0,2.657-.001,5.313-.003,7.97-.003,20.834,2.003,42.834-4.997,57.954-20.158,2.35-2.08,4.643-4.26,6.884-6.51,6.726-6.75,12.996-14.13,18.996-21.33,15-17,40-23,57-5,21,21,37,52,69.821,52.967,5.051,.033,10.09,.033,15.115,.033,120.587,0,232.751,0,327.343,0,4.543,.016,9.045,.025,13.508,.045,44.213-4.045,76.213,27.955,110.213,53.955,31,24,47-23,68-40,11-9,24-15,38.473-13.956,9.068-.044,17.14-.044,24.142-.044,21.007,0,32.386,0,32.386,0v-31s-20.229,0-56.537,0c-4.539,0-9.328,.001-14.361,.015-25.103-.015-44.103,17.985-66.103,28.985-8,3-16,5-24,2-38-10-71-35-112.212-30.95-4.464-.023-8.966-.032-13.508-.05-94.592,0-206.756,0-327.344,0-5.024,0-10.063-.003-15.11-.159-32.826-2.841-49.826-35.841-77.826-49.841-12-5-25-5-36,1-26,14-42,44-72.927,48.354-5.341,.623-10.643,.646-15.948,.646-84.753,0-170.875,0-255.666,0-5.653,0-11.3,0-16.94,0-30.519-1-59.519,7-89.519,15-10,2-19,2-29,0-28-5-53-14-80.243-14.611-5.364-.097-10.711-.17-16.041-.389-109.786,0-212.313,0-300.593,0-5.193,0-10.337,0-15.424-.138-41.698-3.862-53.698-52.862-85.698-74.862-35-24-48,42-76,61-12,8-24,15-37.993,14-6.212,0-12.13,0-17.742,0H0s0,31,0,31Z" fill="#333"/>
      <path d="M0,156.187s24.838,0,68.869,0c5.504,0,11.313,0,17.437-.045,37.694,1.045,62.694-27.955,93.694-45.955,10-5,20-1,28,5,23,18,44,40,74.375,40.774,4.974,.159,10.011,.192,15.093,.226,86.755,0,187.607,0,295.786,0,5.425,.028,10.868,.056,16.327,.127,36.419,1.873,53.419,37.873,77.419,59.873,16,14,35,2,47-10,22-22,44-51,78.277-49.845,5.759-.076,11.526-.115,17.299-.155,63.792,0,128.374,0,192.593,0,3.778-.004,7.554-.006,11.337-.008,30.495-.992,62.495,4.008,90.313-9.806,3.252-1.41,6.458-2.955,9.61-4.621,12.608-6.662,24.365-15.26,34.893-25.057,2.909-2.296,5.829-4.59,8.772-6.852,2.943-2.262,5.908-4.491,8.908-6.657,9-6,19-3,27,3,25,21,45,51,79.792,49.971,5.098,.014,10.181,.021,15.25,.029,126.72,0,244.169,0,341.743,0,4.461,0,8.88,0,13.256,0,43.959-4,67.959,38,97.959,64,9,7,21,7,31,1,29-19,39-59,74.609-64.046,8.932-.952,17.004-.954,24.006-.954,21.007,0,32.386,0,32.386,0v-31s-11.379,0-32.385,0c-7.002,0-15.074,0-24.139,.08-14.475-.08-26.475,6.92-36.475,15.92-16,16-24,39-44,49-26,12-42-23-61-38-18-15-39-26-61.854-26.67-4.47-.253-8.897-.286-13.361-.33-97.574,0-215.023,0-341.743,0-5.069-.003-10.152-.007-15.248-.032-33.794-.968-50.794-34.968-72.794-56.968-8-7-20-14-31-8-12.8,7.2-22.88,17.92-32.77,28.568-2.472,2.662-4.933,5.319-7.421,7.916-9.881,14.073-24.914,22.475-41.453,26.309-3.308,.767-6.676,1.351-10.075,1.761-14.281,.446-29.281,.446-43.678,.446-3.861,0-7.724,0-11.589,0-69.566,0-139.699,0-208.927,0-5.641,0-11.276,0-16.904,0-13.184,0-26.184,3-38.184,8-29,10-46,54-78,43-31-10-47-48-82.181-50.048-5.296-.512-10.622-.639-15.932-.952-109.506,0-211.74,0-299.754,0-5.172,0-10.295,0-15.362,0-37.77-1-55.77-38-78.77-64-12-13-28-10-39,3-22,27-44,59-81.28,60.999-6.207,0-12.106,0-17.7,0-44.749,0-70.02,0-70.02,0v31Z" fill="#333"/>
    </g>
  </g>
</svg>