<svg viewBox="1.850875962 0 1919.154 294.3055657894737" xmlns="http://www.w3.org/2000/svg" data-name="Layer 2" id="Layer_2" style="max-height: 500px" width="1919.154" height="294.3055657894737">
  <g data-name="Layer 1" id="Layer_1-2">
    <path opacity=".5" fill="#cc1f36" d="M1922,162h-62.19c-2.344,0-4.746,0-7.173-.011-3.886,.584-7.734,.939-11.542,1.074-12.699-1.021-24.942-5.146-36.476-11.244-2.883-1.525-5.726-3.191-8.434-5.133-10.741-9.804-18.284-22.465-27.559-33.023-1.855-2.112-3.779-4.139-5.812-6.043-16.815-19.62-46.815-15.62-62.815,4.38-10,12-11,27-21,39-3,3-6,5-9.715,5.641-3.465,1.391-7.146,2.422-11.008,3.486-2.157,.54-4.34,.985-6.546,1.318-4.413,.667-8.921,.889-13.516,.556h-356.264c-4.113,0-8.236,0-12.366,0-2.584-1-6.584,0-9.584,2-32,20-60,12-91.004-1.99-2.12-.01-4.243-.01-6.368-.01h-304.101c-2.876,0-5.75,0-8.598-.095-10.099-2.214-20.629-3.457-31.166-4.674-3.512-.405-7.023-.81-10.478-1.282-7.286-.949-14.286-2.949-21.286-6.949-24-16-48-52-79-35-2.875,1.875-5.625,3.906-8.289,6.036-18.644,14.905-33.045,34.61-56.377,39.125-2.843,.72-5.724,1.33-8.65,1.81-2.926,.48-5.897,.83-8.921,1.03-2.266,0-4.528,0-6.788,0H241.376c-3.256,0-6.487,0-9.69,.002-22.685-3.002-42.685,10.998-63.685,17.998-6,2-13,2-19.039,2.94-3.058,.188-6.097,.134-9.108-.188-12.044-1.285-23.639-6.841-34.162-18.233-2.549-1.148-5.208-2.028-8.039-2.495-2.831-.468-5.833-.523-9.069-.023H2V0H1922V162Z"/>
    <g>
      <path fill="#333" d="M1923,178h-86.31c-39.69,0-59.69-38-82.69-65-37-41-57,32-85,52-9,7-18,11-28.438,12.846-4.986,.154-10.038,.154-15.139,.154h-311.692c-31.731-2-55.731,19-80.731,37-14,10-29,5-42-3-23-16-45-31-73.348-32.906-5.609-.39-11.2-.591-16.797-1.094h-253.051c-5.314-.003-10.624-.005-15.928-.011-32.875,2.011-55.875-23.989-75.875-47.989-15-17-40-23-57-5-21,21-37,52-69.821,52.967-5.051,.033-10.09,.033-15.115,.033H286.721c-4.543,.016-9.045,.025-13.508,.045-44.213-4.045-76.213,27.955-110.213,53.955-31,24-47-23-68-40-11-9-24-15-38.473-13.956-9.068-.044-17.14-.044-24.142-.044H0v-31H56.537c4.539,0,9.328,.001,14.361,.015,25.103-.015,44.103,17.985,66.103,28.985,8,3,16,5,24,2,38-10,71-35,112.212-30.95,4.464-.023,8.966-.032,13.508-.05h327.344c5.024,0,10.063-.003,15.11-.159,32.826-2.841,49.826-35.841,77.826-49.841,12-5,25-5,36,1,26,14,42,44,72.927,48.354,5.341,.623,10.643,.646,15.948,.646h272.606c30.519-1,59.519,7,89.519,15,10,2,19,2,29,0,28-5,53-14,80.243-14.611,5.364-.097,10.711-.17,16.041-.389h300.593c5.193,0,10.337,0,15.424-.138,41.698-3.862,53.698-52.862,85.698-74.862,35-24,48,42,76,61,12,8,24,15,37.993,14h88.007v31Z"/>
      <path fill="#333" d="M1923,223h-68.869c-5.504,0-11.313,0-17.437-.045-37.694,1.045-62.694-27.955-93.694-45.955-10-5-20-1-28,5-23,18-44,40-74.375,40.774-4.974,.159-10.011,.192-15.093,.226h-295.786c-5.425,.028-10.868,.056-16.327,.127-36.419,1.873-53.419,37.873-77.419,59.873-16,14-35,2-47-10-22-22-44-51-78.277-49.845-5.759-.076-11.526-.115-17.299-.155h-242.648c-46.777,8-77.777-27-113.777-53-9-6-19-3-27,3-25,21-45,51-79.792,49.971-5.098,.014-10.181,.021-15.25,.029H259.959c-43.959-4-67.959,38-97.959,64-9,7-21,7-31,1-29-19-39-59-74.609-64.046-8.932-.952-17.004-.954-24.006-.954H0v-31H32.385c7.002,0,15.074,0,24.139,.08,14.475-.08,26.475,6.92,36.475,15.92,16,16,24,39,44,49,26,12,42-23,61-38,18-15,39-26,61.854-26.67,4.47-.253,8.897-.286,13.361-.33h341.743c5.069-.003,10.152-.007,15.248-.032,33.794-.968,50.794-34.968,72.794-56.968,8-7,20-14,31-8,32,18,47,58,84.524,63.869,5.465,.926,10.832,1.096,16.184,1.131h272.108c13.184,0,26.184,3,38.184,8,29,10,46,54,78,43,31-10,47-48,82.181-50.048,5.296-.512,10.622-.639,15.932-.952h299.754c5.172,0,10.295,0,15.362,0,37.77-1,55.77-38,78.77-64,12-13,28-10,39,3,22,27,44,59,81.28,60.999,6.207,0,12.106,0,17.7,0h70.02v31Z"/>
    </g>
  </g>
</svg>