<svg viewBox="471.00296984362143 23.258368125000004 632.7614732510289 1091.28834" xmlns:xlink="http://www.w3.org/1999/xlink" xmlns="http://www.w3.org/2000/svg" data-name="Layer 2" id="Layer_2" style="max-height: 500px" width="632.7614732510289" height="1091.28834">
  <defs>
    <clipPath id="clippath">
      <rect fill="none" height="1084" width="881" y="27" x="218"/>
    </clipPath>
  </defs>
  <g data-name="Layer 1" id="Layer_1-2">
    <g clip-path="url(#clippath)">
      <g>
        <path stroke-width="6" stroke-miterlimit="10" stroke="#cc1f36" opacity=".5" fill="#cc1f36" d="M604.84,1126.924c12.492,.168,25.478,.168,37.373,.168h137.447v-37.937c-.021-3.466-.039-7.148-.099-11.037-2.335-11.9-5.582-23.263-14.51-33.002-12.986-14.61-38.959-21.103-38.959-38.959,0-34.901,54.38-35.712,82.788-56.004,8.116-5.681,16.233-12.175,18.931-21.779,.819-3.652,.819-7.711-.263-12.31-4.735-20.291-19.615-34.382-32.428-50.728-2.563-3.269-5.043-6.628-7.324-10.149-12.152-27.743,17.572-50.237,29.622-73.534,4.82-8.033,8.837-22.494-2.41-25.707-4.017-1.104-8.322-2.247-12.757-3.482-4.033-1.696-8.197-2.975-12.433-4.015-26.224-4.553-61.571-6.963-67.998-39.9-7.23-36.151,28.92-54.627,53.199-71.714,4.601-3.192,8.984-6.24,13.072-9.292,4.093-3.046,7.919-6.116,11.288-9.266,3.672-2.764,7.378-5.502,11.07-8.251,3.692-2.75,7.37-5.511,10.985-8.323,5.623-4.418,9.841-10.443,11.347-16.77,1.506-6.326,.301-12.954-4.921-18.577-8.033-8.837-17.674-16.87-29.724-19.28-5.724-1.004-11.36-2.096-16.875-3.33-34.539-4.704-66.673-21.574-80.33-55.315-9.64-25.707,9.64-49.807,28.117-66.677,13.657-12.05,30.527-20.084,41.713-33.692,3.374-4.155,6.329-8.611,8.683-13.549,1.682-3.589,3.086-7.323,4.147-11.258,1.281-5.034,2.187-10.049,2.815-15.033,.522-4.378,.831-8.736,.975-13.096,1.206-31.043-6.91-61.073-7.722-91.916-.812-8.116,4.058-13.798,9.305-19.967,3.592-3.291,7.417-6.043,11.427-8.329,20.052-11.43,44.74-11.204,67.736-9.852,6.493,0,9.74-5.682,9.74-11.363-1.623-20.291-13.798-36.524-27.596-51.134-25.973-27.596-71.425-45.452-70.613-88.068V27.314h-100.762c-22.608,0-44.522,4.058-67.248,3.247,1.623,7.914,5.631,15.827,10.386,23.703,2.378,3.938,4.943,7.866,7.51,11.78,13.758,22.144,38.107,33.507,55.963,52.175,11.363,12.986-1.623,26.784-12.175,34.901-3.348,2.638-6.899,5.199-10.554,7.737-3.656,2.537-7.416,5.049-11.182,7.587-21.738,10.695-26.043,26.033-22.649,42.69,.849,4.164,2.178,8.41,3.832,12.661,6.464,16.171,19.45,29.969,25.944,44.579,6.493,14.61-17.856,24.349-32.062,25.876-4.59,.769-9.062,1.279-13.525,1.763-22.312,2.417-44.506,4.32-64.797,17.002-7.305,4.87-3.247,12.986,.812,19.479,2.841,4.599,6.155,8.973,9.702,13.225,3.547,4.252,7.328,8.383,11.131,12.47,7.574,8.394,34.358,14.076,22.995,26.25-23.538,25.161-57.627,31.654-86.235,48.814-4.608,2.934-8.81,6.28-12.478,10.252-3.667,3.972-6.801,8.571-9.236,13.982-4.87,10.551-6.493,25.973,4.058,33.277,7.305,4.87,14.61,1.623,21.914,.812,17.315-3.247,38.237-20.562,54.35-24.289,8.056-1.864,14.91-.331,19.51,8.056,5.205,9.878,9.222,20.322,11.047,30.78,1.22,6.477,1.916,13.022,2.427,19.574,.341,4.368,.6,8.738,.879,13.092,1.295,20.34,2.902,39.621,4.719,60.026,0,6.188-1.217,12.073-5.275,16.942-11.363,12.175-27.596-4.87-41.394-2.435-22.726,4.058-31.654,47.075-17.856,56.815,12.986,10.552,36.524,12.986,42.205,33.277,5.519,20.454,13.376,39.479,22.272,57.958,2.224,4.62,4.513,9.206,6.846,13.771,9.058,24.185,32.355,48.285,33.379,71.932-4.464-1.42-9.435-3.449-14.445-5.225-15.028-5.326-30.399-8.37-33.442,14.153-4.058,40.582,0,80.353-24.349,116.877-4.87,8.116-8.116,17.045-4.87,25.161,7.305,20.291,13.798,39.771,4.058,60.873,0,.812,1.623,2.435,2.435,3.247,8.928,4.058,20.291,.812,28.408,7.305,13.798,12.175,8.928,33.278,4.39,48.604-1.078,5.856-1.461,8.855-1.461,8.855Z"/>
        <path opacity=".5" fill="#3b56a6" d="M733.085,1141.04c-23.371,.474-50.838,0-74.224,0,16.268-39.654,66.089-80.324,93.542-113.877,9.151-11.184,15.251-29.486,1.017-37.62-65.073-37.62-104.726-99.643-113.877-173.866-1.017-8.134-6.101-14.235-15.251-15.251-25.419-1.017-45.754,16.268-68.123,27.453-13.218,6.101-26.436-5.084-30.503-15.251-27.453-71.173,21.352-141.33,71.173-193.185,7.117-8.134,13.218-18.302,19.318-27.453,30.503-49.821,41.687-101.676,76.257-148.447,11.184-15.251,31.52-31.52,49.821-17.285,21.352,17.285,52.872,69.14,63.039,45.754,16.946-36.434,19.77-79.223,26.714-123.07,.447-2.924,.912-5.853,1.356-8.783,1.747-26.854,1.747-55.775-4.312-81.39-.887-2.205-1.883-4.387-3.008-6.545-1.125-2.158-2.381-4.292-3.787-6.401-13.657-18.477-37.757-11.247-55.959-5.324-2.959,.994-5.894,2.035-8.825,3.109-55.595,20.398-109.639,52.689-166.716,28.101-43.721-18.302-102.693-34.57-117.944-83.374-5.084-15.251,14.235-25.419,28.469-32.536,54.905-25.419,127.095-19.318,164.715-69.14,15.251-20.335,1.017-49.821,0-75.24,13.218,3.05,29.486,9.151,33.553,17.285,11.184,25.419,18.302,52.872,24.402,82.358,2.034,14.235,6.101,29.486-4.067,41.687-10.168,10.168-24.402,15.251-37.62,10.168-15.251-5.084-26.436-21.352-43.721-20.335-47.788,2.034-109.81,5.084-140.313,46.771,19.318,48.805,78.291,80.324,128.112,83.374,69.14,5.084,132.179-33.553,182-81.341,5.084-6.101,15.251-3.05,22.369,0,14.031,7.321,22.572,20.132,27.379,34.48,.801,2.391,1.499,4.826,2.101,7.284,2.901,10.933,3.361,22.251,2.879,33.587-.114,2.266-.266,4.533-.465,6.796-2.593,21.294-7.413,42.181-10.667,63.196-.5,2.345-1.012,4.696-1.52,7.054-1.558,7.072-3.082,14.214-4.455,21.469-8.134,40.67-2.034,79.307-3.05,118.961-1.017,13.218-11.184,27.453-25.419,24.402-34.57-8.134-51.855-39.654-76.257-64.056-12.201-12.201-30.503-7.117-41.687,4.067-16.268,18.302-25.419,38.637-34.57,59.989-25.419,61.006-49.821,116.928-88.458,173.866-16.268,24.402-33.553,55.922-17.285,84.391,3.05,6.101,12.201,5.084,19.318,3.05,25.419-7.117,47.788-19.318,75.24-24.402,29.486-6.101,57.955,11.184,53.888,42.704-10.168,80.324,21.352,147.43,95.576,190.134,49.821,28.469-37.62,85.408-57.795,126.234-5.653,8.852-12.361,36.448-12.361,36.448Z"/>
        <path opacity=".5" fill="#3b56a6" d="M1109.286,1120.705h-161.665c-8.083,0-16.166,0-24.058-.059-38.982,1.076-93.887,24.461-132.524,20.394,22.369-44.737,72.19-111.844,93.542-157.598,8.134-15.251,8.134-34.57-9.151-44.737-30.503-17.285-74.224-20.335-83.374-56.939-18.302-75.24-17.285-163.699-82.358-211.486-21.352-15.251-42.704,17.285-68.123,22.369-12.201,3.05-30.503,1.017-25.419-13.218,28.469-75.24,32.536-172.849,104.726-219.62,10.168-6.101,18.302,8.134,26.436,15.251,29.486,25.419,63.039,76.257,105.743,55.922,14.235-7.117,23.386-23.386,21.352-38.637-12.201-78.291-12.201-148.447,0-226.738,5.084-35.587-6.101-70.157-34.57-94.559-12.201-10.168-31.52-16.268-42.704-4.067-30.503,36.603-72.19,50.838-105.743,79.307-25.419,22.369-61.006,26.436-90.492,16.268-30.503-11.184-75.24-29.486-69.14-62.022,3.05-21.352,43.721-35.587,64.056-19.318,35.587,29.486,85.408,21.352,123.028,6.101,12.201-4.067,23.386-13.218,30.503-25.419,27.453-47.788-6.101-92.525-12.201-140.313-1.017-5.084-1.017-13.218,0-13.218,78.291-23.386,156.581,9.151,234.461,14.037,8.16,.18,16.102,.198,23.862,.198h113.812v114.203c0,11.713,0,24.158-.023,37.263-.994,78.323,.023,156.613,.023,235.067v135.077c-4.067,66.079,3.05,131.152-3.05,197.241-3.05,29.486-8.134,57.955-4.067,87.441,8.134,59.989,9.151,117.944,7.117,177.445v114.366Z"/>
      </g>
      <rect fill="none" height="1098.102" width="1098.102" y="22.603"/>
      <rect fill="none" height="1084.515" width="867.612" y="26.51" x="145.822"/>
    </g>
  </g>
</svg>