<?xml version="1.0" encoding="UTF-8"?>
<svg id="Layer_2" data-name="Layer 2" xmlns="http://www.w3.org/2000/svg" viewBox="0 0 515.964 655.092">
  <g id="Layer_1-2" data-name="Layer 1">
    <g>
      <g>
        <path d="M1.879,99.746L39.167,0h4.217l37.354,99.746h-3.28L48.539,22.493c-1.339-3.569-2.667-7.14-3.983-10.711-1.317-3.569-2.622-7.14-3.916-10.711h1.205c-1.295,3.571-2.601,7.142-3.917,10.711-1.317,3.571-2.644,7.142-3.983,10.711L5.159,99.746H1.879Zm14.794-32.937v-3.079h49.337v3.079H16.673Z" fill="#cc1f36"/>
        <path d="M122.164,100.951c-4.33,0-8.334-.86-12.017-2.577-3.682-1.718-6.806-4.095-9.372-7.13-2.567-3.034-4.385-6.448-5.456-10.242h-.134v18.744h-3.079V0h3.079V47.263h.134c.981-3.883,2.755-7.341,5.322-10.376,2.566-3.035,5.712-5.434,9.439-7.197,3.726-1.762,7.754-2.644,12.083-2.644,5.846,0,11.079,1.551,15.698,4.652,4.619,3.103,8.256,7.431,10.912,12.987,2.655,5.556,3.983,11.994,3.983,19.312,0,7.364-1.317,13.824-3.95,19.381-2.634,5.556-6.249,9.874-10.845,12.953-4.597,3.079-9.864,4.619-15.798,4.619Zm0-3.079c5.311,0,10.03-1.406,14.158-4.218,4.127-2.812,7.386-6.762,9.774-11.849,2.387-5.088,3.582-11.023,3.582-17.808,0-6.828-1.195-12.786-3.582-17.874-2.388-5.087-5.646-9.025-9.774-11.815-4.128-2.788-8.848-4.184-14.158-4.184-5.4,0-10.12,1.396-14.159,4.184-4.04,2.79-7.186,6.729-9.439,11.815-2.254,5.088-3.381,11.046-3.381,17.874,0,6.784,1.115,12.72,3.347,17.808,2.231,5.087,5.377,9.037,9.439,11.849,4.06,2.812,8.792,4.218,14.192,4.218Z" fill="#cc1f36"/>
        <path d="M193.98,100.951c-6.025,0-11.38-1.606-16.066-4.82-4.686-3.213-8.357-7.598-11.012-13.154-2.656-5.556-3.983-11.882-3.983-18.979,0-7.14,1.327-13.478,3.983-19.012,2.655-5.533,6.326-9.907,11.012-13.121,4.686-3.213,10.042-4.819,16.066-4.819s11.357,1.606,16,4.819c4.641,3.214,8.29,7.588,10.945,13.121,2.655,5.534,3.983,11.872,3.983,19.012,0,7.097-1.317,13.423-3.95,18.979-2.634,5.557-6.282,9.941-10.945,13.154-4.664,3.214-10.008,4.82-16.033,4.82Zm0-3.079c5.444,0,10.265-1.45,14.46-4.352,4.194-2.9,7.475-6.906,9.841-12.017,2.365-5.109,3.548-10.945,3.548-17.506s-1.194-12.395-3.582-17.506c-2.388-5.109-5.68-9.114-9.874-12.016-4.195-2.9-8.994-4.352-14.393-4.352s-10.208,1.451-14.426,4.352c-4.217,2.901-7.531,6.906-9.941,12.016-2.41,5.111-3.615,10.945-3.615,17.506s1.205,12.396,3.615,17.506c2.41,5.11,5.724,9.116,9.941,12.017,4.218,2.901,9.026,4.352,14.426,4.352Z" fill="#cc1f36"/>
        <path d="M265.731,100.817c-5.088,0-9.596-1.082-13.522-3.247-3.928-2.164-7.007-5.177-9.238-9.037-2.232-3.859-3.347-8.335-3.347-13.422V28.117h3.079v46.994c0,6.784,2.143,12.25,6.427,16.4s9.818,6.227,16.602,6.227c4.641,0,8.803-.971,12.485-2.912,3.682-1.941,6.583-4.619,8.703-8.033,2.119-3.414,3.18-7.308,3.18-11.682V28.117h3.08V99.746h-3.08v-16.066h.803c-1.606,5.713-4.776,9.998-9.506,12.854-4.731,2.856-9.953,4.284-15.665,4.284Z" fill="#cc1f36"/>
        <path d="M332.26,28.117v3.079h-29.589v-3.079h29.589Zm-18.61-18.945h3.079V86.156c0,3.749,.904,6.505,2.711,8.268,1.807,1.764,4.519,2.533,8.133,2.31,.758,0,1.517-.01,2.276-.033,.758-.022,1.517-.056,2.276-.101l.134,3.079c-.759,.046-1.518,.078-2.276,.101-.759,.022-1.54,.034-2.343,.034-4.463,.268-7.911-.814-10.343-3.247-2.433-2.432-3.648-5.901-3.648-10.41V9.172Z" fill="#cc1f36"/>
      </g>
      <g>
        <path d="M40.005,376.257v-101.115c0-.63-.315-.945-.945-.945h-12.285c-.63,0-.945,.315-.945,.945v101.115c0,.63-.315,.945-.945,.945H2.52c-.63,0-.945-.315-.945-.945V160.165c0-.63,.315-.944,.945-.944H24.885c.63,0,.945,.314,.945,.944v90.091c0,.63,.315,.945,.945,.945h12.285c.63,0,.945-.315,.945-.945v-90.091c0-.63,.315-.944,.945-.944h22.05c.63,0,.945,.314,.945,.944v216.092c0,.63-.315,.945-.945,.945h-22.05c-.63,0-.945-.315-.945-.945Z" fill="#333"/>
        <path d="M107.098,379.092c-17.01,0-30.555-13.545-30.555-30.555V187.886c0-16.695,13.545-30.556,30.555-30.556,16.695,0,30.24,13.86,30.24,30.556v160.651c0,17.01-13.545,30.555-30.24,30.555Zm-6.615-29.925c0,3.465,2.835,6.3,6.615,6.3,3.465,0,6.3-2.835,6.3-6.3V187.256c0-3.465-2.835-6.3-6.3-6.3-3.78,0-6.615,2.835-6.615,6.3v161.911Z" fill="#333"/>
        <path d="M237.82,160.165l-15.435,216.092c0,.63-.315,.945-.945,.945h-20.16c-.63,0-.945-.63-.945-.945l-8.505-85.051-.315-14.489c0-.315-.63-.315-.63,0l-.63,14.489-8.505,85.051c0,.315-.315,.945-.945,.945h-20.16c-.63,0-.945-.315-.945-.945l-15.435-216.092c0-.63,.315-.944,.945-.944h22.68c.315,0,.63,.314,.63,.63l5.04,106.155,.945,23.311c0,.315,.63,.315,.63,0l7.875-129.466c0-.315,.315-.63,.63-.63h15.12c.315,0,.63,.314,.63,.63l7.875,129.466c0,.315,.63,.315,.63,0l.63-23.311,5.355-106.155c0-.315,.315-.63,.63-.63h22.365c.63,0,.945,.314,.945,.944Z" fill="#333"/>
        <path d="M293.567,376.257V183.16c0-.63-.315-.944-.945-.944h-16.065c-.63,0-.945-.315-.945-.945v-21.105c0-.63,.315-.944,.945-.944h58.275c.63,0,.945,.314,.945,.944v21.105c0,.63-.315,.945-.945,.945h-16.065c-.63,0-.945,.314-.945,.944v193.097c0,.63-.315,.945-.945,.945h-22.365c-.63,0-.945-.315-.945-.945Z" fill="#333"/>
        <path d="M371.057,379.092c-17.01,0-30.555-13.545-30.555-30.555V187.886c0-16.695,13.545-30.556,30.555-30.556,16.695,0,30.24,13.86,30.24,30.556v160.651c0,17.01-13.545,30.555-30.24,30.555Zm-6.615-29.925c0,3.465,2.835,6.3,6.615,6.3,3.465,0,6.3-2.835,6.3-6.3V187.256c0-3.465-2.835-6.3-6.3-6.3-3.78,0-6.615,2.835-6.615,6.3v161.911Z" fill="#333"/>
        <path d="M61.11,589.257v35.28c0,17.325-13.86,30.555-31.815,30.555-16.38-.63-29.295-14.175-29.295-30.87v-47.88c0-.63,.315-.945,.945-.945H22.995c.63,0,.945,.315,.945,.945v48.51c0,4.41,2.835,6.615,6.3,6.615,3.78,0,6.615-2.205,6.615-6.3v-38.431c0-14.805-8.505-27.09-16.065-39.06-7.875-11.655-20.16-30.871-20.16-55.44v-29.296c0-16.064,14.49-29.61,29.61-29.61h.63c14.805,0,29.295,11.971,29.295,29.61v42.525c0,.63-.315,.945-.945,.945h-22.05c-.63,0-.945-.315-.945-.945v-41.58c0-4.095-2.205-6.93-5.67-6.93-3.78,0-5.985,2.52-5.985,6.93v31.815c0,14.175,8.505,26.46,16.065,38.43,7.56,11.655,20.475,28.98,20.475,55.126Z" fill="#333"/>
        <path d="M82.215,652.257v-193.097c0-.63-.315-.944-.945-.944h-16.065c-.63,0-.945-.315-.945-.945v-21.105c0-.63,.315-.944,.945-.944h58.275c.63,0,.945,.314,.945,.944v21.105c0,.63-.315,.945-.945,.945h-16.065c-.63,0-.945,.314-.945,.944v193.097c0,.63-.315,.945-.945,.945h-22.365c-.63,0-.945-.315-.945-.945Z" fill="#333"/>
        <path d="M159.078,601.227h-11.025c-.315,0-.63,.315-.63,.63l-4.41,50.4c0,.63-.315,.945-.945,.945h-21.735c-.315,0-.63-.315-.63-.945l20.79-216.092c0-.63,.63-.944,.945-.944h24.255c.315,0,.945,.314,.945,.944l20.79,216.092c0,.63-.315,.945-.63,.945h-21.735c-.315,0-.945-.315-.945-.945l-4.41-50.4c0-.314-.315-.63-.63-.63Zm-10.395-22.995h9.765c.945,0,.63-.63,.63-.945l-5.04-89.146c0-.63-.945-.63-.945,0l-5.04,89.146c0,.315,0,.945,.63,.945Z" fill="#333"/>
        <path d="M234.989,652.257l-11.97-88.516c0-.63-.315-.944-.945-.944s-.945,.314-.945,.944v88.516c0,.63-.315,.945-.945,.945h-22.365c-.63,0-.945-.315-.945-.945v-216.092c0-.63,.315-.944,.945-.944h24.57c22.05,0,37.485,14.805,37.485,63.945,0,32.445-6.3,47.88-14.805,55.125-.63,.631-.63,1.261-.315,2.521l14.49,95.445c0,.63-.315,.945-.945,.945h-22.365c-.63,0-.945-.315-.945-.945Zm-12.915-112.456h.945c7.875,0,12.285-3.465,12.285-40.635,0-33.075-4.095-40.95-11.97-40.95h-1.26c-.63,0-.945,.314-.945,.944v79.696c0,.63,.315,.944,.945,.944Z" fill="#333"/>
        <path d="M277.201,652.257v-193.097c0-.63-.315-.944-.945-.944h-16.065c-.63,0-.945-.315-.945-.945v-21.105c0-.63,.315-.944,.945-.944h58.275c.63,0,.945,.314,.945,.944v21.105c0,.63-.315,.945-.945,.945h-16.065c-.63,0-.945,.314-.945,.944v193.097c0,.63-.315,.945-.945,.945h-22.365c-.63,0-.945-.315-.945-.945Z" fill="#333"/>
        <path d="M329.805,527.201h36.225c.63,0,.945,.315,.945,.945v21.104c0,.63-.315,.945-.945,.945h-36.225c-.63,0-.945-.315-.945-.945v-21.104c0-.63,.315-.945,.945-.945Z" fill="#333"/>
        <path d="M410.444,655.092c-17.325,0-30.87-13.545-30.87-30.555v-188.372c0-.63,.315-.944,.945-.944h22.05c.63,0,.945,.314,.945,.944v188.687c0,3.466,2.52,6.615,6.3,6.615,4.095,0,6.615-3.149,6.615-6.615v-188.687c0-.63,.315-.944,.945-.944h22.05c.63,0,.945,.314,.945,.944v187.742c0,16.694-13.545,31.185-29.925,31.185Z" fill="#333"/>
        <path d="M452.964,652.257v-216.092c0-.63,.315-.944,.945-.944h24.57c26.145,0,37.485,16.064,37.485,63.945,0,57.016-14.175,63.631-36.225,63.631h-1.89c-.315,0-.63,.314-.63,.944v88.516c0,.63-.63,.945-.945,.945h-22.365c-.63,0-.945-.315-.945-.945Zm24.255-113.086c0,.315,.315,.63,.63,.63h2.205c6.615,0,11.97-1.89,11.97-40.635,0-34.021-5.04-40.95-12.915-40.95h-1.26c-.315,0-.63,.314-.63,.944v80.011Z" fill="#333"/>
      </g>
    </g>
  </g>
</svg>