<?xml version="1.0" encoding="UTF-8"?>
<svg id="Layer_2" data-name="Layer 2" xmlns="http://www.w3.org/2000/svg" viewBox="0 0 901.712 357.163">
  <g id="Layer_1-2" data-name="Layer 1">
    <g>
      <g>
        <path d="M.285,93.976L35.374,0h3.969l35.152,93.976h-3.087L44.193,21.191c-1.26-3.363-2.51-6.727-3.748-10.091-1.239-3.364-2.468-6.728-3.686-10.092h1.135c-1.219,3.364-2.447,6.728-3.686,10.092-1.239,3.364-2.488,6.728-3.748,10.091L3.372,93.976H.285Zm13.922-31.031v-2.901H60.636v2.901H14.207Z" fill="#cc1f36"/>
        <path d="M113.478,95.111c-4.074,0-7.843-.811-11.308-2.429s-6.405-3.857-8.819-6.717c-2.416-2.859-4.126-6.076-5.135-9.65h-.126v17.66h-2.897V0h2.897V44.528h.126c.924-3.658,2.593-6.917,5.009-9.776,2.414-2.859,5.375-5.119,8.883-6.78,3.506-1.66,7.296-2.491,11.37-2.491,5.502,0,10.427,1.462,14.773,4.384,4.347,2.923,7.769,7,10.269,12.235,2.498,5.235,3.748,11.301,3.748,18.196,0,6.938-1.239,13.023-3.717,18.259-2.479,5.235-5.881,9.303-10.206,12.204-4.326,2.901-9.282,4.353-14.867,4.353Zm0-2.901c4.998,0,9.439-1.325,13.324-3.974,3.884-2.649,6.95-6.37,9.197-11.164,2.246-4.793,3.37-10.385,3.37-16.776,0-6.434-1.124-12.047-3.37-16.84-2.247-4.794-5.313-8.504-9.197-11.133-3.885-2.627-8.326-3.941-13.324-3.941-5.082,0-9.523,1.314-13.323,3.941-3.802,2.629-6.763,6.339-8.883,11.133-2.121,4.793-3.182,10.406-3.182,16.84,0,6.392,1.05,11.983,3.15,16.776,2.1,4.794,5.061,8.515,8.883,11.164,3.82,2.648,8.272,3.974,13.354,3.974Z" fill="#cc1f36"/>
        <path d="M181.061,95.111c-5.669,0-10.709-1.515-15.119-4.542-4.409-3.027-7.864-7.158-10.362-12.393-2.499-5.235-3.749-11.195-3.749-17.881,0-6.728,1.25-12.698,3.749-17.912,2.498-5.214,5.953-9.335,10.362-12.362,4.41-3.027,9.45-4.541,15.119-4.541s10.688,1.514,15.057,4.541c4.367,3.027,7.801,7.148,10.3,12.362,2.498,5.214,3.748,11.185,3.748,17.912,0,6.686-1.239,12.646-3.717,17.881-2.479,5.234-5.911,9.365-10.3,12.393s-9.418,4.542-15.088,4.542Zm0-2.901c5.124,0,9.659-1.366,13.607-4.1,3.947-2.733,7.034-6.507,9.261-11.321,2.226-4.814,3.339-10.312,3.339-16.493s-1.124-11.679-3.37-16.493c-2.247-4.814-5.345-8.588-9.292-11.321-3.948-2.732-8.464-4.1-13.545-4.1s-9.606,1.367-13.575,4.1c-3.969,2.733-7.087,6.507-9.355,11.321-2.268,4.814-3.401,10.312-3.401,16.493s1.134,11.679,3.401,16.493c2.269,4.814,5.387,8.588,9.355,11.321s8.493,4.1,13.575,4.1Z" fill="#cc1f36"/>
        <path d="M248.582,94.984c-4.788,0-9.03-1.019-12.726-3.059-3.696-2.039-6.595-4.877-8.694-8.515-2.101-3.637-3.149-7.853-3.149-12.646V26.489h2.897v44.276c0,6.392,2.017,11.542,6.048,15.452,4.032,3.91,9.239,5.865,15.624,5.865,4.367,0,8.283-.914,11.748-2.743s6.194-4.352,8.19-7.568c1.994-3.217,2.992-6.885,2.992-11.006V26.489h2.897V93.976h-2.897v-15.137h.756c-1.512,5.383-4.494,9.419-8.945,12.109-4.452,2.691-9.366,4.036-14.741,4.036Z" fill="#cc1f36"/>
        <path d="M311.188,26.489v2.901h-27.845v-2.901h27.845Zm-17.514-17.849h2.898V81.172c0,3.532,.851,6.129,2.551,7.79,1.701,1.661,4.253,2.387,7.654,2.176,.714,0,1.428-.01,2.142-.032,.714-.021,1.428-.052,2.143-.094l.126,2.9c-.715,.043-1.429,.073-2.142,.095-.715,.021-1.449,.032-2.205,.032-4.2,.252-7.444-.768-9.733-3.06-2.289-2.291-3.434-5.56-3.434-9.808V8.641Z" fill="#cc1f36"/>
      </g>
      <g>
        <path d="M36.164,354.492v-95.268c0-.593-.296-.89-.889-.89h-11.562c-.593,0-.889,.297-.889,.89v95.268c0,.594-.297,.891-.89,.891H.889c-.593,0-.889-.297-.889-.891V150.899c0-.594,.296-.891,.889-.891H21.936c.593,0,.89,.297,.89,.891v84.88c0,.594,.296,.891,.889,.891h11.562c.593,0,.889-.297,.889-.891v-84.88c0-.594,.297-.891,.89-.891h20.75c.593,0,.89,.297,.89,.891v203.593c0,.594-.297,.891-.89,.891h-20.75c-.593,0-.89-.297-.89-.891Z" fill="#333"/>
        <path d="M99.301,357.163c-16.007,0-28.754-12.762-28.754-28.787V177.016c0-15.729,12.747-28.788,28.754-28.788,15.711,0,28.458,13.059,28.458,28.788v151.36c0,16.025-12.747,28.787-28.458,28.787Zm-6.225-28.194c0,3.265,2.668,5.936,6.225,5.936,3.261,0,5.929-2.671,5.929-5.936V176.423c0-3.265-2.668-5.937-5.929-5.937-3.557,0-6.225,2.672-6.225,5.937v152.546Z" fill="#333"/>
        <path d="M222.317,150.899l-14.525,203.593c0,.594-.297,.891-.89,.891h-18.972c-.593,0-.889-.594-.889-.891l-8.004-80.131-.297-13.652c0-.297-.593-.297-.593,0l-.593,13.652-8.004,80.131c0,.297-.296,.891-.889,.891h-18.972c-.593,0-.89-.297-.89-.891l-14.525-203.593c0-.594,.297-.891,.89-.891h21.343c.297,0,.593,.297,.593,.594l4.743,100.016,.89,21.962c0,.297,.593,.297,.593,0l7.41-121.978c0-.297,.297-.594,.594-.594h14.229c.296,0,.593,.297,.593,.594l7.411,121.978c0,.297,.593,.297,.593,0l.593-21.962,5.039-100.016c0-.297,.297-.594,.593-.594h21.047c.593,0,.89,.297,.89,.891Z" fill="#333"/>
        <path d="M274.778,354.492V172.564c0-.594-.297-.891-.89-.891h-15.118c-.593,0-.89-.297-.89-.891v-19.884c0-.594,.297-.891,.89-.891h54.84c.593,0,.89,.297,.89,.891v19.884c0,.594-.297,.891-.89,.891h-15.118c-.593,0-.889,.297-.889,.891v181.928c0,.594-.297,.891-.89,.891h-21.047c-.593,0-.889-.297-.889-.891Z" fill="#333"/>
        <path d="M347.699,357.163c-16.008,0-28.754-12.762-28.754-28.787V177.016c0-15.729,12.746-28.788,28.754-28.788,15.711,0,28.457,13.059,28.457,28.788v151.36c0,16.025-12.746,28.787-28.457,28.787Zm-6.225-28.194c0,3.265,2.667,5.936,6.225,5.936,3.261,0,5.929-2.671,5.929-5.936V176.423c0-3.265-2.668-5.937-5.929-5.937-3.558,0-6.225,2.672-6.225,5.937v152.546Z" fill="#333"/>
        <path d="M473.675,295.136v33.24c0,16.322-13.043,28.787-29.939,28.787-15.414-.593-27.568-13.354-27.568-29.084v-45.111c0-.594,.297-.891,.89-.891h20.75c.593,0,.89,.297,.89,.891v45.704c0,4.155,2.668,6.232,5.929,6.232,3.557,0,6.225-2.077,6.225-5.936v-36.207c0-13.949-8.004-25.523-15.118-36.802-7.41-10.98-18.972-29.084-18.972-52.233v-27.601c0-15.137,13.636-27.898,27.865-27.898h.593c13.933,0,27.568,11.278,27.568,27.898v40.065c0,.594-.297,.891-.89,.891h-20.75c-.593,0-.89-.297-.89-.891v-39.176c0-3.857-2.075-6.529-5.336-6.529-3.557,0-5.632,2.375-5.632,6.529v29.976c0,13.355,8.004,24.93,15.118,36.207,7.114,10.981,19.268,27.305,19.268,51.938Z" fill="#333"/>
        <path d="M493.535,354.492V172.564c0-.594-.297-.891-.89-.891h-15.118c-.593,0-.89-.297-.89-.891v-19.884c0-.594,.297-.891,.89-.891h54.84c.593,0,.89,.297,.89,.891v19.884c0,.594-.297,.891-.89,.891h-15.118c-.593,0-.889,.297-.889,.891v181.928c0,.594-.297,.891-.89,.891h-21.047c-.593,0-.889-.297-.889-.891Z" fill="#333"/>
        <path d="M565.867,306.413h-10.375c-.297,0-.593,.297-.593,.594l-4.15,47.485c0,.594-.297,.891-.89,.891h-20.453c-.297,0-.594-.297-.594-.891l19.565-203.593c0-.594,.593-.891,.889-.891h22.825c.297,0,.89,.297,.89,.891l19.564,203.593c0,.594-.296,.891-.593,.891h-20.454c-.296,0-.889-.297-.889-.891l-4.15-47.485c0-.297-.297-.594-.593-.594Zm-9.782-21.665h9.189c.889,0,.593-.594,.593-.89l-4.743-83.99c0-.594-.89-.594-.89,0l-4.742,83.99c0,.296,0,.89,.593,.89Z" fill="#333"/>
        <path d="M637.302,354.492l-11.265-83.396c0-.594-.296-.891-.889-.891s-.89,.297-.89,.891v83.396c0,.594-.296,.891-.89,.891h-21.046c-.594,0-.89-.297-.89-.891V150.899c0-.594,.296-.891,.89-.891h23.121c20.751,0,35.275,13.948,35.275,60.247,0,30.568-5.929,45.111-13.932,51.937-.593,.594-.593,1.188-.297,2.375l13.636,89.925c0,.594-.296,.891-.889,.891h-21.047c-.593,0-.89-.297-.89-.891Zm-12.153-105.951h.889c7.411,0,11.562-3.265,11.562-38.285,0-31.162-3.854-38.582-11.265-38.582h-1.186c-.593,0-.89,.297-.89,.891v75.086c0,.594,.297,.891,.89,.891Z" fill="#333"/>
        <path d="M677.025,354.492V172.564c0-.594-.297-.891-.89-.891h-15.118c-.593,0-.89-.297-.89-.891v-19.884c0-.594,.297-.891,.89-.891h54.84c.593,0,.89,.297,.89,.891v19.884c0,.594-.297,.891-.89,.891h-15.118c-.593,0-.889,.297-.889,.891v181.928c0,.594-.297,.891-.89,.891h-21.047c-.593,0-.889-.297-.889-.891Z" fill="#333"/>
        <path d="M726.528,236.67h34.089c.594,0,.89,.296,.89,.89v19.885c0,.594-.296,.891-.89,.891h-34.089c-.594,0-.89-.297-.89-.891v-19.885c0-.594,.296-.89,.89-.89Z" fill="#333"/>
        <path d="M802.413,357.163c-16.305,0-29.051-12.762-29.051-28.787V150.899c0-.594,.296-.891,.89-.891h20.75c.593,0,.889,.297,.889,.891v177.772c0,3.265,2.372,6.232,5.929,6.232,3.854,0,6.226-2.968,6.226-6.232V150.899c0-.594,.296-.891,.89-.891h20.75c.593,0,.889,.297,.889,.891v176.883c0,15.729-12.746,29.381-28.16,29.381Z" fill="#333"/>
        <path d="M842.426,354.492V150.899c0-.594,.296-.891,.89-.891h23.121c24.604,0,35.275,15.136,35.275,60.247,0,53.718-13.339,59.95-34.09,59.95h-1.778c-.296,0-.593,.297-.593,.891v83.396c0,.594-.593,.891-.89,.891h-21.046c-.594,0-.89-.297-.89-.891Zm22.825-106.545c0,.297,.297,.594,.593,.594h2.075c6.225,0,11.265-1.781,11.265-38.285,0-32.053-4.743-38.582-12.154-38.582h-1.186c-.296,0-.593,.297-.593,.891v75.383Z" fill="#333"/>
      </g>
    </g>
  </g>
</svg>