<?xml version="1.0" encoding="UTF-8"?>
<svg id="Layer_2" data-name="Layer 2" xmlns="http://www.w3.org/2000/svg" viewBox="0 0 480.566 754.628">
  <g id="Layer_1-2" data-name="Layer 1">
    <g>
      <g>
        <g>
          <path d="M27.908,307.653c-3.061,0-6.993-.437-11.364-1.31-2.185-.438-2.185-.875-2.185-1.748v-30.154c0-.874,.438-1.748,1.75-1.312,4.806,1.312,7.864,1.748,11.361,1.748,6.555,0,7.867-1.748,7.867-5.244V3.933c0-.875,.436-1.312,1.312-1.312h30.589c.874,0,1.312,.437,1.312,1.312V270.944c0,23.161-15.296,36.709-40.641,36.709Z" fill="#333"/>
          <path d="M128.416,307.653c-23.598,0-42.388-18.791-42.388-42.39V42.39C86.028,19.228,104.818,0,128.416,0c23.163,0,41.953,19.228,41.953,42.39v222.874c0,23.598-18.79,42.39-41.953,42.39Zm-9.176-41.516c0,4.807,3.932,8.74,9.176,8.74,4.808,0,8.74-3.933,8.74-8.74V41.516c0-4.807-3.932-8.74-8.74-8.74-5.244,0-9.176,3.933-9.176,8.74v224.621Z" fill="#333"/>
          <path d="M189.152,2.622h30.592c41.515,0,51.129,30.59,51.129,80.41,0,40.204-5.244,54.625-13.108,60.744-.438,.437-.438,1.31,0,1.748,13.984,13.984,15.731,28.842,15.731,73.853,0,37.146-2.623,85.654-48.508,85.654h-35.835c-.874,0-1.309-.437-1.309-1.312V3.933c0-.875,.436-1.312,1.309-1.312Zm33.65,128.48c7.867,0,15.296-5.681,15.296-49.818,0-45.011-8.302-46.323-15.296-46.76-.874,0-1.312,.437-1.312,1.312v93.956c0,.874,.438,1.31,1.312,1.31Zm0,142.028h2.185c15.296,0,15.296-36.271,15.296-54.625,0-20.976,0-55.5-14.422-55.5h-3.059c-.874,0-1.312,.437-1.312,1.312v107.504c0,.874,.438,1.31,1.312,1.31Z" fill="#333"/>
        </g>
        <g>
          <path d="M81.047,525.557v46.79c0,22.977-18.382,40.524-42.195,40.524-21.724-.835-38.852-18.799-38.852-40.941v-63.502c0-.835,.416-1.253,1.251-1.253H30.496c.835,0,1.254,.418,1.254,1.253v64.337c0,5.849,3.759,8.773,8.356,8.773,5.013,0,8.772-2.924,8.772-8.356v-50.968c0-19.634-11.28-35.928-21.306-51.803-10.445-15.458-26.737-40.941-26.737-73.528v-38.852c0-21.307,19.217-39.271,39.271-39.271h.835c19.635,0,38.852,15.875,38.852,39.271v56.399c0,.835-.419,1.254-1.254,1.254h-29.243c-.835,0-1.254-.419-1.254-1.254v-55.146c0-5.43-2.924-9.191-7.521-9.191-5.013,0-7.937,3.343-7.937,9.191v42.195c0,18.8,11.28,35.093,21.306,50.968,10.026,15.458,27.156,38.435,27.156,73.11Z" fill="#333"/>
          <g>
            <path d="M146.634,609.111v-134.104c0-.835-.419-1.253-1.254-1.253h-16.293c-.835,0-1.254,.418-1.254,1.253v134.104c0,.836-.416,1.254-1.254,1.254h-29.661c-.835,0-1.254-.418-1.254-1.254V322.521c0-.836,.419-1.254,1.254-1.254h29.661c.837,0,1.254,.418,1.254,1.254v119.482c0,.836,.419,1.254,1.254,1.254h16.293c.835,0,1.254-.418,1.254-1.254v-119.482c0-.836,.416-1.254,1.254-1.254h29.243c.835,0,1.254,.418,1.254,1.254v286.59c0,.836-.419,1.254-1.254,1.254h-29.243c-.837,0-1.254-.418-1.254-1.254Z" fill="#333"/>
            <path d="M235.611,612.871c-22.559,0-40.522-17.964-40.522-40.524v-213.063c0-22.142,17.963-40.524,40.522-40.524,22.143,0,40.106,18.382,40.106,40.524v213.063c0,22.559-17.963,40.524-40.106,40.524Zm-8.772-39.688c0,4.595,3.759,8.356,8.772,8.356,4.597,0,8.356-3.76,8.356-8.356v-214.734c0-4.595-3.759-8.356-8.356-8.356-5.013,0-8.772,3.76-8.772,8.356v214.734Z" fill="#333"/>
            <path d="M292.421,609.111V322.521c0-.836,.416-1.254,1.254-1.254h32.585c34.674,0,50.967,25.485,50.967,88.985,0,79.794-24.23,90.239-49.297,90.239h-2.089c-.835,0-1.251,.418-1.251,1.253v107.367c0,.836-.837,1.254-1.254,1.254h-29.661c-.837,0-1.254-.418-1.254-1.254Zm32.169-141.624c0,.418,.416,.835,.835,.835h2.924c8.772,0,15.874-2.506,15.874-58.07,0-45.119-6.683-58.488-17.128-58.488h-1.67c-.419,0-.835,.418-.835,1.254v114.469Z" fill="#333"/>
            <text transform="translate(392.939 391.041)" fill="#333" font-family="1797-COMPRESSED, 1797" font-size="104.441" stroke="#333" stroke-miterlimit="10" stroke-width="1.4"><tspan x="0" y="0">®</tspan></text>
          </g>
        </g>
      </g>
      <g>
        <path d="M1.736,688.447v-32.012H15.035c2.377,0,4.379,.344,6.005,1.031,1.625,.688,2.857,1.641,3.695,2.857,.838,1.218,1.257,2.629,1.257,4.232,0,1.218-.251,2.313-.752,3.287-.501,.975-1.196,1.78-2.084,2.417-.888,.638-1.934,1.085-3.137,1.343v.107c1.332,.086,2.535,.451,3.609,1.096s1.926,1.529,2.557,2.653c.63,1.125,.945,2.446,.945,3.964,0,1.748-.43,3.302-1.289,4.662-.859,1.361-2.12,2.428-3.781,3.201-1.662,.773-3.681,1.16-6.059,1.16H1.736Zm7.541-18.971h4.898c.831,0,1.554-.143,2.17-.43,.616-.286,1.088-.698,1.418-1.235,.329-.537,.494-1.163,.494-1.88,0-1.088-.362-1.951-1.085-2.589-.724-.637-1.708-.956-2.954-.956h-4.941v7.09Zm0,12.998h5.35c1.461,0,2.596-.325,3.405-.978,.809-.651,1.214-1.55,1.214-2.696,0-.787-.183-1.472-.548-2.052s-.888-1.027-1.568-1.343c-.681-.314-1.493-.473-2.438-.473h-5.414v7.541Z" fill="#333"/>
        <path d="M27.861,662.924v-6.488h26.641v6.488h-9.475v25.523h-7.691v-25.523h-9.475Z" fill="#333"/>
        <path d="M64.793,688.447l10.936-32.012h10.184l11.043,32.012h-8.615l-4.361-14.051c-.702-2.349-1.393-4.744-2.073-7.187-.681-2.441-1.379-5.066-2.095-7.874h2.02c-.73,2.808-1.433,5.433-2.105,7.874-.673,2.442-1.368,4.838-2.084,7.187l-4.447,14.051h-8.4Zm7.498-6.295v-5.994h17.188v5.994h-17.188Z" fill="#333"/>
        <path d="M99.426,688.447v-32.012h13.17c2.449,0,4.572,.438,6.37,1.311,1.797,.874,3.18,2.116,4.146,3.728s1.45,3.527,1.45,5.747c0,2.163-.505,4.032-1.515,5.607-1.01,1.576-2.438,2.786-4.286,3.631-1.848,.846-4.032,1.268-6.553,1.268h-8.121v-6.059h7.734c1.074,0,1.991-.179,2.75-.537,.759-.357,1.346-.87,1.762-1.536,.415-.666,.623-1.457,.623-2.374,0-.931-.208-1.729-.623-2.396-.416-.666-1.003-1.182-1.762-1.547-.759-.365-1.676-.548-2.75-.548h-4.705v25.717h-7.691Zm17.854,0l-7.283-14.523h8.014l7.455,14.523h-8.186Z" fill="#333"/>
        <path d="M128.408,688.447v-32.012h23.482v6.488h-15.791v6.273h14.566v6.295h-14.566v6.467h15.77v6.488h-23.461Z" fill="#333"/>
        <path d="M155.565,688.447v-32.012h8.057l9.066,14.523c.387,.631,.834,1.404,1.343,2.32,.508,.917,1.042,1.909,1.601,2.976,.559,1.067,1.088,2.138,1.59,3.212l-.859,1.633c-.058-1.088-.115-2.327-.172-3.717-.058-1.389-.101-2.729-.129-4.018-.029-1.289-.043-2.327-.043-3.115v-13.814h7.734v32.012h-8.078l-8.314-13.32c-.473-.773-1.014-1.687-1.622-2.739-.609-1.053-1.261-2.23-1.955-3.534-.695-1.303-1.429-2.692-2.202-4.168l1.332-.494c.1,1.547,.179,3.029,.236,4.447,.057,1.418,.097,2.689,.118,3.813,.021,1.125,.032,2.017,.032,2.675v13.32h-7.734Z" fill="#333"/>
        <path d="M186.223,688.447l10.936-32.012h10.184l11.043,32.012h-8.615l-4.361-14.051c-.702-2.349-1.393-4.744-2.073-7.187-.681-2.441-1.379-5.066-2.095-7.874h2.02c-.73,2.808-1.433,5.433-2.105,7.874-.673,2.442-1.368,4.838-2.084,7.187l-4.447,14.051h-8.4Zm7.498-6.295v-5.994h17.188v5.994h-17.188Z" fill="#333"/>
        <path d="M13.102,746.142c-2.32,0-4.34-.444-6.059-1.332s-3.055-2.108-4.007-3.663c-.953-1.554-1.436-3.326-1.45-5.317H6.356c.014,1.318,.293,2.446,.838,3.384,.544,.938,1.314,1.654,2.31,2.148,.995,.494,2.173,.741,3.534,.741,1.317,0,2.485-.226,3.502-.677,1.017-.451,1.812-1.099,2.385-1.944,.573-.845,.859-1.826,.859-2.943,0-1.06-.301-1.987-.902-2.782s-1.447-1.414-2.535-1.858c-1.089-.443-2.371-.666-3.846-.666h-2.686v-3.932h2.686c1.274,0,2.392-.2,3.352-.602,.959-.4,1.704-.97,2.234-1.708,.53-.737,.795-1.601,.795-2.589,0-1.088-.244-2.026-.73-2.814-.487-.787-1.175-1.396-2.062-1.826-.888-.43-1.934-.645-3.137-.645s-2.26,.229-3.169,.688c-.91,.459-1.622,1.11-2.138,1.955-.516,.846-.781,1.862-.795,3.051H2.252c.014-1.891,.479-3.562,1.396-5.017,.917-1.453,2.181-2.592,3.792-3.416,1.611-.823,3.462-1.235,5.554-1.235,2.034,0,3.842,.387,5.425,1.16,1.583,.773,2.825,1.83,3.728,3.169,.902,1.34,1.354,2.868,1.354,4.587,0,1.705-.523,3.177-1.568,4.415-1.046,1.239-2.457,2.095-4.232,2.567v.107c1.418,.215,2.635,.677,3.652,1.386,1.017,.709,1.801,1.59,2.353,2.643,.551,1.053,.827,2.217,.827,3.491,0,1.848-.494,3.484-1.482,4.909-.988,1.426-2.342,2.543-4.061,3.352s-3.681,1.214-5.887,1.214Z" fill="#3b56a6"/>
        <path d="M40.129,713.636v32.012h-4.662v-27.371h-.064l-7.777,5.199v-4.641l7.756-5.199h4.748Z" fill="#3b56a6"/>
        <path d="M56.629,745.647v-22.988h4.426l.043,4.963h-.408c.401-1.188,.963-2.184,1.687-2.986,.723-.802,1.558-1.403,2.503-1.805,.945-.4,1.94-.602,2.986-.602,1.747,0,3.229,.513,4.447,1.536,1.217,1.024,1.977,2.324,2.277,3.899h-.688c.315-1.074,.834-2.02,1.558-2.836,.723-.816,1.607-1.453,2.653-1.912,1.045-.458,2.198-.688,3.459-.688,1.418,0,2.7,.305,3.846,.913,1.146,.609,2.055,1.522,2.729,2.739,.673,1.218,1.01,2.736,1.01,4.555v15.211h-4.576v-14.803c0-1.618-.451-2.789-1.354-3.513-.902-.723-1.97-1.085-3.201-1.085-1.003,0-1.869,.212-2.6,.634-.73,.423-1.293,1.007-1.687,1.751-.394,.745-.591,1.598-.591,2.557v14.459h-4.512v-15.125c0-1.289-.419-2.323-1.257-3.104-.838-.78-1.901-1.171-3.19-1.171-.874,0-1.69,.204-2.449,.612-.759,.408-1.368,1.018-1.826,1.826-.458,.81-.688,1.809-.688,2.997v13.965h-4.598Z" fill="#3b56a6"/>
        <path d="M101.424,746.034c-1.519,0-2.875-.262-4.071-.784-1.196-.522-2.142-1.3-2.836-2.331-.695-1.031-1.042-2.306-1.042-3.824,0-1.317,.254-2.396,.763-3.233,.508-.838,1.188-1.5,2.041-1.987,.852-.486,1.819-.859,2.9-1.117,1.081-.258,2.195-.451,3.341-.58,1.418-.172,2.546-.312,3.384-.419s1.443-.282,1.815-.526c.372-.243,.559-.637,.559-1.182v-.172c0-.773-.179-1.45-.537-2.03-.358-.58-.881-1.034-1.568-1.364-.688-.329-1.519-.494-2.492-.494s-1.83,.161-2.567,.483c-.738,.322-1.329,.752-1.772,1.289-.444,.537-.716,1.136-.816,1.794l-4.447-.236c.186-1.446,.702-2.696,1.547-3.749,.845-1.053,1.958-1.869,3.341-2.449,1.382-.58,2.968-.87,4.759-.87,1.289,0,2.488,.165,3.599,.494,1.11,.33,2.077,.82,2.9,1.472,.823,.652,1.461,1.461,1.912,2.428s.677,2.088,.677,3.362v15.641h-4.49v-3.223h-.107c-.315,.602-.756,1.182-1.321,1.74-.566,.559-1.296,1.01-2.191,1.354-.896,.344-1.987,.516-3.276,.516Zm.945-3.674c1.317,0,2.417-.243,3.298-.73,.881-.486,1.54-1.128,1.977-1.923,.437-.795,.655-1.657,.655-2.589v-2.75c-.158,.129-.43,.251-.816,.365-.387,.115-.842,.223-1.364,.322-.523,.101-1.074,.197-1.654,.29-.58,.094-1.149,.176-1.708,.247-.831,.115-1.608,.305-2.331,.569-.724,.266-1.304,.638-1.74,1.117-.437,.48-.655,1.114-.655,1.901,0,.674,.179,1.246,.537,1.719,.358,.473,.863,.835,1.515,1.085,.651,.251,1.414,.376,2.288,.376Z" fill="#3b56a6"/>
        <path d="M118.203,745.647v-22.988h4.404v3.717h.129c.415-1.26,1.096-2.241,2.041-2.943,.945-.701,2.134-1.053,3.566-1.053,.329,0,.651,.011,.967,.032,.315,.021,.573,.047,.773,.075v4.275c-.172-.028-.487-.071-.945-.129-.458-.057-.953-.086-1.482-.086-.888,0-1.705,.204-2.449,.612-.745,.408-1.332,1.014-1.762,1.815-.43,.803-.645,1.805-.645,3.008v13.664h-4.598Z" fill="#3b56a6"/>
        <path d="M142.91,746.163c-2.177,0-4.082-.505-5.715-1.515s-2.904-2.413-3.813-4.211c-.91-1.797-1.364-3.87-1.364-6.22,0-2.363,.455-4.45,1.364-6.263,.909-1.812,2.181-3.226,3.813-4.243,1.633-1.017,3.538-1.525,5.715-1.525,1.332,0,2.567,.197,3.706,.591,1.139,.395,2.145,.945,3.019,1.654,.874,.709,1.586,1.555,2.138,2.535,.551,.981,.913,2.06,1.085,3.233l-4.49,.236c-.129-.63-.34-1.21-.634-1.74-.294-.529-.67-.984-1.128-1.364-.458-.379-.992-.677-1.601-.892-.609-.215-1.3-.322-2.073-.322-1.332,0-2.467,.341-3.405,1.021-.938,.681-1.651,1.63-2.138,2.847-.487,1.218-.73,2.629-.73,4.232,0,1.576,.243,2.969,.73,4.179,.487,1.211,1.199,2.152,2.138,2.825,.938,.674,2.073,1.01,3.405,1.01,.773,0,1.461-.104,2.062-.312,.602-.207,1.124-.505,1.568-.892,.444-.387,.816-.849,1.117-1.386s.522-1.128,.666-1.772l4.533,.236c-.158,1.175-.516,2.249-1.074,3.223-.559,.975-1.275,1.823-2.148,2.546-.874,.724-1.884,1.286-3.029,1.687-1.146,.4-2.385,.602-3.717,.602Z" fill="#3b56a6"/>
        <path d="M161.623,732.327v13.32h-4.598v-32.012h4.576v14.717h-1.01c.716-2.062,1.74-3.595,3.072-4.598,1.332-1.002,2.936-1.504,4.812-1.504,1.575,0,2.982,.341,4.222,1.021,1.239,.681,2.213,1.687,2.922,3.019s1.063,2.994,1.063,4.984v14.373h-4.576v-13.814c0-1.805-.437-3.176-1.311-4.114-.874-.938-2.105-1.407-3.695-1.407-1.031,0-1.962,.215-2.793,.645-.831,.43-1.486,1.089-1.966,1.977-.48,.889-.72,2.02-.72,3.395Z" fill="#3b56a6"/>
        <path d="M206.891,730.608v3.996h-14.18v-3.996h14.18Z" fill="#3b56a6"/>
        <path d="M233.94,713.636v32.012h-4.662v-27.371h-.064l-7.777,5.199v-4.641l7.756-5.199h4.748Z" fill="#3b56a6"/>
        <path d="M257.336,746.034c-1.519,0-2.875-.262-4.071-.784-1.196-.522-2.142-1.3-2.836-2.331-.695-1.031-1.042-2.306-1.042-3.824,0-1.317,.254-2.396,.763-3.233,.508-.838,1.188-1.5,2.041-1.987,.852-.486,1.819-.859,2.9-1.117,1.081-.258,2.195-.451,3.341-.58,1.418-.172,2.546-.312,3.384-.419s1.443-.282,1.815-.526c.372-.243,.559-.637,.559-1.182v-.172c0-.773-.179-1.45-.537-2.03-.358-.58-.881-1.034-1.568-1.364-.688-.329-1.519-.494-2.492-.494s-1.83,.161-2.567,.483c-.738,.322-1.329,.752-1.772,1.289-.444,.537-.716,1.136-.816,1.794l-4.447-.236c.186-1.446,.702-2.696,1.547-3.749,.845-1.053,1.958-1.869,3.341-2.449,1.382-.58,2.968-.87,4.759-.87,1.289,0,2.488,.165,3.599,.494,1.11,.33,2.077,.82,2.9,1.472,.823,.652,1.461,1.461,1.912,2.428s.677,2.088,.677,3.362v15.641h-4.49v-3.223h-.107c-.315,.602-.756,1.182-1.321,1.74-.566,.559-1.296,1.01-2.191,1.354-.896,.344-1.987,.516-3.276,.516Zm.945-3.674c1.317,0,2.417-.243,3.298-.73,.881-.486,1.54-1.128,1.977-1.923,.437-.795,.655-1.657,.655-2.589v-2.75c-.158,.129-.43,.251-.816,.365-.387,.115-.842,.223-1.364,.322-.523,.101-1.074,.197-1.654,.29-.58,.094-1.149,.176-1.708,.247-.831,.115-1.608,.305-2.331,.569-.724,.266-1.304,.638-1.74,1.117-.437,.48-.655,1.114-.655,1.901,0,.674,.179,1.246,.537,1.719,.358,.473,.863,.835,1.515,1.085,.651,.251,1.414,.376,2.288,.376Z" fill="#3b56a6"/>
        <path d="M274.115,754.628v-31.969h4.49v3.416h.129c.444-.759,1.002-1.425,1.676-1.998,.673-.572,1.457-1.021,2.353-1.343,.895-.322,1.887-.483,2.976-.483,1.962,0,3.681,.494,5.156,1.482,1.475,.988,2.628,2.374,3.459,4.157,.831,1.783,1.246,3.871,1.246,6.263s-.412,4.483-1.235,6.273c-.824,1.791-1.977,3.184-3.459,4.179-1.482,.996-3.205,1.493-5.167,1.493-1.089,0-2.07-.165-2.943-.494-.874-.329-1.644-.791-2.31-1.386-.666-.594-1.229-1.285-1.687-2.073h-.086v12.482h-4.598Zm10.678-12.461c1.246,0,2.331-.318,3.255-.956,.924-.637,1.64-1.554,2.148-2.75,.508-1.195,.763-2.632,.763-4.308,0-1.689-.254-3.126-.763-4.308-.509-1.182-1.225-2.091-2.148-2.729-.924-.637-2.009-.956-3.255-.956-1.318,0-2.449,.333-3.395,.999s-1.672,1.594-2.181,2.782c-.509,1.189-.763,2.593-.763,4.211,0,1.604,.254,3.008,.763,4.211,.508,1.203,1.239,2.138,2.191,2.804,.952,.666,2.08,.999,3.384,.999Z" fill="#3b56a6"/>
        <path d="M299.875,745.647v-22.988h4.404v3.717h.129c.415-1.26,1.096-2.241,2.041-2.943,.945-.701,2.134-1.053,3.566-1.053,.329,0,.651,.011,.967,.032,.315,.021,.573,.047,.773,.075v4.275c-.172-.028-.487-.071-.945-.129-.458-.057-.953-.086-1.482-.086-.888,0-1.705,.204-2.449,.612-.745,.408-1.332,1.014-1.762,1.815-.43,.803-.645,1.805-.645,3.008v13.664h-4.598Z" fill="#3b56a6"/>
        <path d="M317.686,718.814c-.802,0-1.482-.271-2.041-.816-.559-.544-.838-1.203-.838-1.977s.279-1.432,.838-1.977c.559-.544,1.239-.816,2.041-.816,.816,0,1.504,.269,2.062,.806s.838,1.2,.838,1.987-.279,1.45-.838,1.987-1.246,.806-2.062,.806Zm-2.299,26.834v-22.988h4.598v22.988h-4.598Z" fill="#3b56a6"/>
        <path d="M329.953,713.636v32.012h-4.598v-32.012h4.598Z" fill="#3b56a6"/>
      </g>
    </g>
  </g>
</svg>