<?xml version="1.0" encoding="UTF-8"?>
<svg id="Layer_2" data-name="Layer 2" xmlns="http://www.w3.org/2000/svg" viewBox="0 0 683.136 414.57">
  <g id="Layer_1-2" data-name="Layer 1">
    <g>
      <path d="M1.716,352.218v-30.16H14.23c2.237,0,4.121,.324,5.651,.972,1.529,.647,2.688,1.545,3.478,2.692,.788,1.146,1.183,2.477,1.183,3.987,0,1.147-.236,2.18-.708,3.097-.472,.918-1.125,1.678-1.961,2.277-.836,.601-1.819,1.022-2.952,1.266v.101c1.254,.081,2.386,.426,3.397,1.032,1.011,.607,1.812,1.441,2.405,2.5,.593,1.06,.89,2.305,.89,3.734,0,1.647-.404,3.111-1.213,4.393-.809,1.282-1.995,2.288-3.559,3.017s-3.464,1.093-5.701,1.093H1.716Zm7.097-17.873h4.609c.782,0,1.463-.135,2.042-.405,.58-.27,1.024-.657,1.335-1.164,.31-.506,.465-1.096,.465-1.771,0-1.025-.341-1.839-1.021-2.439s-1.607-.9-2.779-.9h-4.65v6.68Zm0,12.246h5.034c1.375,0,2.443-.307,3.204-.921,.762-.614,1.143-1.461,1.143-2.541,0-.741-.172-1.386-.516-1.933s-.836-.968-1.476-1.266c-.641-.296-1.405-.445-2.295-.445h-5.095v7.105Z" fill="#333"/>
      <path d="M26.301,328.171v-6.113h25.07v6.113h-8.916v24.047h-7.238v-24.047h-8.916Z" fill="#333"/>
      <path d="M61.055,352.218l10.291-30.16h9.583l10.392,30.16h-8.106l-4.104-13.238c-.661-2.213-1.312-4.47-1.951-6.771-.641-2.301-1.298-4.773-1.972-7.419h1.901c-.688,2.646-1.349,5.118-1.981,7.419-.634,2.301-1.288,4.558-1.962,6.771l-4.185,13.238h-7.905Zm7.056-5.931v-5.647h16.175v5.647h-16.175Z" fill="#333"/>
      <path d="M93.646,352.218v-30.16h12.394c2.305,0,4.303,.412,5.995,1.235,1.691,.823,2.992,1.993,3.901,3.512,.91,1.518,1.365,3.323,1.365,5.414,0,2.038-.476,3.799-1.426,5.283s-2.295,2.625-4.033,3.421c-1.739,.797-3.794,1.194-6.166,1.194h-7.643v-5.708h7.278c1.011,0,1.873-.169,2.588-.506,.714-.338,1.267-.82,1.657-1.447,.392-.628,.587-1.373,.587-2.237,0-.877-.195-1.629-.587-2.257-.391-.627-.943-1.113-1.657-1.457-.715-.345-1.577-.517-2.588-.517h-4.428v24.229h-7.238Zm16.801,0l-6.854-13.684h7.541l7.016,13.684h-7.703Z" fill="#333"/>
      <path d="M120.92,352.218v-30.16h22.098v6.113h-14.86v5.91h13.708v5.931h-13.708v6.093h14.84v6.113h-22.077Z" fill="#333"/>
      <path d="M146.475,352.218v-30.16h7.582l8.532,13.684c.363,.594,.784,1.322,1.263,2.186,.479,.864,.981,1.799,1.507,2.804,.525,1.006,1.024,2.015,1.496,3.026l-.809,1.538c-.055-1.025-.108-2.192-.162-3.502-.054-1.309-.095-2.57-.121-3.785-.027-1.214-.041-2.192-.041-2.935v-13.016h7.279v30.16h-7.603l-7.824-12.55c-.444-.729-.953-1.589-1.526-2.581-.573-.991-1.187-2.102-1.84-3.329-.653-1.229-1.345-2.537-2.072-3.928l1.254-.465c.094,1.457,.168,2.854,.222,4.189s.092,2.534,.111,3.593c.021,1.06,.03,1.9,.03,2.521v12.55h-7.278Z" fill="#333"/>
      <path d="M175.326,352.218l10.29-30.16h9.584l10.392,30.16h-8.107l-4.104-13.238c-.66-2.213-1.311-4.47-1.951-6.771-.64-2.301-1.297-4.773-1.971-7.419h1.9c-.688,2.646-1.348,5.118-1.981,7.419s-1.287,4.558-1.961,6.771l-4.186,13.238h-7.904Zm7.056-5.931v-5.647h16.174v5.647h-16.174Z" fill="#333"/>
      <path d="M12.411,406.575c-2.184,0-4.084-.419-5.701-1.255-1.617-.837-2.875-1.987-3.771-3.451-.896-1.465-1.352-3.135-1.365-5.01H6.062c.014,1.241,.276,2.304,.789,3.188,.512,.884,1.236,1.559,2.173,2.024s2.046,.698,3.326,.698c1.24,0,2.338-.213,3.296-.638,.956-.425,1.704-1.035,2.244-1.832,.538-.796,.809-1.721,.809-2.772,0-.999-.283-1.873-.85-2.622-.565-.749-1.361-1.332-2.386-1.751-1.024-.418-2.23-.627-3.619-.627h-2.526v-3.704h2.526c1.2,0,2.251-.189,3.154-.567,.903-.377,1.604-.914,2.103-1.608,.499-.695,.748-1.509,.748-2.439,0-1.025-.229-1.909-.688-2.651s-1.105-1.316-1.94-1.721c-.836-.405-1.819-.607-2.952-.607s-2.126,.216-2.981,.647c-.856,.433-1.527,1.046-2.012,1.842-.485,.797-.735,1.755-.748,2.875H2.201c.014-1.781,.451-3.356,1.314-4.727,.862-1.369,2.052-2.442,3.568-3.219,1.517-.775,3.258-1.164,5.227-1.164,1.913,0,3.615,.365,5.104,1.094s2.659,1.724,3.508,2.985c.85,1.262,1.273,2.702,1.273,4.321,0,1.606-.492,2.993-1.476,4.16-.984,1.167-2.312,1.974-3.982,2.419v.101c1.334,.203,2.479,.638,3.437,1.306s1.695,1.498,2.214,2.49c.519,.991,.778,2.088,.778,3.289,0,1.74-.465,3.282-1.395,4.625-.931,1.343-2.204,2.396-3.821,3.158-1.618,.762-3.465,1.144-5.54,1.144Z" fill="#3b56a6"/>
      <path d="M37.845,375.949v30.16h-4.387v-25.788h-.061l-7.319,4.898v-4.372l7.299-4.898h4.468Z" fill="#3b56a6"/>
      <path d="M53.372,406.109v-21.658h4.165l.04,4.676h-.384c.377-1.12,.906-2.058,1.587-2.813s1.466-1.322,2.355-1.701c.89-.377,1.826-.566,2.811-.566,1.644,0,3.039,.482,4.185,1.447s1.86,2.189,2.144,3.674h-.647c.297-1.012,.785-1.902,1.466-2.672s1.513-1.369,2.497-1.802c.983-.432,2.069-.647,3.255-.647,1.335,0,2.541,.287,3.619,.86,1.078,.574,1.934,1.434,2.567,2.581,.634,1.146,.95,2.577,.95,4.291v14.331h-4.306v-13.946c0-1.525-.425-2.628-1.274-3.31-.849-.682-1.854-1.022-3.012-1.022-.944,0-1.76,.199-2.446,.598-.688,.397-1.217,.948-1.588,1.649-.37,.702-.556,1.505-.556,2.408v13.623h-4.246v-14.25c0-1.215-.394-2.189-1.183-2.925-.788-.735-1.789-1.104-3.002-1.104-.822,0-1.591,.192-2.305,.577-.715,.385-1.287,.958-1.719,1.721s-.646,1.703-.646,2.823v13.157h-4.327Z" fill="#3b56a6"/>
      <path d="M95.526,406.474c-1.429,0-2.706-.246-3.831-.738-1.126-.493-2.016-1.225-2.669-2.196-.654-.972-.98-2.173-.98-3.604,0-1.241,.239-2.257,.718-3.046,.478-.79,1.118-1.414,1.92-1.873,.802-.458,1.712-.81,2.729-1.052,1.018-.243,2.065-.426,3.145-.547,1.334-.162,2.396-.294,3.184-.395,.789-.102,1.358-.267,1.709-.496,.35-.229,.525-.601,.525-1.113v-.162c0-.729-.169-1.366-.506-1.913-.337-.546-.828-.975-1.476-1.285-.646-.311-1.429-.466-2.345-.466s-1.723,.152-2.416,.456c-.694,.304-1.251,.708-1.668,1.214-.418,.507-.675,1.07-.769,1.69l-4.186-.223c.176-1.362,.66-2.54,1.456-3.532,.795-.991,1.843-1.761,3.144-2.308,1.301-.546,2.794-.819,4.479-.819,1.213,0,2.342,.155,3.387,.466,1.044,.311,1.954,.772,2.729,1.386,.774,.614,1.374,1.377,1.799,2.288,.425,.91,.637,1.967,.637,3.167v14.736h-4.226v-3.036h-.101c-.297,.566-.711,1.113-1.243,1.64-.533,.526-1.221,.951-2.062,1.275-.843,.323-1.87,.485-3.083,.485Zm.89-3.461c1.239,0,2.274-.229,3.104-.688,.828-.459,1.448-1.062,1.859-1.812s.617-1.562,.617-2.439v-2.591c-.148,.121-.404,.236-.769,.344-.364,.108-.792,.21-1.284,.304-.492,.095-1.011,.186-1.557,.273s-1.081,.166-1.607,.233c-.781,.107-1.513,.286-2.193,.536s-1.227,.601-1.638,1.053-.616,1.049-.616,1.791c0,.635,.168,1.174,.505,1.619s.812,.786,1.426,1.022,1.331,.354,2.153,.354Z" fill="#3b56a6"/>
      <path d="M111.316,406.109v-21.658h4.145v3.502h.121c.391-1.188,1.031-2.112,1.921-2.773s2.008-.992,3.355-.992c.311,0,.613,.011,.91,.03,.296,.021,.539,.044,.728,.071v4.028c-.161-.027-.458-.067-.89-.122-.431-.054-.896-.081-1.395-.081-.836,0-1.604,.192-2.305,.577-.701,.385-1.254,.955-1.658,1.711s-.606,1.7-.606,2.833v12.874h-4.326Z" fill="#3b56a6"/>
      <path d="M134.566,406.595c-2.049,0-3.841-.476-5.378-1.427-1.536-.951-2.732-2.273-3.589-3.967-.855-1.693-1.283-3.647-1.283-5.86,0-2.227,.428-4.193,1.283-5.9,.856-1.707,2.053-3.039,3.589-3.998,1.537-.958,3.329-1.437,5.378-1.437,1.254,0,2.416,.186,3.487,.557,1.072,.371,2.019,.891,2.841,1.559s1.493,1.464,2.012,2.389c.519,.924,.859,1.939,1.021,3.046l-4.226,.223c-.122-.594-.32-1.141-.597-1.64s-.63-.928-1.062-1.285-.934-.638-1.506-.84c-.573-.203-1.224-.304-1.951-.304-1.254,0-2.322,.32-3.205,.961-.883,.642-1.553,1.535-2.011,2.683-.459,1.146-.688,2.477-.688,3.987,0,1.484,.229,2.797,.688,3.937,.458,1.141,1.128,2.028,2.011,2.662,.883,.635,1.951,.951,3.205,.951,.728,0,1.375-.098,1.94-.293,.566-.195,1.059-.476,1.477-.84,.417-.364,.768-.8,1.051-1.306s.492-1.063,.627-1.67l4.266,.223c-.148,1.106-.485,2.118-1.011,3.036s-1.199,1.717-2.021,2.398-1.772,1.211-2.851,1.589c-1.079,.378-2.244,.566-3.498,.566Z" fill="#3b56a6"/>
      <path d="M152.177,393.56v12.55h-4.327v-30.16h4.307v13.865h-.95c.674-1.942,1.638-3.387,2.891-4.331,1.254-.944,2.764-1.417,4.529-1.417,1.482,0,2.807,.32,3.973,.961,1.166,.642,2.082,1.59,2.75,2.845,.667,1.255,1,2.82,1,4.695v13.542h-4.306v-13.016c0-1.7-.412-2.992-1.233-3.876-.822-.884-1.981-1.326-3.478-1.326-.971,0-1.847,.203-2.629,.607-.781,.405-1.398,1.025-1.85,1.862s-.677,1.902-.677,3.198Z" fill="#3b56a6"/>
      <path d="M194.775,391.94v3.765h-13.344v-3.765h13.344Z" fill="#3b56a6"/>
      <path d="M220.229,375.949v30.16h-4.388v-25.788h-.061l-7.318,4.898v-4.372l7.298-4.898h4.469Z" fill="#3b56a6"/>
      <path d="M242.246,406.474c-1.429,0-2.706-.246-3.831-.738-1.126-.493-2.015-1.225-2.669-2.196-.653-.972-.98-2.173-.98-3.604,0-1.241,.239-2.257,.718-3.046,.479-.79,1.119-1.414,1.921-1.873,.802-.458,1.712-.81,2.729-1.052,1.018-.243,2.065-.426,3.144-.547,1.335-.162,2.396-.294,3.185-.395,.788-.102,1.357-.267,1.708-.496s.526-.601,.526-1.113v-.162c0-.729-.169-1.366-.506-1.913-.337-.546-.829-.975-1.476-1.285-.647-.311-1.429-.466-2.346-.466s-1.722,.152-2.416,.456-1.25,.708-1.668,1.214c-.418,.507-.674,1.07-.769,1.69l-4.185-.223c.175-1.362,.66-2.54,1.455-3.532,.796-.991,1.844-1.761,3.145-2.308,1.301-.546,2.793-.819,4.478-.819,1.214,0,2.342,.155,3.387,.466s1.954,.772,2.729,1.386c.775,.614,1.375,1.377,1.8,2.288,.424,.91,.637,1.967,.637,3.167v14.736h-4.226v-3.036h-.102c-.296,.566-.711,1.113-1.243,1.64s-1.22,.951-2.062,1.275c-.842,.323-1.87,.485-3.083,.485Zm.89-3.461c1.24,0,2.274-.229,3.104-.688s1.449-1.062,1.86-1.812,.616-1.562,.616-2.439v-2.591c-.148,.121-.404,.236-.768,.344-.364,.108-.792,.21-1.284,.304-.492,.095-1.011,.186-1.557,.273s-1.082,.166-1.607,.233c-.782,.107-1.514,.286-2.193,.536-.682,.25-1.228,.601-1.638,1.053-.412,.452-.617,1.049-.617,1.791,0,.635,.169,1.174,.506,1.619s.812,.786,1.425,1.022,1.331,.354,2.153,.354Z" fill="#3b56a6"/>
      <path d="M258.036,414.57v-30.119h4.226v3.218h.121c.418-.715,.943-1.342,1.577-1.882s1.371-.962,2.214-1.266c.842-.304,1.775-.455,2.8-.455,1.847,0,3.464,.466,4.853,1.396,1.389,.932,2.474,2.236,3.255,3.917,.782,1.68,1.173,3.646,1.173,5.9s-.388,4.224-1.162,5.91c-.775,1.688-1.86,2.999-3.256,3.938-1.395,.938-3.016,1.406-4.862,1.406-1.024,0-1.947-.155-2.77-.465-.822-.311-1.547-.746-2.173-1.306-.627-.561-1.156-1.211-1.588-1.954h-.08v11.761h-4.327Zm10.048-11.74c1.173,0,2.194-.3,3.063-.9s1.543-1.464,2.021-2.591,.718-2.479,.718-4.059c0-1.593-.239-2.945-.718-4.059s-1.152-1.97-2.021-2.57-1.891-.901-3.063-.901c-1.24,0-2.305,.314-3.194,.941-.89,.628-1.573,1.501-2.052,2.621s-.718,2.442-.718,3.968c0,1.512,.239,2.834,.718,3.967,.479,1.134,1.166,2.015,2.062,2.642,.896,.628,1.957,.941,3.184,.941Z" fill="#3b56a6"/>
      <path d="M282.277,406.109v-21.658h4.145v3.502h.121c.392-1.188,1.031-2.112,1.921-2.773s2.009-.992,3.356-.992c.31,0,.613,.011,.91,.03,.296,.021,.538,.044,.728,.071v4.028c-.162-.027-.459-.067-.89-.122-.432-.054-.896-.081-1.396-.081-.836,0-1.604,.192-2.305,.577s-1.253,.955-1.657,1.711-.606,1.7-.606,2.833v12.874h-4.327Z" fill="#3b56a6"/>
      <path d="M299.038,380.827c-.755,0-1.395-.256-1.92-.769-.526-.513-.789-1.134-.789-1.862s.263-1.35,.789-1.862c.525-.513,1.165-.77,1.92-.77,.769,0,1.416,.253,1.941,.76,.525,.506,.788,1.13,.788,1.872s-.263,1.366-.788,1.872-1.173,.759-1.941,.759Zm-2.163,25.282v-21.658h4.327v21.658h-4.327Z" fill="#3b56a6"/>
      <path d="M310.582,375.949v30.16h-4.326v-30.16h4.326Z" fill="#3b56a6"/>
    </g>
    <g>
      <g>
        <path d="M12.12,276.223c-2.737,0-6.255-.391-10.165-1.173-1.955-.391-1.955-.782-1.955-1.563v-26.977c0-.782,.391-1.563,1.564-1.173,4.3,1.173,7.037,1.563,10.165,1.563,5.864,0,7.037-1.563,7.037-4.691V4.505c0-.782,.391-1.173,1.173-1.173h27.367c.782,0,1.173,.391,1.173,1.173V243.382c0,20.721-13.684,32.841-36.359,32.841Z" fill="#333"/>
        <path d="M102.04,276.223c-21.112,0-37.924-16.812-37.924-37.923V38.909C64.116,18.188,80.928,.986,102.04,.986c20.721,0,37.532,17.202,37.532,37.923V238.3c0,21.111-16.812,37.923-37.532,37.923Zm-8.211-37.142c0,4.301,3.52,7.819,8.211,7.819,4.301,0,7.819-3.519,7.819-7.819V38.128c0-4.301-3.519-7.819-7.819-7.819-4.691,0-8.211,3.519-8.211,7.819V239.081Z" fill="#333"/>
        <path d="M156.379,3.332h27.367c37.142,0,45.742,27.367,45.742,71.937,0,35.969-4.691,48.87-11.729,54.344-.391,.392-.391,1.173,0,1.564,12.511,12.511,14.074,25.803,14.074,66.072,0,33.231-2.346,76.628-43.396,76.628h-32.059c-.782,0-1.173-.391-1.173-1.173V4.505c0-.782,.391-1.173,1.173-1.173Zm30.104,114.942c7.038,0,13.684-5.082,13.684-44.569,0-40.269-7.428-41.441-13.684-41.833-.781,0-1.173,.392-1.173,1.173V117.102c0,.782,.392,1.173,1.173,1.173Zm0,127.062h1.955c13.684,0,13.684-32.45,13.684-48.87,0-18.767,0-49.652-12.901-49.652h-2.737c-.781,0-1.173,.392-1.173,1.173v96.177c0,.782,.392,1.173,1.173,1.173Z" fill="#333"/>
        <path d="M319.405,194.512v43.788c0,21.503-17.202,37.923-39.487,37.923-20.33-.782-36.359-17.593-36.359-38.314v-59.426c0-.782,.392-1.173,1.173-1.173h27.367c.782,0,1.173,.391,1.173,1.173v60.208c0,5.474,3.519,8.21,7.819,8.21,4.691,0,8.21-2.736,8.21-7.819v-47.697c0-18.375-10.556-33.622-19.938-48.479-9.774-14.466-25.021-38.314-25.021-68.81V37.736c0-19.938,17.984-36.75,36.75-36.75h.782c18.375,0,36.359,14.856,36.359,36.75v52.78c0,.781-.392,1.173-1.173,1.173h-27.367c-.782,0-1.173-.392-1.173-1.173V38.909c0-5.082-2.737-8.601-7.038-8.601-4.691,0-7.428,3.128-7.428,8.601v39.487c0,17.594,10.556,32.841,19.939,47.697,9.383,14.466,25.412,35.969,25.412,68.418Z" fill="#333"/>
        <path d="M380.786,272.704v-125.498c0-.782-.392-1.173-1.173-1.173h-15.248c-.781,0-1.173,.391-1.173,1.173v125.498c0,.782-.391,1.173-1.173,1.173h-27.758c-.782,0-1.173-.391-1.173-1.173V4.505c0-.782,.391-1.173,1.173-1.173h27.758c.782,0,1.173,.391,1.173,1.173V116.319c0,.782,.392,1.173,1.173,1.173h15.248c.781,0,1.173-.391,1.173-1.173V4.505c0-.782,.391-1.173,1.173-1.173h27.367c.782,0,1.173,.391,1.173,1.173V272.704c0,.782-.391,1.173-1.173,1.173h-27.367c-.782,0-1.173-.391-1.173-1.173Z" fill="#333"/>
        <path d="M464.058,276.223c-21.111,0-37.923-16.812-37.923-37.923V38.909c0-20.721,16.812-37.923,37.923-37.923,20.721,0,37.532,17.202,37.532,37.923V238.3c0,21.111-16.812,37.923-37.532,37.923Zm-8.21-37.142c0,4.301,3.519,7.819,8.21,7.819,4.301,0,7.819-3.519,7.819-7.819V38.128c0-4.301-3.519-7.819-7.819-7.819-4.691,0-8.21,3.519-8.21,7.819V239.081Z" fill="#333"/>
        <path d="M517.224,272.704V4.505c0-.782,.391-1.173,1.173-1.173h30.495c32.449,0,47.697,23.849,47.697,83.274,0,74.674-22.676,84.448-46.134,84.448h-1.955c-.781,0-1.173,.391-1.173,1.173v100.477c0,.782-.781,1.173-1.173,1.173h-27.758c-.782,0-1.173-.391-1.173-1.173Zm30.104-132.536c0,.392,.392,.782,.782,.782h2.736c8.211,0,14.856-2.346,14.856-54.344,0-42.224-6.255-54.734-16.029-54.734h-1.563c-.391,0-.782,.392-.782,1.173v107.123Z" fill="#333"/>
      </g>
      <path d="M648.436,69.401c-19.159,0-34.701-15.542-34.701-34.701S629.276,0,648.436,0c19.061,0,34.7,15.542,34.7,34.7s-15.64,34.701-34.7,34.701Zm-27.663-34.701c0,15.249,12.414,27.663,27.663,27.663s27.662-12.414,27.662-27.663-12.414-27.662-27.662-27.662-27.663,12.414-27.663,27.662Zm17.204,19.843c0,.392,.293,.685,.684,.685h5.768c.391,0,.684-.293,.684-.685v-12.022c0-.293,.294-.587,.587-.587h3.03c.391,0,.782,.196,.88,.587l5.278,12.121c.195,.391,.586,.586,.978,.586h5.962c.392,0,.685-.391,.489-.782l-6.646-14.466c-.099-.294,0-.587,.195-.782,3.421-2.542,5.669-6.647,5.669-11.046v-.098c0-7.722-6.256-13.88-13.978-13.88h-8.896c-.391,0-.684,.293-.684,.684V54.543Zm7.135-19.843v-13.293c0-.392,.294-.587,.587-.587h1.857c3.812,0,6.744,3.03,6.744,6.745v.978c0,3.714-2.933,6.744-6.744,6.744h-1.857c-.293,0-.587-.293-.587-.587Z" fill="#333"/>
    </g>
  </g>
</svg>