<?xml version="1.0" encoding="UTF-8"?>
<svg id="Layer_2" data-name="Layer 2" xmlns="http://www.w3.org/2000/svg" viewBox="0 0 179.659 61.701">
  <g id="Layer_1-2" data-name="Layer 1">
    <g id="JS">
      <g id="JS-2" data-name="JS">
        <path d="M173.005,.027c3.768-.331,6.639,2.422,6.654,5.975,.016,3.586-2.682,6.161-6.095,6.161-3.54,0-6.278-2.68-6.101-6.406,.126-2.647,1.569-4.282,3.325-5.174,.664-.337,1.129-.459,2.217-.556m-3.696,3.881c-2.138,4.248,2.635,8.362,6.409,6.406,1.214-.628,2.327-1.934,2.525-3.51,.434-3.401-2.206-5.814-5.295-5.423-1.929,.246-3.195,1.648-3.639,2.526" fill="#fff" fill-rule="evenodd"/>
        <path d="M174.672,6.311c.695,.904,1.506,1.693,2.154,2.648-.701-.1-1.276,.139-1.725,0-.883-.273-1.108-2.227-2.337-2.218-.147,.615-.026,1.499-.068,2.218h-1.474V2.861c1.448,.038,3.827-.234,4.495,.739,.592,.856,.105,2.528-1.045,2.711m-1.977-.678c2.044,.495,2.165-2.212,0-1.663v1.663Z" fill="#fff" fill-rule="evenodd"/>
        <path d="M51.349,4.34h6.529V14.565c1.714-1.189,3.355-2.692,6.344-2.71,3.56-.023,5.522,1.891,6.714,4.681,1.093,2.556,1.464,6.615,.678,9.919-.684,2.875-2.437,5.374-4.743,6.651-2.425,1.344-6.574,1.209-8.932-.554-.21,.264-.175,.771-.371,1.047h-6.282V4.525c-.005-.088-.01-.175,.062-.185m11.827,24.146c2.126-1.45,2.879-7.377,1.232-9.979-1.285-2.03-5.026-1.753-6.529-.247v10.472c1.982,.621,3.999,.639,5.298-.247" fill="#fff" fill-rule="evenodd"/>
        <path d="M100.073,4.339h6.53V14.627c.222,.099,.458-.277,.739-.492,.743-.568,1.689-1.24,2.649-1.664,2.525-1.117,5.996-.65,7.7,.986,2.044,1.965,2.097,5.159,2.097,9.056v11.086h-6.655v-7.822c0-3.059,.429-7.213-1.478-8.132-1.591-.765-4.078,.079-5.052,1.048v14.905h-6.592V4.524c-.003-.088-.009-.175,.062-.185" fill="#fff" fill-rule="evenodd"/>
        <path d="M95.7,6.926c-.041,2.135,.082,4.435-.061,6.468-.79,.034-1.38-.64-2.034-1.048-2.348-1.466-7.041-3.225-10.348-1.417-.825,.453-1.708,1.37-1.355,2.772,.51,2.031,4.439,2.282,6.653,2.833,2.453,.613,4.976,1.617,6.405,3.081,1.774,1.817,2.327,5.144,1.418,7.946-1.624,4.994-7.169,7.001-13.861,6.469-3.119-.25-5.651-1.005-8.069-2.097,.041-2.195-.083-4.557,.061-6.651,.898-.008,1.588,.716,2.279,1.171,2.405,1.581,7.094,3.555,10.904,2.032,1.066-.425,2.362-1.513,1.786-3.203-.72-2.116-5.258-2.439-7.515-3.081-4.091-1.164-7.781-3.259-7.329-9.117,.148-1.925,.916-3.25,1.848-4.311,1.777-2.028,4.896-3.481,8.562-3.695,4.306-.254,7.617,.696,10.656,1.847" fill="#fff" fill-rule="evenodd"/>
        <path d="M9.091,5.571h13.367V15.92c0,5.114,.737,11.633-1.478,14.6-2.727,3.653-9.028,4.189-15.153,2.957v-5.668c.978-.096,1.637,.433,2.587,.677,2.279,.588,5.192,.246,6.222-1.231,1.161-1.663,.8-5.081,.8-7.886V10.746c-2.012-.144-4.29-.021-6.405-.062V5.756c-.006-.087-.011-.175,.061-.185" fill="#fff" fill-rule="evenodd"/>
        <path d="M35.887,11.855c5.544-.384,9.056,1.953,10.719,5.298,2.348,4.719,1.157,11.138-1.601,14.044-2.977,3.137-9.278,4.169-13.799,1.847-3.772-1.936-6.047-6.549-5.051-12.689,.43-2.649,1.473-4.521,3.08-5.975,1.676-1.516,3.845-2.332,6.652-2.525m-.985,5.113c-2.728,1.54-2.996,9.633-.492,11.766,1.369,1.166,3.954,.966,5.113-.123,1.083-1.02,1.539-3.261,1.539-5.483,0-3.606-.957-6.947-4.681-6.529-.71,.08-1.074,.141-1.478,.37" fill="#fff" fill-rule="evenodd"/>
        <path d="M133.03,11.855c7.156-.497,11.605,3.445,11.888,10.227,.313,7.467-3.189,11.666-9.98,12.133-7.203,.498-11.422-3.467-11.824-10.163-.214-3.552,.658-6.644,2.279-8.685,1.636-2.07,4.302-3.28,7.638-3.511m-.988,5.113c-2.823,1.588-3.063,10.187-.183,12.012,1.416,.895,3.518,.629,4.558-.185,1.417-1.104,1.761-3.7,1.725-6.222-.053-3.498-1.119-6.368-4.621-5.975-.717,.081-1.093,.152-1.48,.37" fill="#fff" fill-rule="evenodd"/>
        <path d="M155.021,32.614v8.747h-6.654V12.47h6.654v2.032c1.694-1.18,3.236-2.431,6.033-2.647,6.817-.53,9.19,7.769,7.7,14.476-.648,2.939-2.436,5.434-4.742,6.713-2.441,1.356-6.299,1.317-8.991-.43m5.725-4.496c1.882-1.765,2.201-7.584,.616-9.795-.601-.845-1.85-1.401-3.324-1.294-.878,.064-2.781,.556-3.017,1.232-.214,.606,0,1.753,0,2.587v7.885c2.238,.738,4.47,.565,5.725-.615" fill="#fff" fill-rule="evenodd"/>
      </g>
      <text transform="translate(0 56.096)" fill="#fff" font-family="Tahoma, Tahoma" font-size="13.378"><tspan x="0" y="0">Eveniment național de carieră</tspan></text>
    </g>
  </g>
</svg>