<svg viewBox="418.26636410000003 82.23871764705882 113.59722400000001 109.37472549019608" xmlns:xlink="http://www.w3.org/1999/xlink" xmlns="http://www.w3.org/2000/svg" data-name="Layer 2" id="Layer_2" style="max-height: 500px" width="113.59722400000001" height="109.37472549019608">
  <defs>
    <clipPath id="clippath">
      <rect fill="none" height="107.084" width="107.084" y="83.193" x="420.021"/>
    </clipPath>
    <clipPath id="clippath-1">
      <rect fill="none" height="114.353" width="111.312" y="81.142" x="813.611"/>
    </clipPath>
    <clipPath id="clippath-2">
      <rect fill="none" height="124.748" width="113.004" y="74.123" x="1246.994"/>
    </clipPath>
    <clipPath id="clippath-3">
      <rect fill="none" height="114.353" width="111.312" y="81.142" x="829.041"/>
    </clipPath>
    <clipPath id="clippath-4">
      <rect fill="none" height="130.68" width="122.908" y="81.147" x="829.041"/>
    </clipPath>
    <clipPath id="clippath-5">
      <rect fill="none" height="129.863" width="122.908" y="74.118" x="1262.424"/>
    </clipPath>
    <clipPath id="clippath-6">
      <rect fill="none" height="111.724" width="122.908" y="83.187" x="425.547"/>
    </clipPath>
    <clipPath id="clippath-7">
      <rect fill="none" height="114.353" width="111.312" y="79.823"/>
    </clipPath>
  </defs>
  <g data-name="Layer 1" id="Layer_1-2">
    <g clip-path="url(#clippath)">
      <path stroke-width="6" stroke-miterlimit="10" stroke="#333" fill="none" d="M505.265,187.286h-63.405c-10.407,0-18.847-8.441-18.847-18.853v-63.4c0-10.412,8.441-18.853,18.847-18.853h63.405c10.412,0,18.853,8.441,18.853,18.853v63.4c0,10.412-8.441,18.853-18.853,18.853Z"/>
    </g>
    <g clip-path="url(#clippath-1)">
      <path stroke-width="1.023" stroke-linejoin="round" stroke-linecap="round" stroke="#290744" fill="none" d="M588.092,99.438h-62.232c-10.219,0-18.503-8.219-18.503-18.357V19.337c0-10.139,8.284-18.357,18.503-18.357h62.232c10.219,0,18.503,8.219,18.503,18.357v61.744c0,10.138-8.284,18.357-18.503,18.357Z"/>
    </g>
    <g clip-path="url(#clippath-2)">
      <path stroke-width="1.024" stroke-linejoin="round" stroke-linecap="round" stroke="#290744" fill="none" d="M1022.778,99.435h-62.034c-10.189,0-18.442-8.258-18.442-18.442V18.959c0-10.189,8.252-18.447,18.442-18.447h62.034c10.184,0,18.442,8.258,18.442,18.447v62.034c0,10.184-8.258,18.442-18.442,18.442Z"/>
    </g>
    <g clip-path="url(#clippath-3)">
      <path stroke-width="6" stroke-miterlimit="10" stroke="#333" fill="none" d="M918.915,192.585h-62.232c-10.219,0-18.503-8.219-18.503-18.357v-61.744c0-10.139,8.284-18.357,18.503-18.357h62.232c10.219,0,18.503,8.219,18.503,18.357v61.744c0,10.138-8.284,18.357-18.503,18.357Z"/>
    </g>
    <g clip-path="url(#clippath-4)">
      <path fill="#290744" d="M583.458,28.931h5.526v-11.933l-8.323-.009c-11.793,0-17.388,6.963-17.388,16.876v9.39h-9.235v11.336h9.235v28.836h13.851v-28.836h9.235l2.621-11.332h-11.856v-7.741c0-3.17,1.746-6.587,6.334-6.587"/>
      <path fill="#333" d="M853.285,127.332c.592-3.061,1.145-6.132,2.825-8.853,3.834-6.209,9.831-8.591,16.743-8.759,9.427-.229,18.868-.225,28.295,.003,6.401,.154,12.097,2.247,15.996,7.749,2.508,3.544,3.443,7.601,3.508,11.795,.136,8.99,.2,17.986-.009,26.973-.168,7.238-2.703,13.414-9.535,17.094-3.155,1.7-6.613,2.438-10.143,2.479-9.308,.105-18.621,.196-27.926-.014-6.982-.159-13.049-2.497-16.928-8.77-1.682-2.721-2.231-5.794-2.825-8.855v-30.841Zm33.771-11.276c-4.624,0-9.25-.088-13.871,.02-7.221,.168-11.661,3.524-12.976,9.694-.279,1.309-.486,2.662-.493,3.997-.043,8.685-.16,17.374,.019,26.057,.177,8.64,4.58,13.26,12.981,13.567,9.489,.347,18.992,.317,28.481,.006,6.998-.229,11.156-3.571,12.494-9.571,.239-1.072,.466-2.173,.472-3.262,.051-9.903,.599-19.818-.303-29.702-.534-5.856-4.488-9.68-10.368-10.479-5.463-.745-10.96-.215-16.437-.327"/>
      <path fill="#333" d="M904.448,142.865c-.029,9.331-7.832,17-17.415,17.114-9.612,.115-17.587-7.76-17.559-17.337,.029-9.416,8.129-17.292,17.6-17.114,9.717,.184,17.402,7.851,17.373,17.338m-6.483-.085c.009-5.939-4.917-10.803-10.976-10.835-6.019-.031-11.02,4.856-11.031,10.781-.009,5.939,4.919,10.803,10.977,10.835,6.018,.031,11.019-4.856,11.03-10.781"/>
      <path fill="#333" d="M904.923,120.997c2.318-.03,4.282,1.876,4.268,4.145-.011,2.176-1.892,4.039-4.139,4.102-2.312,.066-4.315-1.804-4.356-4.066-.043-2.283,1.847-4.151,4.228-4.181"/>
    </g>
    <g clip-path="url(#clippath-5)">
      <path fill="#290744" d="M1018.208,28.596h5.509v-11.99l-8.298-.006c-11.755,0-17.333,6.995-17.333,16.95v9.435h-9.201v11.39h9.201v28.974h13.807v-28.974h9.206l2.612-11.384h-11.818v-7.778c0-3.183,1.743-6.618,6.315-6.618"/>
      <path fill="#333" d="M1309.169,127.06c0,3.052-1.943,5.549-5.549,5.549-3.332,0-5.549-2.497-5.549-5.269,0-3.057,2.217-5.829,5.549-5.829s5.549,2.497,5.549,5.549"/>
      <rect fill="#333" height="36.077" width="11.098" y="135.38" x="1298.067"/>
      <path fill="#333" d="M1335.809,135.94c-5.829,0-9.161,3.332-10.544,5.549h-.28l-.554-4.715h-9.989c0,3.052,.274,6.658,.274,10.818v23.865h11.104v-19.699c0-1.109,0-1.943,.275-2.777,.834-1.943,2.223-4.44,5.275-4.44,3.886,0,5.549,3.332,5.549,7.772v19.145h11.104v-20.533c0-10.269-5.275-14.984-12.212-14.984"/>
    </g>
    <rect stroke-width="6" stroke-miterlimit="10" stroke="#333" fill="none" ry="18.442" rx="18.442" height="98.923" width="98.917" y="97.023" x="1273.585"/>
    <g clip-path="url(#clippath-6)">
      <path fill="#333" d="M500.254,114.885h5.629v-12.252l-8.481-.011c-12.012,0-17.716,7.149-17.716,17.327v9.647h-9.406v11.641h9.406v29.608h14.116v-29.608h9.407l2.669-11.635h-12.075v-7.949c0-3.257,1.777-6.766,6.452-6.766"/>
    </g>
    <g>
      <g clip-path="url(#clippath-7)">
        <path stroke-width="6" stroke-miterlimit="10" stroke="#333" fill="none" d="M89.875,183.599H27.642c-10.219,0-18.503-8.219-18.503-18.357v-61.744c0-10.139,8.284-18.357,18.503-18.357h62.232c10.219,0,18.503,8.219,18.503,18.357v61.744c0,10.138-8.284,18.357-18.503,18.357Z"/>
      </g>
      <path fill="#333" d="M86.016,117.721c-8.26,0-14.955-6.696-14.955-14.955h-11.217v43.412c0,5.048-4.092,9.139-9.139,9.139s-9.139-4.092-9.139-9.139,4.092-9.139,9.139-9.139c.946,0,2.019,.144,2.877,.411v-11.426c-.94-.133-1.901-.202-2.877-.202-11.242,0-20.356,9.114-20.356,20.356s9.114,20.356,20.356,20.356,20.356-9.114,20.356-20.356v-22.977c4.078,3.326,9.283,5.321,14.955,5.321v-10.801Z"/>
    </g>
  </g>
</svg>