<?xml version="1.0" encoding="UTF-8"?>
<svg id="Layer_1" data-name="Layer 1" xmlns="http://www.w3.org/2000/svg" viewBox="0 0 428.031 76.535">
  <polygon points=".548 21.863 19.237 21.863 19.237 24.251 .548 24.251 .548 21.863 .548 21.863" fill="#005daa"/>
  <polygon points=".548 17.046 19.237 17.046 19.237 19.018 .548 19.018 .548 17.046 .548 17.046" fill="#005daa"/>
  <polygon points=".548 33.865 33.357 33.865 33.357 38.018 .548 38.018 .548 33.865 .548 33.865" fill="#005daa"/>
  <polygon points=".548 27.428 33.357 27.428 33.357 30.542 .548 30.542 .548 27.428 .548 27.428" fill="#005daa"/>
  <polygon points=".548 12.768 33.357 12.768 33.357 14.429 .548 14.429 .548 12.768 .548 12.768" fill="#005daa"/>
  <polygon points=".548 8.511 33.357 8.511 33.357 9.881 .548 9.881 .548 8.511 .548 8.511" fill="#005daa"/>
  <polygon points=".548 4.306 33.357 4.306 33.357 5.344 .548 5.344 .548 4.306 .548 4.306" fill="#005daa"/>
  <polygon points=".548 .817 33.357 .817 33.357 1.336 .548 1.336 .548 .817 .548 .817" fill="#005daa"/>
  <polygon points=".548 41.205 33.357 41.205 33.357 42.169 19.564 42.17 19.564 45.981 .548 45.981 .548 41.205 .548 41.205" fill="#005daa"/>
  <polygon points=".548 49.231 19.444 49.231 19.444 55.668 .548 55.668 .548 49.231 .548 49.231" fill="#005daa"/>
  <polygon points=".548 58.783 19.444 58.783 19.444 67.089 .548 67.089 .548 58.783 .548 58.783" fill="#005daa"/>
  <polygon points="37.437 21.863 55.502 21.863 55.502 24.251 37.437 24.251 37.437 21.863 37.437 21.863" fill="#005daa"/>
  <polygon points="37.437 17.046 55.71 17.046 55.71 19.018 37.437 19.018 37.437 17.046 37.437 17.046" fill="#005daa"/>
  <path d="M37.435,33.865h42.022s-.811,1.437-1.52,2.351c-.586,.753-1.623,1.802-1.623,1.802H37.435v-4.153h0Z" fill="#005daa"/>
  <polygon points="37.437 27.428 55.502 27.428 55.502 30.542 37.437 30.542 37.437 27.428 37.437 27.428" fill="#005daa"/>
  <polygon points="37.435 12.768 80.755 12.768 81.262 14.429 37.435 14.429 37.435 12.768 37.435 12.768" fill="#005daa"/>
  <polygon points="37.435 8.511 78.645 8.511 79.051 9.881 37.435 9.881 37.435 8.511 37.435 8.511" fill="#005daa"/>
  <polygon points="37.435 4.306 74.686 4.306 75.396 5.344 37.435 5.344 37.435 4.306 37.435 4.306" fill="#005daa"/>
  <polygon points="37.435 .817 68.831 .817 69.54 1.336 37.435 1.336 37.435 .817 37.435 .817" fill="#005daa"/>
  <polygon points="37.437 49.231 55.71 49.231 55.71 55.668 37.437 55.668 37.437 49.231 37.437 49.231" fill="#005daa"/>
  <polygon points="37.437 58.783 55.71 58.783 55.71 67.089 37.437 67.089 37.437 58.783 37.437 58.783" fill="#005daa"/>
  <polygon points="37.437 41.205 55.71 41.205 55.71 45.981 37.437 45.981 37.437 41.205 37.437 41.205" fill="#005daa"/>
  <polygon points="64.519 21.863 82.174 21.863 81.769 24.251 64.519 24.251 64.519 21.863 64.519 21.863" fill="#005daa"/>
  <polygon points="62.694 17.046 81.971 17.046 82.067 19.018 62.694 19.018 62.694 17.046 62.694 17.046" fill="#005daa"/>
  <path d="M64.593,27.428h17.378l-.406,3.114h-19.791s1.501-.897,2.007-1.505c.541-.65,.812-1.609,.812-1.609h0Z" fill="#005daa"/>
  <polygon points="56.235 41.205 73.798 41.205 73.776 42.234 75.603 45.981 58.327 45.981 56.235 41.205 56.235 41.205" fill="#005daa"/>
  <polygon points="59.763 49.231 77.124 49.231 80.044 55.668 62.565 55.668 59.763 49.231 59.763 49.231" fill="#005daa"/>
  <polygon points="63.899 58.783 81.565 58.783 85.622 67.089 67.635 67.089 63.899 58.783 63.899 58.783" fill="#005daa"/>
  <polygon points="158.141 70.381 171.301 70.381 161.637 76.035 158.141 70.381 158.141 70.381" fill="#005daa"/>
  <path d="M138.49,1.276c.246-.176,.495-.347,.746-.511h21.575c.249,.164,.497,.335,.742,.511h-23.062Z" fill="#005daa"/>
  <path d="M134.048,5.309c.316-.356,.638-.703,.966-1.039h29.997c.327,.335,.648,.682,.963,1.039h-31.926Z" fill="#005daa"/>
  <path d="M130.699,9.839c.277-.448,.562-.887,.854-1.315h36.908c.291,.429,.575,.868,.851,1.315h-38.613Z" fill="#005daa"/>
  <path d="M128.272,14.458c.254-.572,.518-1.131,.792-1.68h41.878c.274,.549,.538,1.108,.791,1.68h-43.461Z" fill="#005daa"/>
  <path d="M126.559,19.002c.212-.673,.439-1.336,.678-1.988h19.145c-.49,.56-.951,1.227-1.375,1.988h-18.448Z" fill="#005daa"/>
  <path d="M153.663,17.014c.482,.56,.935,1.227,1.354,1.988h18.426c-.212-.673-.437-1.336-.677-1.988h-19.102Z" fill="#005daa"/>
  <path d="M143.016,24.279c.211-.854,.455-1.665,.724-2.427h-17.978c-.195,.797-.372,1.607-.529,2.427h17.783Z" fill="#005daa"/>
  <path d="M142.093,30.504c.062-1.034,.164-2.04,.302-3.011h-17.67c-.123,.991-.218,1.996-.284,3.011h17.652Z" fill="#005daa"/>
  <path d="M124.495,38.045c-.107-1.361-.163-2.744-.163-4.145l17.698-.004c.034,1.445,.145,2.813,.321,4.149h-17.856Z" fill="#005daa"/>
  <path d="M125.779,46.024c-.386-1.561-.699-3.172-.935-4.822l18.078,.003c.422,1.812,.976,3.437,1.637,4.819h-18.781Z" fill="#005daa"/>
  <path d="M156.989,24.279c-.21-.854-.451-1.665-.718-2.427h17.968c.195,.797,.372,1.607,.529,2.427h-17.779Z" fill="#005daa"/>
  <path d="M157.907,30.504c-.062-1.034-.164-2.04-.302-3.011h17.669c.123,.991,.219,1.996,.284,3.011h-17.651Z" fill="#005daa"/>
  <path d="M157.647,38.045c.178-1.335,.287-2.735,.32-4.18h17.7c0,1.414-.056,2.809-.165,4.18h-17.855Z" fill="#005daa"/>
  <path d="M155.44,46.024c.66-1.382,1.215-3.011,1.637-4.822h18.074c-.235,1.65-.549,3.261-.935,4.822h-18.776Z" fill="#005daa"/>
  <path d="M129.365,55.626c-1.031-1.979-1.925-4.113-2.662-6.372h20.018c1,1.014,2.111,1.577,3.279,1.577s2.279-.563,3.28-1.577h20.013c-.737,2.259-1.63,4.393-2.661,6.372h-41.267Z" fill="#005daa"/>
  <path d="M140.152,67.639c-3.416-2.02-6.459-5.062-8.942-8.855h37.477v.584s7.065,8.272,7.065,8.272h-35.6Z" fill="#005daa"/>
  <polygon points="86.38 21.863 105.069 21.863 105.069 24.251 86.38 24.251 86.38 21.863 86.38 21.863" fill="#005daa"/>
  <polygon points="86.38 17.046 104.654 17.046 104.654 19.018 86.38 19.018 86.38 17.046 86.38 17.046" fill="#005daa"/>
  <polygon points="86.38 33.865 119.188 33.865 119.188 38.018 86.38 38.018 86.38 33.865 86.38 33.865" fill="#005daa"/>
  <polygon points="86.38 27.428 119.188 27.428 119.188 30.542 86.38 30.542 86.38 27.428 86.38 27.428" fill="#005daa"/>
  <polygon points="86.38 12.768 120.019 12.768 120.019 14.429 86.38 14.429 86.38 12.768 86.38 12.768" fill="#005daa"/>
  <polygon points="86.38 8.511 120.019 8.511 120.019 9.881 86.38 9.881 86.38 8.511 86.38 8.511" fill="#005daa"/>
  <polygon points="86.38 4.306 120.019 4.306 120.019 5.344 86.38 5.344 86.38 4.306 86.38 4.306" fill="#005daa"/>
  <polygon points="86.38 .817 120.019 .817 120.019 1.336 86.38 1.336 86.38 .817 86.38 .817" fill="#005daa"/>
  <polygon points="86.38 58.783 120.019 58.783 120.019 67.089 86.38 67.089 86.38 58.783 86.38 58.783" fill="#005daa"/>
  <polygon points="86.38 41.205 104.654 41.205 104.654 45.981 86.38 45.981 86.38 41.205 86.38 41.205" fill="#005daa"/>
  <polygon points="86.38 49.231 104.643 49.231 104.643 51.41 120.019 51.41 120.019 55.668 86.38 55.668 86.38 49.231 86.38 49.231" fill="#005daa"/>
  <polygon points="180.996 .817 200.306 .817 200.306 1.336 180.996 1.336 180.996 .817 180.996 .817" fill="#005daa"/>
  <polygon points="228.641 21.863 210.575 21.863 210.575 24.251 228.641 24.251 228.641 21.863 228.641 21.863" fill="#005daa"/>
  <polygon points="228.641 17.046 210.575 17.046 210.575 19.018 228.641 19.018 228.641 17.046 228.641 17.046" fill="#005daa"/>
  <polygon points="228.641 33.865 210.575 33.865 210.575 38.018 228.641 38.018 228.641 33.865 228.641 33.865" fill="#005daa"/>
  <polygon points="228.641 27.428 210.575 27.428 210.575 30.542 228.641 30.542 228.641 27.428 228.641 27.428" fill="#005daa"/>
  <polygon points="228.641 12.768 210.575 12.768 210.575 14.429 228.641 14.429 228.641 12.768 228.641 12.768" fill="#005daa"/>
  <polygon points="228.641 8.511 210.575 8.511 210.575 9.881 228.641 9.881 228.641 8.511 228.641 8.511" fill="#005daa"/>
  <polygon points="228.641 4.306 210.575 4.306 210.575 5.344 228.641 5.344 228.641 4.306 228.641 4.306" fill="#005daa"/>
  <polygon points="228.641 41.205 210.575 41.205 210.575 45.981 228.641 45.981 228.641 41.205 228.641 41.205" fill="#005daa"/>
  <path d="M225.54,58.777c-3.914,5.335-11.726,8.974-20.725,8.974s-16.81-3.639-20.724-8.974h41.449Z" fill="#005daa"/>
  <polygon points="210.575 .817 228.641 .817 228.641 1.336 210.575 1.336 210.575 .817 210.575 .817" fill="#005daa"/>
  <polygon points="200.306 21.863 180.996 21.863 180.996 24.251 200.306 24.251 200.306 21.863 200.306 21.863" fill="#005daa"/>
  <polygon points="200.306 17.046 180.996 17.046 180.996 19.018 200.306 19.018 200.306 17.046 200.306 17.046" fill="#005daa"/>
  <polygon points="200.306 33.865 180.996 33.865 180.996 38.018 200.306 38.018 200.306 33.865 200.306 33.865" fill="#005daa"/>
  <polygon points="200.306 27.428 180.996 27.428 180.996 30.542 200.306 30.542 200.306 27.428 200.306 27.428" fill="#005daa"/>
  <polygon points="200.306 12.768 180.996 12.768 180.996 14.429 200.306 14.429 200.306 12.768 200.306 12.768" fill="#005daa"/>
  <polygon points="200.306 8.511 180.996 8.511 180.996 9.881 200.306 9.881 200.306 8.511 200.306 8.511" fill="#005daa"/>
  <polygon points="200.306 4.306 180.996 4.306 180.996 5.344 200.306 5.344 200.306 4.306 200.306 4.306" fill="#005daa"/>
  <polygon points="200.306 41.205 180.996 41.205 180.996 45.981 200.306 45.981 200.306 41.205 200.306 41.205" fill="#005daa"/>
  <polygon points="274.185 67.231 274.185 58.802 291.285 58.802 291.285 67.231 274.185 67.231 274.185 67.231" fill="#005daa"/>
  <polygon points="274.185 55.609 274.185 49.254 291.285 49.254 291.285 55.609 274.185 55.609 274.185 55.609" fill="#005daa"/>
  <polygon points="274.185 45.961 274.185 41.222 291.285 41.222 291.285 45.961 274.185 45.961 274.185 45.961" fill="#005daa"/>
  <polygon points="274.185 38.027 274.185 33.944 291.285 33.944 291.285 38.027 274.185 38.027 274.185 38.027" fill="#005daa"/>
  <polygon points="323.187 33.944 323.187 38.027 294.444 38.027 294.444 33.944 323.187 33.944 323.187 33.944" fill="#005daa"/>
  <polygon points="323.187 41.222 323.187 45.961 297.241 45.961 295.283 41.222 323.187 41.222 323.187 41.222" fill="#005daa"/>
  <polygon points="323.187 49.254 323.187 55.609 301.224 55.609 298.602 49.254 323.187 49.254 323.187 49.254" fill="#005daa"/>
  <polygon points="323.187 58.802 323.187 67.231 306.023 67.231 302.544 58.802 323.187 58.802 323.187 58.802" fill="#005daa"/>
  <polygon points="274.185 1.384 274.185 .791 292.279 .791 292.552 1.384 274.185 1.384 274.185 1.384" fill="#005daa"/>
  <polygon points="274.185 5.368 274.185 4.248 293.867 4.248 294.381 5.368 274.185 5.368 274.185 5.368" fill="#005daa"/>
  <polygon points="274.185 9.91 274.185 8.529 295.831 8.529 296.466 9.91 274.185 9.91 274.185 9.91" fill="#005daa"/>
  <polygon points="274.185 14.488 274.185 12.808 297.795 12.808 298.565 14.488 274.185 14.488 274.185 14.488" fill="#005daa"/>
  <polygon points="274.185 18.965 274.185 17.056 299.744 17.056 300.621 18.965 274.185 18.965 274.185 18.965" fill="#005daa"/>
  <polygon points="274.185 24.232 274.185 21.829 301.935 21.829 303.038 24.232 274.185 24.232 274.185 24.232" fill="#005daa"/>
  <polygon points="274.185 30.586 274.185 27.393 304.501 27.393 305.951 30.578 274.185 30.586 274.185 30.586" fill="#005daa"/>
  <polygon points="323.187 27.393 323.187 30.586 305.962 30.578 305.951 27.393 323.187 27.393 323.187 27.393" fill="#005daa"/>
  <polygon points="305.951 24.232 305.951 21.829 323.187 21.829 323.187 24.232 305.951 24.232 305.951 24.232" fill="#005daa"/>
  <polygon points="305.951 18.965 305.951 17.056 323.187 17.056 323.187 18.965 305.951 18.965 305.951 18.965" fill="#005daa"/>
  <polygon points="305.951 14.488 305.951 12.808 323.187 12.808 323.187 14.488 305.951 14.488 305.951 14.488" fill="#005daa"/>
  <polygon points="305.951 9.91 305.951 8.529 323.187 8.529 323.187 9.91 305.951 9.91 305.951 9.91" fill="#005daa"/>
  <polygon points="305.951 5.368 305.951 4.248 323.187 4.248 323.187 5.368 305.951 5.368 305.951 5.368" fill="#005daa"/>
  <polygon points="305.951 1.384 305.951 .791 323.187 .791 323.187 1.384 305.951 1.384 305.951 1.384" fill="#005daa"/>
  <polygon points="234.008 21.863 252.281 21.863 252.281 24.251 234.008 24.251 234.008 21.863 234.008 21.863" fill="#005daa"/>
  <polygon points="234.012 17.046 252.285 17.046 252.285 19.018 234.012 19.018 234.012 17.046 234.012 17.046" fill="#005daa"/>
  <polygon points="234.013 33.865 266.821 33.865 266.821 38.018 234.013 38.018 234.013 33.865 234.013 33.865" fill="#005daa"/>
  <polygon points="234.013 27.428 266.821 27.428 266.821 30.542 234.013 30.542 234.013 27.428 234.013 27.428" fill="#005daa"/>
  <polygon points="234.008 12.768 268.894 12.768 268.894 14.429 234.008 14.429 234.008 12.768 234.008 12.768" fill="#005daa"/>
  <polygon points="234.008 8.511 268.894 8.511 268.894 9.881 234.008 9.881 234.008 8.511 234.008 8.511" fill="#005daa"/>
  <polygon points="234.008 4.306 268.894 4.306 268.894 5.344 234.008 5.344 234.008 4.306 234.008 4.306" fill="#005daa"/>
  <polygon points="234.008 .817 268.894 .817 268.894 1.336 234.008 1.336 234.008 .817 234.008 .817" fill="#005daa"/>
  <polygon points="234.008 58.783 268.894 58.783 268.894 67.089 234.008 67.089 234.008 58.783 234.008 58.783" fill="#005daa"/>
  <polygon points="234.013 41.205 252.285 41.205 252.285 45.981 234.013 45.981 234.013 41.205 234.013 41.205" fill="#005daa"/>
  <polygon points="234.008 49.231 252.249 49.231 252.249 50.35 268.894 50.348 268.894 55.668 234.008 55.668 234.008 49.231 234.008 49.231" fill="#005daa"/>
  <polygon points="336.109 58.783 355.006 58.783 355.006 67.089 336.109 67.089 336.109 58.783 336.109 58.783" fill="#005daa"/>
  <polygon points="336.109 41.205 355.006 41.205 355.006 45.981 336.109 45.981 336.109 41.205 336.109 41.205" fill="#005daa"/>
  <polygon points="336.109 21.863 355.006 21.863 355.006 24.251 336.109 24.251 336.109 21.863 336.109 21.863" fill="#005daa"/>
  <polygon points="336.109 17.046 355.006 17.046 355.006 19.018 336.109 19.018 336.109 17.046 336.109 17.046" fill="#005daa"/>
  <polygon points="336.109 33.865 355.006 33.865 355.006 38.018 336.109 38.018 336.109 33.865 336.109 33.865" fill="#005daa"/>
  <polygon points="336.109 27.428 355.006 27.428 355.006 30.542 336.109 30.542 336.109 27.428 336.109 27.428" fill="#005daa"/>
  <polygon points="336.109 49.231 355.005 49.231 355.006 55.668 336.109 55.668 336.109 49.231 336.109 49.231" fill="#005daa"/>
  <polygon points="369.105 58.783 387.378 58.783 387.378 67.089 369.105 67.089 369.105 58.783 369.105 58.783" fill="#005daa"/>
  <polygon points="369.105 41.205 387.378 41.205 387.378 45.981 369.105 45.981 369.105 41.205 369.105 41.205" fill="#005daa"/>
  <polygon points="369.105 21.863 387.378 21.863 387.378 24.251 369.105 24.251 369.105 21.863 369.105 21.863" fill="#005daa"/>
  <polygon points="369.105 17.046 387.378 17.046 387.378 19.018 369.105 19.018 369.105 17.046 369.105 17.046" fill="#005daa"/>
  <polygon points="369.105 33.865 387.378 33.865 387.378 38.018 369.105 38.018 369.105 33.865 369.105 33.865" fill="#005daa"/>
  <polygon points="369.105 27.428 387.378 27.428 387.378 30.542 369.105 30.542 369.105 27.428 369.105 27.428" fill="#005daa"/>
  <polygon points="369.105 49.231 387.377 49.231 387.378 55.668 369.105 55.668 369.105 49.231 369.105 49.231" fill="#005daa"/>
  <path d="M390.636,58.7v5.781s4.181,3.009,13.883,2.805c8.788-.184,14.065-4.069,17.233-8.586h-31.116Z" fill="#005daa"/>
  <polygon points="393.201 46.077 390.636 43.954 390.636 46.077 393.201 46.077 393.201 46.077" fill="#005daa"/>
  <path d="M423.532,55.698c1.158-2.322,1.866-4.638,2.299-6.56h-18.493c-1.194,1.781-4.108,3.541-7.671,2.247-1.202-.437-2.354-1.907-2.354-1.907l-.413-.34h-6.265v6.56h32.896Z" fill="#005daa"/>
  <path d="M405.975,41.178c1.199,1.476,1.984,3.056,2.061,4.899h18.325c.125-1.048,.142-1.675,.142-1.675,.064-1.131,.02-2.204-.116-3.225h-20.411Z" fill="#005daa"/>
  <path d="M425.623,38c-.53-1.514-1.268-2.896-2.137-4.169h-25.658c1.646,1.493,3.371,2.838,4.924,4.169h22.871Z" fill="#005daa"/>
  <path d="M420.856,30.623c-1.142-1.194-2.358-2.282-3.555-3.294h-24.754c.613,1.195,1.358,2.284,2.184,3.294h26.124Z" fill="#005daa"/>
  <path d="M413.644,24.297c-.808-.686-1.537-1.346-2.144-1.991l-.453-.486h-20.167c.1,.87,.263,1.694,.479,2.478h22.284Z" fill="#005daa"/>
  <path d="M409.04,19.02c-.12-.404-.095-.735-.118-1.197-.012-.321,.027-.612,.103-.873h-18.074c-.082,.65-.139,1.389-.168,2.068h18.257Z" fill="#005daa"/>
  <path d="M420.662,16.95c.879,.692,1.643,1.432,2.244,2.069h1.406l-.037-2.069h-3.613Z" fill="#005daa"/>
  <path d="M424.231,14.442l-.031-1.75h-32.319c-.179,.569-.338,1.153-.479,1.75h32.829Z" fill="#005daa"/>
  <path d="M424.021,1.323c-.004-.376-.002-.584,0-.584h-24.695l-.571,.584h25.266Z" fill="#005daa"/>
  <path d="M424.076,5.374l-.018-1.136h-27.773c-.272,.363-.546,.742-.813,1.136h28.604Z" fill="#005daa"/>
  <path d="M424.151,9.923l-.024-1.458h-30.503c-.243,.471-.477,.957-.698,1.458h31.226Z" fill="#005daa"/>
  <polygon points="369.105 .817 387.378 .817 387.378 1.336 369.105 1.336 369.105 .817 369.105 .817" fill="#005daa"/>
  <polygon points="369.105 12.768 387.378 12.768 387.378 14.429 369.105 14.429 369.105 12.768 369.105 12.768" fill="#005daa"/>
  <polygon points="369.105 8.511 387.378 8.511 387.378 9.881 369.105 9.881 369.105 8.511 369.105 8.511" fill="#005daa"/>
  <polygon points="369.105 4.306 387.378 4.306 387.378 5.344 369.105 5.344 369.105 4.306 369.105 4.306" fill="#005daa"/>
  <polygon points="326.143 .817 365.595 .817 365.595 1.336 326.143 1.336 326.143 .817 326.143 .817" fill="#005daa"/>
  <polygon points="326.143 12.768 365.595 12.768 365.595 14.429 326.143 14.429 326.143 12.768 326.143 12.768" fill="#005daa"/>
  <polygon points="326.143 8.511 365.595 8.511 365.595 9.881 326.143 9.881 326.143 8.511 326.143 8.511" fill="#005daa"/>
  <polygon points="326.143 4.306 365.595 4.306 365.595 5.344 326.143 5.344 326.143 4.306 326.143 4.306" fill="#005daa"/>
  <path d="M205.411,55.626h-22.801c-.915-1.702-1.373-3.809-1.469-6.372h19.692c.978,.991,2.015,2.198,4.579,2.105,2.563,.093,3.784-1.114,4.761-2.105h18.317c-.096,2.563-.553,4.67-1.468,6.372h-21.61Z" fill="#005daa"/>
</svg>