<?xml version="1.0" encoding="UTF-8" standalone="no"?><svg viewBox="0 0 672 144" xmlns="http://www.w3.org/2000/svg" fill-rule="evenodd" clip-rule="evenodd" stroke-linejoin="round" stroke-miterlimit="2"><g transform="translate(-59.18 -51.36)" fill="#0098db"><path d="M263.869 107.997C263.015 108.782 262.512 109.5 261.299 111.427L261.439 105.282C259.221 105.494 257.006 105.567 254.791 105.567L247.857 105.567 247.857 107.285 254.003 107.285 254.075 114.075 254.075 132.375 254.003 138.384 247.857 138.384 247.857 140.099 266.73 140.099 266.73 138.384 261.224 138.384 261.157 132.375 261.157 123.651C261.224 118.933 261.224 112.003 265.73 108.857 267.73 107.5 269.733 107.354 270.587 107.354 271.517 107.354 272.663 107.566 273.448 107.997 274.881 108.857 275.881 110.433 276.166 113.718 276.239 115.291 276.239 116.933 276.239 118.506L276.239 132.375 276.166 138.384 270.521 138.384 270.521 140.099 289.035 140.099 289.035 138.384 283.32 138.384 283.241 132.375 283.241 123.796C283.387 119.078 283.532 113.503 287.25 109.93 289.538 107.785 291.896 107.566 293.108 107.566 293.68 107.566 295.183 107.5 296.395 108.57 298.541 110.291 298.541 114.363 298.541 116.724 298.62 121.939 298.471 127.16 298.402 132.305L298.332 138.384 292.75 138.384 292.75 140.099 311.413 140.099 311.413 138.384 305.55 138.384 305.477 132.375 305.689 115.864C305.689 114.148 305.62 112.288 305.12 110.576 304.477 108.712 303.55 107.712 302.905 107.139 300.335 104.709 296.829 104.782 295.829 104.782 293.541 104.782 288.75 104.997 285.035 109.715 284.602 110.291 284.105 111.073 283.32 112.503 282.814 110.433 282.532 109.573 281.884 108.639 279.311 104.782 274.663 104.639 273.305 104.639 272.02 104.639 267.302 104.851 263.869 107.997zM320.274 111.357C317.059 116.079 316.986 120.651 316.986 122.724 316.986 130.66 319.989 134.732 322.565 137.03 325.783 139.881 329.21 140.814 333.428 140.814 335.934 140.814 341.867 140.814 346.085 134.951 347.231 133.378 347.8 131.948 348.585 130.166L346.731 129.518C345.946 131.663 345.658 132.233 344.94 133.236 343.937 134.732 340.94 138.669 335.431 138.669 334.219 138.669 330.001 138.311 327.567 134.732 324.925 130.799 324.992 125.015 324.992 120.581L348.731 120.581C348.658 119.721 348.585 117.295 347.731 114.791 345.658 108.57 340.082 104.712 333.504 104.712 331.067 104.712 324.422 105.351 320.274 111.357zM328.786 107.927C330.425 106.639 331.998 106.57 332.789 106.57 333.931 106.57 335.007 106.854 336.007 107.358 340.01 109.43 340.152 114.791 340.225 118.506L325.068 118.582C325.356 115.075 325.64 110.291 328.786 107.927zM357.667 96.13L357.524 105.57 352.018 105.57 352.018 107.57 357.524 107.57 357.382 131.875C357.382 132.163 357.236 134.663 357.882 136.308 359.024 139.669 362.385 140.526 365.53 140.526 366.964 140.526 370.891 140.599 373.387 137.023 373.827 136.451 374.178 135.884 374.824 134.52L373.324 133.808C373.036 134.378 371.606 138.023 368.245 138.023 367.457 138.023 366.745 137.811 366.1 137.381 364.318 136.027 364.318 133.381 364.318 131.375L364.388 107.57 371.966 107.57 371.966 105.57 364.388 105.57 364.53 96.13 357.667 96.13zM381.618 111.357C378.4 116.079 378.327 120.651 378.327 122.724 378.327 130.66 381.333 134.732 383.909 137.03 387.127 139.881 390.557 140.814 394.772 140.814 397.272 140.814 403.211 140.814 407.433 134.951 408.572 133.378 409.144 131.948 409.929 130.166L408.069 129.518C407.287 131.663 406.996 132.233 406.281 133.236 405.281 134.732 402.278 138.669 396.775 138.669 395.56 138.669 391.345 138.311 388.908 134.732 386.269 130.799 386.339 125.015 386.339 120.581L410.075 120.581C409.999 119.721 409.929 117.295 409.069 114.791 406.996 108.57 401.423 104.712 394.845 104.712 392.415 104.712 385.763 105.351 381.618 111.357zM390.124 107.927C391.769 106.639 393.345 106.57 394.136 106.57 395.272 106.57 396.345 106.854 397.348 107.358 401.348 109.43 401.496 114.791 401.566 118.506L386.412 118.582C386.697 115.075 386.981 110.291 390.124 107.927zM432.377 104.567C428.017 104.567 423.299 106.427 420.296 109.715 418.438 111.784 415.723 116.079 415.723 122.942 415.723 126.303 416.359 128.514 416.793 129.73 418.438 134.378 422.014 138.311 426.805 139.954 427.662 140.242 429.517 140.741 432.023 140.741 440.022 140.741 444.104 135.735 445.677 133.378 448.392 129.018 448.537 124.515 448.537 122.724 448.537 115.93 445.604 108.997 439.168 105.997 436.611 104.81 434.33 104.551 432.934 104.551 432.728 104.551 432.542 104.557 432.377 104.567zM424.659 132.948C423.802 129.587 423.802 123.296 423.802 123.151 423.802 120.869 423.938 117.29 424.229 115.004 425.156 108.07 428.662 106.427 432.092 106.354 433.092 106.354 436.665 106.427 438.598 109.427 439.959 111.569 440.098 114.645 440.168 115.218 440.453 117.721 440.529 120.297 440.529 122.793 440.529 127.514 440.244 131.305 439.813 133.024 438.383 138.45 434.307 138.881 432.162 138.881 426.59 138.881 425.156 134.881 424.659 132.948zM484.494 106.854C476.2 111.139 475.7 120.363 475.7 123.012 475.7 132.733 481.921 140.741 492.142 140.741 499.651 140.741 503.369 136.596 504.942 134.163 505.942 132.666 506.657 130.733 507.3 129.021L505.584 128.518C505.512 128.875 504.872 130.878 504.009 132.451 503.012 134.163 499.936 138.523 493.857 138.523 488.282 138.523 485.497 134.59 484.282 129.66 483.636 126.803 483.636 123.512 483.636 122.727 483.636 116.36 484.64 112.364 486.285 110.069 488.282 107.139 491.361 106.778 492.576 106.778 493.649 106.778 497.079 107.07 498.506 110.354 499.009 111.718 499.009 113.218 499.009 113.718 499.009 115.075 498.867 116.933 500.148 117.86 500.936 118.436 502.082 118.436 502.369 118.436 504.515 118.509 505.512 117.151 505.872 116.437 506.088 115.933 506.157 115.437 506.157 114.863 506.157 112.145 504.161 109.715 503.73 109.285 503.512 108.927 503.227 108.715 502.869 108.43 499.151 105.136 493.936 104.924 492.576 104.924 491.145 104.924 487.927 104.994 484.494 106.854zM529.535 104.567C525.178 104.567 520.456 106.427 517.453 109.715 515.59 111.784 512.875 116.079 512.875 122.942 512.875 126.303 513.521 128.514 513.953 129.73 515.59 134.378 519.169 138.311 523.963 139.954 524.817 140.242 526.678 140.741 529.178 140.741 537.187 140.741 541.263 135.735 542.838 133.378 545.55 129.018 545.689 124.515 545.689 122.724 545.689 115.93 542.759 108.997 536.329 105.997 533.773 104.81 531.488 104.551 530.089 104.551 529.884 104.551 529.697 104.557 529.535 104.567zM521.81 132.948C520.96 129.587 520.96 123.296 520.96 123.151 520.96 120.869 521.106 117.29 521.383 115.004 522.314 108.07 525.817 106.427 529.251 106.354 530.251 106.354 533.823 106.427 535.757 109.427 537.111 111.569 537.26 114.645 537.329 115.218 537.617 117.721 537.69 120.297 537.69 122.793 537.69 127.514 537.399 131.305 536.968 133.024 535.541 138.45 531.466 138.881 529.32 138.881 523.748 138.881 522.314 134.881 521.81 132.948zM577.01 104.997C571.577 104.997 568.428 107.351 566.925 109.073 566.21 109.788 565.28 111.142 564.71 112.003L564.856 105.282C562.568 105.427 560.274 105.57 557.992 105.57L551.271 105.57 551.271 107.285 557.493 107.285 557.559 113.576 557.559 132.805 557.493 138.384 551.271 138.384 551.271 140.099 570.432 140.099 570.432 138.384 564.568 138.384 564.422 132.805 564.422 123.372C564.568 119.363 564.71 115.148 567.141 111.718 567.783 110.788 570.286 107.427 574.365 107.427 578.944 107.427 579.434 111.503 579.51 115.006 579.51 116.575 579.58 118.148 579.58 119.724L579.58 132.805 579.434 138.384 573.795 138.384 573.795 140.099 592.307 140.099 592.307 138.384 586.731 138.384 586.658 132.805 586.658 121.651C586.877 115.148 587.022 111.645 585.304 108.854 583.092 105.067 578.497 104.997 577.146 104.997L577.01 104.997zM601.312 96.13L601.173 105.57 595.667 105.57 595.667 107.57 601.173 107.57 601.031 131.875C601.031 132.163 600.888 134.663 601.528 136.308 602.673 139.669 606.03 140.526 609.185 140.526 610.609 140.526 614.543 140.599 617.046 137.023 617.473 136.451 617.83 135.884 618.47 134.52L616.973 133.808C616.688 134.378 615.251 138.023 611.897 138.023 611.109 138.023 610.397 137.811 609.752 137.381 607.964 136.027 607.964 133.381 607.964 131.375L608.037 107.57 615.612 107.57 615.612 105.57 608.037 105.57 608.179 96.13 601.312 96.13zM634.491 110.573C633.988 111.503 633.481 112.5 632.984 113.503L633.13 105.282C630.912 105.43 628.697 105.573 626.482 105.573L619.903 105.573 619.903 107.285 625.839 107.285 625.979 113.221 625.979 132.375 625.839 138.381 619.903 138.381 619.903 140.102 639.06 140.102 639.06 138.381 632.984 138.381 632.845 132.375 632.845 127.015C632.984 121.942 633.06 117.006 635.418 112.436 636.991 109.357 638.994 107.351 640.493 107.285 640.918 107.285 641.205 107.427 641.354 107.497 642.421 107.933 642.354 109.073 642.354 109.427 642.354 110.5 642.066 111.569 642.066 112.645 641.997 115.648 644.569 116.366 645.572 116.366 647.287 116.366 649.284 115.291 649.284 111.645 649.284 110.718 649.002 106.854 645.639 105.43 644.427 104.855 643.281 104.855 642.778 104.855 640.209 104.855 637.136 105.855 634.491 110.573zM670.017 104.567C665.656 104.567 660.942 106.427 657.942 109.715 656.078 111.784 653.36 116.079 653.36 122.942 653.36 126.303 654.005 128.514 654.436 129.73 656.078 134.378 659.657 138.311 664.441 139.954 665.302 140.242 667.156 140.741 669.666 140.741 677.665 140.741 681.741 135.735 683.317 133.378 686.035 129.018 686.177 124.515 686.177 122.724 686.177 115.93 683.247 108.997 676.811 105.997 674.257 104.81 671.969 104.551 670.577 104.551 670.368 104.551 670.185 104.557 670.017 104.567zM662.299 132.948C661.441 129.587 661.441 123.296 661.441 123.151 661.441 120.869 661.581 117.29 661.872 115.004 662.799 108.07 666.299 106.427 669.732 106.354 670.738 106.354 674.311 106.427 676.241 109.427 677.599 111.569 677.744 114.645 677.811 115.218 678.099 117.721 678.171 120.297 678.171 122.793 678.171 127.514 677.883 131.305 677.456 133.024 676.029 138.45 671.947 138.881 669.805 138.881 664.226 138.881 662.799 134.881 662.299 132.948zM698.828 89.628L691.822 89.628 691.822 91.267 698.044 91.267 698.113 97.276 698.113 131.733 698.044 138.384 691.822 138.384 691.822 140.102 710.84 140.102 710.84 138.384 705.265 138.384 705.192 131.733 705.192 97.276 705.265 89.267C703.122 89.485 700.977 89.555 698.828 89.628z" fill-rule="nonzero"/><rect x="234.05" y="103.46" width="1.9" height="91.33"/><rect x="461.48" y="51.36" width="1.89" height="91.33"/><rect x="728.68" y="67.53" width="1.9" height="91.34"/><rect x="69.36" y="112.88" width="11.58" height="6"/><rect x="105.62" y="112.88" width="11.46" height="6"/><path d="M105.613 103.307L105.617 104.06 105.617 109.307 117.201 109.307C117.29 107.326 117.448 105.307 117.727 103.307L105.613 103.307zM69.353 103.307L69.353 109.307 80.992 109.307C81.045 107.389 81.134 105.348 81.356 103.307L69.353 103.307zM85.384 86.865C83.976 88.156 83.159 89.324 81.172 92.482L81.403 82.422C77.777 82.774 74.153 82.891 70.524 82.891L59.18 82.891 59.18 85.694 69.236 85.694 69.353 96.808 69.353 99.731 81.903 99.731C82.814 95.165 84.646 90.906 88.425 88.273 91.7 86.049 94.969 85.811 96.374 85.811 97.899 85.811 99.772 86.166 101.06 86.865 103.395 88.273 105.034 90.843 105.5 96.222 105.553 97.377 105.575 98.554 105.594 99.731L118.404 99.731C119.296 96.105 120.834 92.713 123.634 90.026 127.375 86.514 131.238 86.166 133.226 86.166 134.159 86.166 136.871 86.049 138.858 87.799 141.978 90.292 143.725 95.817 144.089 99.731L157.955 99.731C158.692 95.52 159.876 92.406 161.42 90.261 164.692 85.46 169.723 84.878 171.714 84.878 173.47 84.878 179.08 85.349 181.419 90.726 182.238 92.95 182.238 95.406 182.238 96.222 182.238 98.45 182.007 101.488 184.112 103.01 185.396 103.946 187.273 103.946 187.738 103.946 191.247 104.06 192.886 101.842 193.472 100.668 193.82 99.852 193.937 99.029 193.937 98.096 193.937 93.653 190.659 89.672 189.962 88.97 189.608 88.39 189.143 88.036 188.554 87.565 182.472 82.191 173.932 81.837 171.714 81.837 169.375 81.837 164.11 81.954 158.493 84.995 156.227 86.166 154.348 87.577 152.737 89.109 151.614 87.378 150.247 86.118 149.506 85.46 145.294 81.483 139.311 81.6 137.665 81.6 133.928 81.6 126.09 81.954 120.005 89.672 119.306 90.609 118.486 91.897 117.198 94.238 116.379 90.843 115.91 89.441 114.857 87.919 110.645 81.6 103.044 81.369 100.823 81.369 98.718 81.369 90.991 81.72 85.384 86.865zM144.158 103.307C144.158 105.506 144.155 107.421 144.155 109.307L157.126 109.307C157.161 107.127 157.281 105.139 157.474 103.307L144.158 103.307zM144.187 112.883C144.275 114.939 144.497 116.952 144.918 118.876L157.553 118.876C157.262 116.594 157.154 114.42 157.113 112.883L144.187 112.883zM69.356 122.455L69.356 126.755 69.236 136.58 59.18 136.58 59.18 139.39 90.061 139.39 90.061 136.58 81.055 136.58 80.935 126.755 80.935 122.455 69.356 122.455zM105.62 122.455L105.62 126.755 105.5 136.58 96.263 136.58 96.263 139.39 117.344 139.39 117.344 136.58 117.198 136.58 117.084 126.755 117.084 122.455 105.62 122.455zM190.431 126.875C188.792 129.682 183.76 136.815 173.818 136.815 164.749 136.815 160.189 130.461 158.183 122.455L145.892 122.455C149.49 132.964 158.376 140.444 171.011 140.444 183.292 140.444 189.377 133.657 191.95 129.682 193.589 127.22 194.756 124.065 195.81 121.255L193.003 120.442C192.886 121.021 191.833 124.3 190.431 126.875z" fill-rule="nonzero"/></g></svg>