<?xml version="1.0" encoding="UTF-8"?>
<svg xmlns="http://www.w3.org/2000/svg" version="1.1" viewBox="0 0 320 132">
  <defs>
    <style>
      .cls-1 {
        font-family: MyriadPro-Regular, 'Myriad Pro';
        font-size: 12px;
      }

      .cls-2 {
        fill: #1d1d1b;
      }
    </style>
  </defs>
  <!-- Generator: Adobe Illustrator 28.7.1, SVG Export Plug-In . SVG Version: 1.2.0 Build 142)  -->
  <g>
    <g id="Layer_1">
      <g>
        <path class="cls-2" d="M105.8,20.8h-.2s.6,3.9.6,3.9h.2c2.1-.3,4.3-.4,6.4-.1h.2l.3-3.9h-.2c-2.5-.2-4.9-.2-7.4.1Z"/>
        <path class="cls-2" d="M66.7,110l-.9-1.1c-4.6-5.9-11-13.9-14.5-16.6-1.4-.9-3.5-1.2-5.8-1.4h0c-1.6-.1-3.2-.3-4.3-.7-2.6-1-5.1-1.9-8.1-2.9h-.4c0-.1.2.2.2.2.9,1.6,2,3.3,3.1,4.9h0s.1,0,.1,0c1.2.4,2.4.9,3.7,1.4,1.5.6,3.2.7,4.9.9h.4c1.5.2,3.4.3,3.9.7,2.9,2.2,8.6,9.4,13.2,15.2l1.4,1.8h0c1.4,1.7,3.2,2.9,5.3,3.5,1.2.3,2.4.6,3.9.9h.6c0,.1-.5-.3-.5-.3-2.3-2-4.4-4.3-6.3-6.6Z"/>
        <path class="cls-2" d="M67.1,57.1c2.1,0,4.4-.9,6.8-2.7,2.1-1.7,4.1-3.5,6-5.4,3.4-3.4,6.7-6.6,10.9-7.9,1.2-.4,2.5-.5,3.8-.3h.2s.8-3.8.8-3.8h-.2c-1.9-.4-3.8-.2-5.7.4-5.2,1.5-8.9,5.2-12.5,8.8-1.7,1.8-3.6,3.5-5.5,5-2,1.5-3.7,2.2-5,1.9h-.2s-.7,3.8-.7,3.8h.2c.4,0,.9.1,1.3.1Z"/>
        <path class="cls-2" d="M67,73.7c1.4-3.8,4.5-6.7,7.8-9.7h0c3.2-2.9,6.4-5.8,8.4-9.8h0c0-.1-3.5-1.9-3.5-1.9v.2c-1.7,3.3-4.5,5.9-7.5,8.6l-.2.2c-3.5,3.2-7.2,6.5-8.8,11.2v.2c0,0,3.6,1.3,3.6,1.3v-.2Z"/>
        <path class="cls-2" d="M45.8,79.6c8.9,0,16.1-9.3,16.1-20.7s-4.8-17.4-11.7-19.9c-1.7-.4-3.6,0-5,1-1.1.8-2.4,2.5-2.2,5.7.1,2.2.4,4.5.9,6.7,1.2,6.8,2.4,13.2-.9,19.1h0c0,.1,3.4,2,3.4,2h0c4-7.2,2.6-14.7,1.3-21.8-.4-2.1-.7-4.1-.8-6.2,0-1.1.1-1.9.6-2.2.5-.3,1-.5,1.6-.5,5.3,2,9,8.7,9,16.2s-5.5,16.8-12.3,16.8-12.3-7.6-12.3-16.8,3.8-14.3,9.2-16.3h.2c0,0-1.3-3.7-1.3-3.7h-.2c-6.9,2.6-11.7,10.7-11.7,20s7.3,20.7,16.2,20.7Z"/>
        <path class="cls-2" d="M142.4,70.5c-1.3.6-2.5,1.2-3.7,1.7-1.5.7-3,1.4-4.9,2.3,1.9-9.4,4.4-21.7,5.3-27.9,1.1-7.4-.9-15.5-5.2-21.2-1.6-2-3.5-3.8-5.6-5.3h11.1v-3.9h-19c-5.6-1.3-10.1-1.5-14.3-.9h-.3c-2.2.9-4.1,2.1-5.8,3.8-7.8,1.2-13.3,3.9-16,7.8-1.6,2.3-2,5.1-1.3,7.8v.6c.1,0,2.8,2.5,2.8,2.5l1.3-1.5c1.8-2,6.9-3.5,15.5-.8-3.4,4.4-9.6,9-12.8,9.4h-.1l-.3,3.7h.1c5.8,1.6,13.6,1.2,20.8-1.1.2.8.3,1.7,0,2.5l-1.3,1.1c-17.3,15.4-27.3,31.3-30.5,48.5-4.2-2.1-8.3-4.6-12.2-7.3-.7-.4-1.3-.9-1.8-1.6-.7-1.2-.8-4.6-.4-6.2l.6-2.4h-17.9l-17.8-2.9v.3c.6,1.3,1.2,2.6,1.8,3.8h0c0,0,15.7,2.7,15.7,2.7h13.5c-.1,2.2.1,5.1,1.2,6.8.8,1.1,1.7,2.1,2.9,2.8,4.9,3.3,7,4.7,13.8,8.1-.2,1.3-.3,3.1-.3,3.9v.2h3.9v-.2c0-.8.2-3.3.4-4.5,2.5-17.3,12.2-33.4,29.7-49l1.5-1.3c1.4-1.2,1.3-3.9,1.2-4.4,0-1.3-.5-3.7-2.4-4.8l-1.6-.2h0c-4.2,1.5-8.5,2.3-13,2.3h-.3c3.6-2.4,6.7-5.4,9.2-8.8.6.3,1.2.5,1.7.8h.2c0,0,1.8-3.3,1.8-3.3h-.2c-5.7-3-16.9-6.2-23.3-2.5,0-1,.4-1.9.9-2.7,2.1-3.1,7-5.3,13.9-6.3h.6c0,0,.5-.5.5-.5,1.6-1.6,3.2-2.7,4.6-3.2,3.6-.5,7.7-.2,13.3,1.1,3.6.8,8.3,4.5,10.6,7.5,3.7,4.8,5.5,12,4.5,18.3-1.3,8.3-5.4,28-5.9,30.6-14.8,7.2-27.3,14.2-30.3,26.9v.2s3.7.9,3.7.9v-.2c3-12.5,17.5-19.3,37.5-28.7l.5-.2c1.2-.6,2.5-1.2,3.8-1.8h0c.4-1.7.8-3.1,1.1-4.5v-.3c0,0-.2.1-.2.1l-3.1,1.5Z"/>
        <path class="cls-2" d="M178,24.7c-.9-.9-2-1.7-3.2-2.2-1.3-.5-2.7-.8-4.1-.8-1.4,0-2.8.3-4.1.8-2.5,1-4.5,3-5.5,5.6-.5,1.4-.8,2.8-.8,4.3,0,1.4.2,2.9.8,4.2.5,1.2,1.2,2.4,2.1,3.4.9.9,2,1.7,3.3,2.2,1.3.5,2.7.8,4.1.8,1.4,0,2.8-.3,4.1-.8,2.5-1,4.5-3,5.5-5.6.5-1.3.8-2.8.8-4.2,0-1.5-.2-2.9-.8-4.3-.5-1.2-1.2-2.4-2.1-3.3ZM176.7,35.2c-.3.9-.8,1.7-1.4,2.4-.6.7-1.3,1.2-2.1,1.6-.8.4-1.7.6-2.7.6-1.8,0-3.6-.8-4.8-2.1-.6-.7-1.1-1.5-1.4-2.4-.7-1.9-.7-4,0-5.9.3-.9.8-1.7,1.4-2.4.6-.7,1.3-1.2,2.1-1.6.8-.4,1.8-.6,2.7-.6.9,0,1.8.2,2.7.6.8.4,1.5.9,2.1,1.5.6.7,1.1,1.5,1.4,2.4.6,1.9.6,4,0,5.9h0Z"/>
        <polygon class="cls-2" points="200.5 39.3 191.5 39.3 191.5 22 188 22 188 42.5 200.5 42.5 200.5 39.3"/>
        <rect class="cls-2" x="206.7" y="22" width="3.5" height="20.5"/>
        <polygon class="cls-2" points="225.7 42.8 235.1 22 231.3 22 225.5 35.7 219.8 22 215.8 22 225.2 42.8 225.7 42.8"/>
        <path class="cls-2" d="M242.8,39.8c.9.9,2,1.7,3.3,2.2,1.3.5,2.7.8,4.1.8,1.4,0,2.8-.3,4.1-.8,2.5-1,4.5-3,5.5-5.6.5-1.3.8-2.8.8-4.2,0-1.5-.2-2.9-.8-4.3-.5-1.2-1.2-2.4-2.1-3.4-.9-.9-2-1.7-3.2-2.2-1.3-.5-2.7-.8-4.1-.8-1.4,0-2.8.3-4.1.8-2.5,1-4.5,3-5.5,5.6-.5,1.4-.8,2.8-.8,4.3,0,1.4.2,2.9.8,4.2.5,1.2,1.2,2.4,2.1,3.4ZM244.2,29.3c.3-.9.8-1.7,1.4-2.4.6-.7,1.3-1.2,2.1-1.6.8-.4,1.8-.6,2.7-.6.9,0,1.8.2,2.7.6.8.4,1.5.9,2.1,1.6.6.7,1.1,1.5,1.4,2.4.6,1.9.6,4,0,5.9-.3.9-.8,1.7-1.4,2.4-.6.7-1.3,1.2-2.1,1.6-.8.4-1.7.6-2.7.6-1.8,0-3.6-.8-4.8-2.1-.6-.7-1.1-1.5-1.4-2.4-.7-1.9-.7-4,0-5.9Z"/>
        <path class="cls-2" d="M174.2,69.7c-.9.3-1.9.4-2.8.4-1,0-2.1-.2-3-.5-.9-.3-1.7-.8-2.3-1.5-.6-.7-1.1-1.4-1.5-2.3-.4-.9-.5-2-.5-3,0-1,.2-2,.5-3,.3-.9.8-1.7,1.4-2.3.6-.7,1.4-1.2,2.3-1.5,1-.4,2-.5,3-.5.9,0,1.9.2,2.8.4.9.3,1.8.7,2.7,1.1l1.2-3c-.9-.6-1.9-1-3-1.4-2.6-.8-5.5-.7-8,.3-1.3.5-2.5,1.3-3.5,2.2-1,1-1.8,2.1-2.3,3.4-.6,1.3-.8,2.8-.8,4.2,0,1.4.3,2.9.8,4.2.5,1.3,1.3,2.4,2.3,3.3,1,1,2.2,1.7,3.5,2.2,1.4.5,2.9.8,4.5.8,1.2,0,2.5-.2,3.7-.6,1.1-.3,2.1-.8,3-1.4l-1.1-3c-.9.5-1.8.9-2.8,1.2Z"/>
        <path class="cls-2" d="M201.4,55.2c-.9-.9-2-1.7-3.2-2.2-1.3-.5-2.7-.8-4.1-.8-1.4,0-2.8.3-4.1.8-2.5,1-4.5,3-5.5,5.6-.5,1.4-.8,2.8-.8,4.3,0,1.4.2,2.9.8,4.2.5,1.3,1.2,2.4,2.1,3.4.9.9,2,1.7,3.3,2.2,1.3.5,2.7.8,4.1.8,1.4,0,2.8-.3,4.1-.8,2.5-1,4.5-3,5.5-5.6.5-1.3.8-2.8.8-4.2,0-1.5-.2-2.9-.8-4.3-.5-1.2-1.2-2.4-2.1-3.4ZM200.1,65.8c-.3.9-.8,1.7-1.4,2.4-.6.7-1.3,1.2-2.1,1.6-.8.4-1.7.6-2.7.6-.9,0-1.8-.2-2.7-.6-.8-.4-1.5-.9-2.1-1.6-.6-.7-1.1-1.5-1.4-2.4-.7-1.9-.7-4,0-5.9.3-.9.8-1.7,1.4-2.4.6-.7,1.3-1.2,2.1-1.6.8-.4,1.8-.6,2.7-.6.9,0,1.8.2,2.7.6.8.4,1.5.9,2.1,1.6.6.7,1.1,1.5,1.4,2.4.6,1.9.6,4,0,5.9Z"/>
        <polygon class="cls-2" points="214.9 64.8 222.8 64.8 222.8 61.7 214.9 61.7 214.9 55.8 223.9 55.8 223.9 52.6 211.4 52.6 211.4 73.1 214.9 73.1 214.9 64.8"/>
        <polygon class="cls-2" points="242.7 55.8 242.7 52.6 230.2 52.6 230.2 73.1 233.7 73.1 233.7 64.8 241.6 64.8 241.6 61.7 233.7 61.7 233.7 55.8 242.7 55.8"/>
        <polygon class="cls-2" points="249 73.1 261.5 73.1 261.5 69.9 252.5 69.9 252.5 64.2 260.7 64.2 260.7 61.1 252.5 61.1 252.5 55.8 261.5 55.8 261.5 52.6 249 52.6 249 73.1"/>
        <polygon class="cls-2" points="268.9 73.1 281.4 73.1 281.4 69.9 272.4 69.9 272.4 64.2 280.6 64.2 280.6 61.1 272.4 61.1 272.4 55.8 281.4 55.8 281.4 52.6 268.9 52.6 268.9 73.1"/>
        <path class="cls-2" d="M174.2,100.2c-.9.3-1.9.4-2.8.4-1,0-2.1-.2-3-.5-.9-.3-1.7-.8-2.3-1.5-.6-.7-1.1-1.4-1.5-2.3-.4-.9-.5-2-.5-3,0-1,.2-2,.5-3,.3-.9.8-1.7,1.4-2.3.6-.7,1.4-1.2,2.3-1.5,1-.4,2-.5,3-.5.9,0,1.9.2,2.8.4.9.3,1.8.7,2.7,1.1l1.2-3c-.9-.6-1.9-1-3-1.3-1.2-.4-2.4-.5-3.6-.5-1.5,0-3,.3-4.4.8-1.3.5-2.5,1.3-3.5,2.2-1,1-1.8,2.1-2.3,3.4-.6,1.3-.8,2.8-.8,4.2,0,1.4.3,2.9.8,4.2.5,1.3,1.3,2.4,2.3,3.3,1,1,2.2,1.7,3.5,2.2,1.4.5,2.9.8,4.5.8,1.2,0,2.5-.2,3.7-.6,1.1-.3,2.1-.8,3-1.4l-1.1-3c-.9.5-1.8.9-2.7,1.2Z"/>
        <path class="cls-2" d="M195.9,95.5c0,1.8-.4,3.1-1.2,3.9-2,1.7-4.9,1.7-6.9,0-.8-.9-1.2-2.2-1.2-4v-12.4h-3.5v12.6c0,2.7.7,4.7,2.1,6.1s3.4,2.1,6,2.1c1.2,0,2.3-.2,3.4-.5,1-.3,1.9-.9,2.6-1.6.7-.7,1.3-1.6,1.7-2.6.4-1.1.6-2.3.6-3.5v-12.6h-3.5v12.4Z"/>
        <polygon class="cls-2" points="209 83.1 205.5 83.1 205.5 103.6 218 103.6 218 100.4 209 100.4 209 83.1"/>
        <polygon class="cls-2" points="219.7 86.3 226.2 86.3 226.2 103.6 229.7 103.6 229.7 86.3 236.2 86.3 236.2 83.1 219.7 83.1 219.7 86.3"/>
        <path class="cls-2" d="M253.7,95.5c0,1.8-.4,3.1-1.2,3.9-2,1.7-4.9,1.7-6.9,0-.8-.9-1.2-2.2-1.2-4v-12.4h-3.5v12.6c0,2.7.7,4.7,2.1,6.1,1.4,1.4,3.4,2.1,6,2.1,1.2,0,2.3-.2,3.4-.5,1-.3,1.9-.9,2.6-1.6.7-.7,1.3-1.6,1.6-2.6.4-1.1.6-2.3.6-3.5v-12.6h-3.5v12.4Z"/>
        <path class="cls-2" d="M275.2,93c.7-1.1,1.1-2.3,1-3.6,0-.9-.1-1.7-.5-2.5-.3-.8-.9-1.5-1.5-2-.8-.6-1.7-1.1-2.6-1.4-1.2-.4-2.5-.5-3.8-.5-1,0-2,0-2.9,0-.9,0-1.7.1-2.5.2v20.3h3.5v-7.4c.3,0,.7,0,1,0h1.6c.2,0,.4,0,.5,0l4.5,7.4h4.1l-5.4-8.2c1.2-.5,2.2-1.3,3-2.4ZM268,93.3c-.3,0-.7,0-1,0s-.7,0-1,0v-7c.4,0,.7-.1,1.1-.1.4,0,.8,0,1.2,0,1.1,0,2.2.3,3.1.9.7.6,1.2,1.6,1.1,2.5,0,1-.4,2.1-1.1,2.8-.8.7-1.9,1-3.4,1h0Z"/>
        <polygon class="cls-2" points="294.5 86.3 294.5 83.1 282 83.1 282 103.6 294.5 103.6 294.5 100.4 285.5 100.4 285.5 94.7 293.7 94.7 293.7 91.7 285.5 91.7 285.5 86.3 294.5 86.3"/>
      </g>
      <text class="cls-1" transform="translate(-528.1 -411)"><tspan x="0" y="0">320 x 132 </tspan></text>
      <rect x="-187.7" y="214.4" width="907.1" height="374.2"/>
    </g>
  </g>
</svg>