<?xml version="1.0" encoding="UTF-8"?>
<svg id="Layer_1" data-name="Layer 1" xmlns="http://www.w3.org/2000/svg" viewBox="0 0 130.001 44">
  <g>
    <path d="M13.615,11.168c1.02-1.267,2.162-1.788,4.025-1.788,1.689,0,3.277,.82,4.297,2.211,1.018,1.391,1.415,2.831,1.415,5.216,0,3.85-2.187,6.557-5.39,6.707-1.738,.073-3.055-.472-4.148-1.765v5.786h-5.167V9.702h4.967v1.466Zm.026,5.365c0,1.987,.794,3.055,2.26,3.055,1.516,0,2.284-1.018,2.284-2.98,0-2.111-.744-3.13-2.284-3.13-1.44,0-2.26,1.118-2.26,3.055Z" fill="#e11b22"/>
    <path d="M32.985,23.514c-1.118,3.104-2.385,4.021-5.515,4.021h-3.377v-4.097c1.516,.024,1.863,.024,2.31-.075,.523-.099,.87-.496,.87-.968,0-.273-.025-.422-.149-.721l-4.396-11.973h5.489l2.186,8.073,2.211-8.073h5.315l-4.943,13.812Z" fill="#e11b22"/>
    <path d="M48.577,14.099c-1.093-.373-1.739-.447-2.534-.322-1.688,.248-2.583,1.392-2.583,3.304v6.11h-5.165V9.702h4.942l-.024,2.111c.969-1.689,2.16-2.459,3.874-2.459,.72,0,.919,.025,1.49,.224v4.52Z" fill="#e11b22"/>
    <path d="M63.52,16.459c0,4.173-3.08,7.153-7.377,7.153-4.395,0-7.426-2.906-7.426-7.129,0-4.197,3.055-7.153,7.376-7.153,4.471,0,7.427,2.856,7.427,7.129Zm-9.637,0c0,2.285,.745,3.428,2.26,3.428,1.441,0,2.186-1.143,2.186-3.428,0-1.118-.124-1.765-.421-2.335-.373-.621-1.069-1.043-1.79-1.043-1.514,0-2.234,1.093-2.234,3.378Z" fill="#e11b22"/>
    <path d="M69.435,11.367c.546-.646,.844-.92,1.316-1.217,.745-.497,1.888-.82,2.807-.82,1.838,0,3.304,.621,4.123,1.764,.67,.894,.919,1.938,.919,3.85v8.247h-5.216v-7.551c0-1.516-.596-2.236-1.863-2.161-1.217,.074-1.887,.869-1.887,2.285v7.427h-5.167V9.702h4.968v1.665Z" fill="#e11b22"/>
    <path d="M94.263,16.459c0,4.173-3.08,7.153-7.377,7.153-4.396,0-7.426-2.906-7.426-7.129,0-4.197,3.055-7.153,7.377-7.153,4.47,0,7.426,2.856,7.426,7.129Zm-9.637,0c0,2.285,.745,3.428,2.26,3.428,1.44,0,2.187-1.143,2.187-3.428,0-1.118-.124-1.765-.423-2.335-.372-.621-1.068-1.043-1.788-1.043-1.515,0-2.235,1.093-2.235,3.378Z" fill="#e11b22"/>
    <path d="M104.217,23.19h-6.061l-4.495-13.488h5.465l2.06,8.196,2.211-8.196h5.24l-4.42,13.488Z" fill="#e11b22"/>
    <path d="M117.463,23.19c-.149-.547-.198-.771-.198-1.267-1.218,1.241-2.435,1.714-4.396,1.714-2.957,0-4.794-1.615-4.794-4.198,0-1.863,.894-3.105,2.633-3.7,.87-.298,1.59-.423,3.627-.722,1.837-.274,2.011-.298,2.358-.521,.298-.174,.448-.547,.422-.994-.049-.72-.596-1.043-1.688-1.043-1.243,0-1.715,.348-1.888,1.365h-4.844c.125-3.105,2.26-4.495,6.955-4.495,1.042,0,2.434,.174,3.378,.422,1.291,.349,2.358,1.143,2.781,2.062,.323,.721,.372,1.367,.347,3.329,0,.397-.023,.919-.023,1.54v.422c-.025,1.862-.025,1.987-.025,2.459,0,.944,.124,2.211,.248,2.707,.05,.249,.125,.397,.323,.92h-5.216Zm-.298-6.16c-.647,.397-.72,.422-2.409,.795-.944,.198-1.416,.671-1.416,1.391,0,.845,.546,1.366,1.466,1.366,.894,0,1.64-.373,2.036-1.043,.249-.373,.323-.82,.323-1.69v-.819Z" fill="#e11b22"/>
  </g>
  <g>
    <path d="M39.579,28.99c.462-1.025,1.282-1.538,2.248-1.385,.957,.146,1.452,.983,1.324,2.196-.171,1.581-1.146,2.683-2.367,2.683-.965,0-1.606-.674-1.589-1.684l-.667,3.145h-.171l1.316-6.202h.171l-.266,1.247Zm.376-.394c-.436,.59-.691,1.487-.649,2.239,.043,.846,.573,1.427,1.351,1.486,.743,.06,1.393-.333,1.837-1.094,.342-.571,.521-1.314,.479-1.99-.051-.846-.504-1.367-1.265-1.471-.666-.084-1.308,.214-1.752,.829Z" fill="#4c5c65" stroke="#4c5c65" stroke-miterlimit="10" stroke-width=".2"/>
    <path d="M44.512,29.05c.273-1.017,.949-1.495,2.018-1.435,.846,.051,1.332,.513,1.273,1.223-.017,.188-.034,.298-.119,.657l-.308,1.35-.034,.138-.026,.128c-.085,.376-.11,.521-.128,.701-.025,.238,.06,.367,.248,.367,.051,0,.145-.01,.23-.026,.018,0,.052-.009,.094-.017l-.033,.171c-.257,.051-.342,.051-.462,.025-.162-.034-.266-.231-.248-.461,.009-.155,.018-.215,.086-.522-.419,.692-.94,1.043-1.691,1.11-.872,.078-1.487-.307-1.59-.998-.094-.616,.239-1.214,.786-1.437,.273-.109,.556-.171,.999-.205,.061-.007,.12-.007,.188-.007l.196-.019,.197-.008,.188-.01c.513-.025,.786-.085,.966-.195,.162-.103,.282-.445,.282-.821,0-.632-.428-.973-1.223-.973-.965,0-1.452,.366-1.708,1.264h-.181Zm2.957,.606c-.145,.137-.248,.18-.496,.222-.256,.043-.29,.043-1.161,.096-.624,.042-.94,.102-1.214,.238-.385,.197-.641,.657-.606,1.11,.025,.359,.205,.658,.495,.82,.206,.111,.41,.154,.804,.154,.641,0,1.239-.341,1.632-.94,.171-.257,.324-.667,.436-1.18l.111-.521Z" fill="#4c5c65" stroke="#4c5c65" stroke-miterlimit="10" stroke-width=".2"/>
    <path d="M52.174,29.084c.008-.025,.008-.052,.008-.06,.085-.777-.385-1.231-1.265-1.231-.555,0-.786,.053-1.06,.248-.273,.197-.41,.479-.393,.82,.025,.48,.222,.649,1.204,1,.514,.189,.727,.282,.898,.402,.239,.179,.376,.384,.435,.658,.094,.461-.119,.965-.529,1.229-.367,.247-.872,.35-1.461,.3-.966-.086-1.461-.65-1.367-1.565,0-.024,.008-.067,.017-.12h.18c-.026,.223-.026,.359-.009,.521,.068,.582,.513,.94,1.257,1,1.084,.086,1.862-.478,1.742-1.273-.068-.453-.299-.642-1.205-.956-.632-.231-.785-.29-.981-.445-.223-.17-.343-.4-.359-.709-.026-.409,.146-.769,.444-.982,.324-.222,.606-.291,1.247-.291,.453,0,.897,.172,1.137,.436,.205,.23,.291,.555,.256,.932,0,.017-.008,.051-.008,.085h-.188Z" fill="#4c5c65" stroke="#4c5c65" stroke-miterlimit="10" stroke-width=".2"/>
    <path d="M56.456,29.084c.008-.025,.008-.052,.008-.06,.086-.777-.385-1.231-1.265-1.231-.555,0-.786,.053-1.06,.248-.273,.197-.41,.479-.392,.82,.025,.48,.222,.649,1.205,1,.513,.189,.726,.282,.896,.402,.239,.179,.376,.384,.437,.658,.094,.461-.12,.965-.53,1.229-.367,.247-.872,.35-1.461,.3-.966-.086-1.461-.65-1.367-1.565,0-.024,.009-.067,.017-.12h.18c-.025,.223-.025,.359-.009,.521,.069,.582,.514,.94,1.257,1,1.085,.086,1.862-.478,1.743-1.273-.068-.453-.3-.642-1.205-.956-.633-.231-.786-.29-.982-.445-.223-.17-.342-.4-.359-.709-.025-.409,.145-.769,.444-.982,.324-.222,.607-.291,1.247-.291,.454,0,.897,.172,1.137,.436,.205,.23,.291,.555,.257,.932,0,.017-.009,.051-.009,.085h-.188Z" fill="#4c5c65" stroke="#4c5c65" stroke-miterlimit="10" stroke-width=".2"/>
    <path d="M57.407,32.331h-.171l.975-4.588h.171l-.975,4.588Zm1.18-5.52h-.18l.196-.915h.171l-.188,.915Z" fill="#4c5c65" stroke="#4c5c65" stroke-miterlimit="10" stroke-width=".2"/>
    <path d="M62.819,28.161c.222,.273,.385,.726,.385,1.085,0,2.034-1.068,3.357-2.606,3.212-.871-.084-1.428-.641-1.521-1.528-.104-.939,.222-2.008,.785-2.623,.471-.504,1.111-.752,1.829-.692,.453,.034,.862,.239,1.128,.547Zm-2.974,.444c-.41,.572-.649,1.444-.59,2.222,.059,.863,.572,1.401,1.401,1.47,.709,.059,1.333-.248,1.761-.847,.375-.528,.606-1.357,.606-2.171,0-.442-.196-.905-.504-1.17-.222-.188-.513-.299-.88-.333-.701-.068-1.366,.239-1.794,.829Z" fill="#4c5c65" stroke="#4c5c65" stroke-miterlimit="10" stroke-width=".2"/>
    <path d="M64.81,28.837c.248-.41,.428-.625,.701-.829,.419-.308,.991-.445,1.504-.359,.667,.111,1.085,.606,1.043,1.231-.018,.213-.06,.461-.145,.889l-.547,2.562h-.171l.555-2.641c.043-.188,.111-.59,.128-.761,.061-.58-.307-1.024-.923-1.119-.64-.094-1.247,.128-1.691,.633-.376,.418-.538,.803-.718,1.632l-.479,2.256h-.171l.974-4.588h.172l-.231,1.094Z" fill="#4c5c65" stroke="#4c5c65" stroke-miterlimit="10" stroke-width=".2"/>
    <path d="M73.59,27.905h-1l-.939,4.426h-.172l.94-4.426h-.795l.035-.162h.794l.137-.625c.085-.426,.189-.708,.316-.862,.171-.214,.486-.342,.812-.342,.273,0,.214,0,.436,.017l-.033,.179c-.163-.026-.231-.034-.377-.034-.598,0-.82,.256-1.008,1.161l-.111,.506h1l-.034,.162Z" fill="#4c5c65" stroke="#4c5c65" stroke-miterlimit="10" stroke-width=".2"/>
    <path d="M77.417,28.161c.222,.273,.385,.726,.385,1.085,0,2.034-1.068,3.357-2.606,3.212-.871-.084-1.427-.641-1.52-1.528-.104-.939,.222-2.008,.785-2.623,.471-.504,1.111-.752,1.829-.692,.453,.034,.862,.239,1.128,.547Zm-2.974,.444c-.41,.572-.649,1.444-.589,2.222,.06,.863,.572,1.401,1.4,1.47,.71,.059,1.333-.248,1.761-.847,.376-.528,.606-1.357,.606-2.171,0-.442-.197-.905-.504-1.17-.223-.188-.514-.299-.88-.333-.701-.068-1.367,.239-1.795,.829Z" fill="#4c5c65" stroke="#4c5c65" stroke-miterlimit="10" stroke-width=".2"/>
    <path d="M81.398,27.931c-.043,0-.068-.009-.085-.009-.701-.06-1.222,.197-1.641,.82-.266,.385-.419,.812-.615,1.77l-.394,1.819h-.171l.974-4.588h.171l-.256,1.238c.529-.966,1.076-1.308,1.957-1.248,.025,0,.051,.01,.102,.01l-.043,.188Z" fill="#4c5c65" stroke="#4c5c65" stroke-miterlimit="10" stroke-width=".2"/>
    <path d="M84.685,28.99c.462-1.025,1.282-1.538,2.247-1.385,.957,.146,1.453,.983,1.324,2.196-.171,1.581-1.145,2.683-2.366,2.683-.966,0-1.606-.674-1.59-1.684l-.666,3.145h-.171l1.315-6.202h.171l-.265,1.247Zm.376-.394c-.435,.59-.691,1.487-.649,2.239,.043,.846,.572,1.427,1.351,1.486,.743,.06,1.393-.333,1.837-1.094,.342-.571,.521-1.314,.479-1.99-.052-.846-.504-1.367-1.265-1.471-.667-.084-1.308,.214-1.752,.829Z" fill="#4c5c65" stroke="#4c5c65" stroke-miterlimit="10" stroke-width=".2"/>
    <path d="M91.862,27.931c-.043,0-.068-.009-.085-.009-.7-.06-1.222,.197-1.641,.82-.265,.385-.419,.812-.615,1.77l-.394,1.819h-.171l.975-4.588h.171l-.257,1.238c.53-.966,1.077-1.308,1.957-1.248,.025,0,.052,.01,.102,.01l-.043,.188Z" fill="#4c5c65" stroke="#4c5c65" stroke-miterlimit="10" stroke-width=".2"/>
    <path d="M95.677,28.161c.222,.273,.385,.726,.385,1.085,0,2.034-1.068,3.357-2.606,3.212-.871-.084-1.428-.641-1.52-1.528-.104-.939,.222-2.008,.785-2.623,.471-.504,1.111-.752,1.829-.692,.453,.034,.862,.239,1.128,.547Zm-2.974,.444c-.41,.572-.649,1.444-.59,2.222,.059,.863,.572,1.401,1.401,1.47,.709,.059,1.333-.248,1.761-.847,.375-.528,.605-1.357,.605-2.171,0-.442-.196-.905-.504-1.17-.222-.188-.513-.299-.88-.333-.701-.068-1.366,.239-1.794,.829Z" fill="#4c5c65" stroke="#4c5c65" stroke-miterlimit="10" stroke-width=".2"/>
    <path d="M99.135,27.905h-1.018l-.7,3.28c-.051,.248-.077,.42-.086,.547-.017,.326,.205,.471,.658,.453,.137-.008,.239-.017,.392-.059l-.034,.188c-.204,.025-.29,.035-.513,.035-.461,0-.7-.206-.683-.591,.008-.136,.033-.291,.094-.589l.692-3.264h-.872l.034-.162h.872l.315-1.461h.172l-.309,1.461h1.017l-.033,.162Z" fill="#4c5c65" stroke="#4c5c65" stroke-miterlimit="10" stroke-width=".2"/>
    <path d="M103.098,30.801c-.342,1.112-1.033,1.657-2.11,1.657-.915,0-1.572-.648-1.666-1.648-.171-1.923,1.085-3.434,2.648-3.195,.777,.119,1.265,.649,1.351,1.461,.033,.29,.025,.538-.026,.898h-3.767c-.043,.247-.051,.442-.034,.708,.086,1.136,.795,1.752,1.846,1.598,.77-.111,1.29-.606,1.572-1.479h.188Zm.034-.989c.034-.248,.034-.411,.017-.634-.085-.88-.571-1.385-1.4-1.427-1.094-.061-1.948,.752-2.196,2.06h3.58Z" fill="#4c5c65" stroke="#4c5c65" stroke-miterlimit="10" stroke-width=".2"/>
    <path d="M108.011,30.869c-.358,1.025-1.11,1.589-2.109,1.589-1.067,0-1.676-.69-1.676-1.913,0-.692,.24-1.47,.608-1.99,.392-.547,.955-.871,1.622-.94,1.103-.111,1.812,.47,1.82,1.486h-.171c0-.879-.632-1.41-1.606-1.324-.676,.06-1.231,.41-1.599,1.017-.298,.485-.486,1.153-.486,1.743,0,1.085,.486,1.7,1.385,1.76,.922,.059,1.657-.453,2.032-1.428h.18Z" fill="#4c5c65" stroke="#4c5c65" stroke-miterlimit="10" stroke-width=".2"/>
    <path d="M111.204,27.905h-1.018l-.701,3.28c-.051,.248-.076,.42-.085,.547-.017,.326,.204,.471,.657,.453,.137-.008,.239-.017,.394-.059l-.034,.188c-.204,.025-.29,.035-.513,.035-.461,0-.701-.206-.683-.591,.007-.136,.033-.291,.093-.589l.693-3.264h-.872l.033-.162h.872l.316-1.461h.171l-.309,1.461h1.018l-.033,.162Z" fill="#4c5c65" stroke="#4c5c65" stroke-miterlimit="10" stroke-width=".2"/>
    <path d="M111.531,32.331h-.17l.973-4.588h.171l-.974,4.588Zm1.179-5.52h-.179l.196-.915h.171l-.189,.915Z" fill="#4c5c65" stroke="#4c5c65" stroke-miterlimit="10" stroke-width=".2"/>
    <path d="M116.942,28.161c.224,.273,.385,.726,.385,1.085,0,2.034-1.067,3.357-2.606,3.212-.871-.084-1.427-.641-1.52-1.528-.102-.939,.222-2.008,.787-2.623,.469-.504,1.11-.752,1.827-.692,.453,.034,.862,.239,1.128,.547Zm-2.974,.444c-.409,.572-.649,1.444-.59,2.222,.06,.863,.573,1.401,1.401,1.47,.71,.059,1.335-.248,1.761-.847,.377-.528,.606-1.357,.606-2.171,0-.442-.196-.905-.504-1.17-.222-.188-.512-.299-.879-.333-.702-.068-1.368,.239-1.796,.829Z" fill="#4c5c65" stroke="#4c5c65" stroke-miterlimit="10" stroke-width=".2"/>
    <path d="M118.934,28.837c.248-.41,.428-.625,.701-.829,.418-.308,.991-.445,1.504-.359,.666,.111,1.085,.606,1.042,1.231-.017,.213-.06,.461-.146,.889l-.546,2.562h-.172l.556-2.641c.043-.188,.112-.59,.129-.761,.06-.58-.308-1.024-.924-1.119-.64-.094-1.247,.128-1.691,.633-.375,.418-.537,.803-.719,1.632l-.478,2.256h-.17l.973-4.588h.171l-.231,1.094Z" fill="#4c5c65" stroke="#4c5c65" stroke-miterlimit="10" stroke-width=".2"/>
  </g>
</svg>